<?xml version="1.0" encoding="iso-8859-1"?>
<!-- Generator: Adobe Illustrator 16.0.0, SVG Export Plug-In . SVG Version: 6.00 Build 0)  -->
<!DOCTYPE svg PUBLIC "-//W3C//DTD SVG 1.1//EN" "http://www.w3.org/Graphics/SVG/1.1/DTD/svg11.dtd">
<svg version="1.1" id="Layer_1" xmlns="http://www.w3.org/2000/svg" xmlns:xlink="http://www.w3.org/1999/xlink" x="0px" y="0px"
	 width="92.866px" height="94.338px" viewBox="0 0 92.866 94.338" style="enable-background:new 0 0 92.866 94.338;"
	 xml:space="preserve">
<g>
	<path style="fill-rule:evenodd;clip-rule:evenodd;" d="M51.481,43.174c1.018,0.551,1.857-0.153,2.764-0.39
		c0.854,0.837,2.113,0.661,3.076,1.233c1.186,1.921,3.619-0.022,4.912,1.584c0.166,0.359,0.107,0.685-0.137,0.986
		c-0.99,0.618-2.135,0.761-3.221,1.096c-1.973,0.368-3.957,0.284-5.943,0.196c-3.541-0.971-7.243,1.004-10.75-0.565
		c-0.541-1.779-1.975-2.822-3.293-3.964c0.283-0.399,0.567-0.8,0.851-1.201c0.196-0.298,0.469-0.445,0.829-0.422
		c2.829,1.158,5.752,0.808,8.672,0.528C50.213,42.007,50.77,42.78,51.481,43.174z"/>
	<path style="fill-rule:evenodd;clip-rule:evenodd;" d="M68.051,86.146c0.184,0.018,0.365,0.036,0.549,0.058
		c1.424-0.639,0.883-2.772,2.49-3.274c1.393-0.602,2.156,0.511,3.104,1.127c0.633,0.266,1.266,0.519,1.932,0.688
		c1.799,0.438,2.199,1.717,2.02,3.346c-0.061,0.363-0.193,0.699-0.387,1.012c-0.643,0.669-1.52,0.86-2.346,1.153
		c-2.1,0.379-4.23-0.293-6.328,0.183c-0.619,0.251-1.213,0.568-1.889,0.652c-0.354,0.021-0.699-0.022-1.041-0.117
		c-1.338-0.641-1.787-1.692-1.439-3.112c0.391-0.845,1.051-1.438,1.813-1.937C67.073,85.742,67.577,85.846,68.051,86.146z"/>
	<path style="fill-rule:evenodd;clip-rule:evenodd;" d="M38.89,43.351c1.138,0.847,4.367-0.163,2.761,3.116
		c-0.788,0.641-1.741,0.621-2.677,0.673c-0.919,0.021-1.839,0.009-2.759,0.014c-0.72,0.009-1.44-0.005-2.16-0.031
		c-1.567-0.211-3.136-0.444-4.712-0.03c-1.316,0.066-2.632,0.137-3.905-0.321c-0.535-0.26-0.913-0.663-1.115-1.226
		c2.178-2.973,5.378-2.063,8.23-1.944c1.915,0.08,3.796,0.39,5.688-0.104C38.441,43.372,38.656,43.324,38.89,43.351z"/>
	<path style="fill-rule:evenodd;clip-rule:evenodd;" d="M2.66,30.941c3.688-0.614,7.382-1.129,11.135-0.667
		c0.957-0.378,1.853-0.557,2.322,0.695c0.325,1.089-0.421,1.754-0.986,2.492c-0.266,0.246-0.532,0.493-0.798,0.739
		c-0.377,0.25-0.541,0.75-1.027,0.872c-1.437,0.247-2.434-1.241-3.876-0.974c-0.947,0.148-1.875,0.179-2.707-0.406
		c-0.361-0.279-0.606-0.62-0.562-1.079C4.982,32.085,3.366,32.447,2.66,30.941z"/>
	<path style="fill-rule:evenodd;clip-rule:evenodd;" d="M38.242,43.497c-1.806,1.339-3.827,0.686-5.802,0.685
		c-2.696,0-5.46-0.224-7.917,1.306c-0.693,0.946-1.773,1.352-2.724,1.938c-0.271-0.141-0.542-0.279-0.812-0.42
		c-1.011-0.971-3.21-1.182-2.214-3.442C25.261,43.093,31.748,42.323,38.242,43.497z"/>
	<path style="fill-rule:evenodd;clip-rule:evenodd;" d="M62.209,46.221c0.008-0.212,0.016-0.426,0.02-0.639
		c-0.012-0.137-0.023-0.275-0.043-0.41c-0.971-0.642-2.057-0.2-3.08-0.343c-0.693,0.004-1.342-0.13-1.885-0.59
		c-1.082-0.304-2.707,0.509-2.977-1.455c3.846,0.007,7.693,0.014,11.539,0.021c2.139,0.726,4.412-0.214,6.547,0.532
		c0.029,2.284-1.734,1.574-2.949,1.743c-1.559,0.218-3.367-0.323-4.361,1.521c-0.459,0.267-0.951,0.357-1.473,0.339
		C63.004,46.876,62.528,46.697,62.209,46.221z"/>
	<path style="fill-rule:evenodd;clip-rule:evenodd;" d="M9.271,87.637c0.966-1.371,2.335-1.263,3.96-0.885
		c-2.818-3.188-1.101-5.526,1.048-7.791c0.466,0.02,0.916,0.114,1.349,0.291c0.69,0.341,1.484,0.554,1.792,1.387
		c-0.354,1.483-2.334,0.62-2.792,1.951c-0.969,1.325,0.004,2.274,0.638,3.291c0.166,0.302,0.272,0.618,0.333,0.955
		c0.082,1.252-0.498,1.981-1.725,2.208c-0.512,0.09-1.029,0.104-1.547,0.076c-0.51-0.023-1.009-0.114-1.492-0.281
		C10.18,88.61,9.69,88.17,9.271,87.637z"/>
	<path style="fill-rule:evenodd;clip-rule:evenodd;" d="M39.668,2.714c2.519-3.144,5.86-1.129,8.834-1.413
		c0.938,0.986,2.508,1.482,2.49,3.21c-0.104,0.355-0.307,0.633-0.623,0.828c-0.855,0.367-1.723,0.327-2.594,0.07
		c-1.344-0.647-2.755-1.1-4.207-1.433C42.434,3.054,40.754,3.797,39.668,2.714z"/>
	<path style="fill-rule:evenodd;clip-rule:evenodd;" d="M12.059,88.361c0.556,0.014,1.112,0.026,1.668,0.037
		c1.608,0.984,2.725-0.946,4.208-0.718c0.69-0.07,1.382-0.072,2.076-0.059c0.532,0.004,1.057,0.06,1.571,0.193
		c0.338,0.11,0.633,0.295,0.887,0.541c0.1,0.349,0.04,0.669-0.18,0.956c-1.591,0.358-3.177,0.771-4.841,0.643
		c1.688,0.473,3.22-0.449,4.855-0.461c0.803-0.013,1.298,0.398,1.56,1.132c-4.135,1.54-8.296,0.759-12.457,0.143
		C10.733,89.726,12.667,89.389,12.059,88.361z"/>
	<path style="fill-rule:evenodd;clip-rule:evenodd;" d="M36.056,7.934c-1.007-1.423-0.083-2.208,0.974-2.949
		c0.392-0.413,0.838-0.461,1.33-0.204c0.828,1.455,2.168,0.834,3.361,0.814c1.945-0.026,3.886-0.042,5.826-0.204
		c1.139-0.135,2.191,0.234,3.25,0.572c0.5,0.374,0.803,0.791,0.305,1.385c-1.004,0.69-2.156,0.599-3.285,0.644
		c-3.216-0.499-6.316,0.766-9.505,0.65C37.558,8.422,36.865,7.999,36.056,7.934z"/>
	<path style="fill-rule:evenodd;clip-rule:evenodd;" d="M72.379,44.151c-1.969-1.585-4.623,0.2-6.596-1.347
		c1.805-0.054,3.611-0.179,5.414-0.144c1.814,0.037,4.426-0.433,4.203,2.377c-0.229,2.927-2.695,1.288-4.283,1.325
		C70.227,44.88,72.19,45.021,72.379,44.151z"/>
	<path style="fill-rule:evenodd;clip-rule:evenodd;" d="M45.584,65.095c-0.845-0.193-1.69-0.387-2.536-0.578
		c-0.97-1.113-1.956-2.219-1.891-3.843c0.414-0.317,0.889-0.421,1.398-0.401c1.584,0.493,3.103,0.399,4.528-0.525
		c0.715-0.123,1.309,0.026,1.654,0.737c0.07,1.644-1.385,2.505-1.957,3.82C46.481,64.715,46.1,65.012,45.584,65.095z"/>
	<path style="fill-rule:evenodd;clip-rule:evenodd;" d="M36.056,7.934c0.355-0.722,0.86-0.852,1.517-0.383
		c0.525,0.832,0.983,1.697,1.301,2.628c0.448,1,0.731,2.067,1.268,3.029c0.682,1.017,1.563,1.913,1.962,3.109
		c0.086,0.322,0.01,0.6-0.223,0.835C38.595,14.929,35.537,12.561,36.056,7.934z"/>
	<path style="fill-rule:evenodd;clip-rule:evenodd;" d="M57.301,56.014c-0.063,0.319-0.121,0.637-0.182,0.954
		c-0.889,1.553-2.57,1.891-3.994,2.627c-0.318,0.098-0.645,0.121-0.975,0.088c-0.643-0.18-1.225-0.464-1.658-0.992
		c-0.123-1.35,1.27-1.758,1.711-2.762c0.182-0.282,0.389-0.54,0.611-0.788c0.879-0.9,1.863-1.554,3.197-1.433
		c0.766,0.127,1.355,0.471,1.561,1.282C57.62,55.365,57.528,55.71,57.301,56.014z"/>
	<path style="fill-rule:evenodd;clip-rule:evenodd;" d="M75.276,28.202c4.424,0.412,8.859-0.766,13.279,0.114
		c0.537,0.547,1.799-0.231,1.922,0.999c0.055,0.549-0.521,0.693-0.936,0.895c-0.955,0.253-1.902,0.156-2.848-0.043
		c-2.471-0.559-4.926-0.447-7.391,0.07c-1.398,0.292-2.814,0.424-4.186-0.186C74.165,29.349,74.452,28.752,75.276,28.202z"/>
	<path style="fill-rule:evenodd;clip-rule:evenodd;" d="M77.545,88.361c0.01-1.494,0.092-3.035-2.092-3.002
		c-0.289-0.927,0.369-1.943-0.262-2.839c0.354-1.479,1.434-2.091,2.057-0.579c0.914,2.216,2.711,4.027,2.975,6.515
		c-0.125,0.442-0.338,0.804-0.832,0.911C78.598,89.36,77.999,88.993,77.545,88.361z"/>
	<path style="fill-rule:evenodd;clip-rule:evenodd;" d="M57.012,70.594c0.996-0.615,1.805-0.421,2.43,0.565
		c0.91,1.186,1.473,2.451,0.92,3.975c-0.234,0.309-0.545,0.405-0.92,0.316c-1.254-1.357-4.248-0.938-3.963-3.875
		C55.813,70.974,56.391,70.75,57.012,70.594z"/>
	<path style="fill-rule:evenodd;clip-rule:evenodd;" d="M17.69,76.677c0.675-1.855,1.807-2.393,2.769-0.418
		c0.936,1.925,2.509,3.774,1.852,6.215c0.407,0.68-0.063,0.964-0.554,1.239c-0.964,0.242-1.747-0.049-2.364-0.813
		c-0.435-1.03,0.741-2.144-0.155-3.16c-0.289-0.834,0.283-1.968-0.894-2.474C18.064,77.143,17.849,76.938,17.69,76.677z"/>
	<path style="fill-rule:evenodd;clip-rule:evenodd;" d="M75.276,28.202c-0.26,0.425-0.52,0.85-0.779,1.275
		c0.02,0.151,0.037,0.303,0.059,0.453c0.111,1.066,1.021,1.42,1.738,1.953c0.174,0.291,0.295,0.597,0.371,0.927
		c0.121,0.685,0.139,1.374,0.115,2.067c-0.047,0.721-0.141,1.426-0.703,1.961c-1.199-1.446-1.961-3.166-3.188-4.637
		C71.35,30.355,72.504,28.645,75.276,28.202z"/>
	<path style="fill-rule:evenodd;clip-rule:evenodd;" d="M19.505,82.432c0.667,0.365,1.332,0.73,1.998,1.095
		c0.76,0.606,0.647,1.329,0.279,2.084c-0.125,0.22-0.15,0.446-0.073,0.685c-0.135,0.085-0.271,0.169-0.408,0.255
		c-2.087-0.988-4.245,0.251-6.35-0.196l0.12-0.139c-0.364-0.88-0.07-1.682,0.29-2.479c0.731-1.176,2.028-1.156,3.16-1.495
		C18.87,82.196,19.198,82.254,19.505,82.432z"/>
	<path style="fill-rule:evenodd;clip-rule:evenodd;" d="M41.88,17.153c0.087-0.21,0.109-0.427,0.065-0.649
		c-0.543-0.665-0.488-1.391-0.221-2.142c0.277-0.283,0.606-0.479,0.984-0.596c1.93-0.25,3.871-0.593,5.705,0.428
		c0.264,1.962-0.65,2.763-2.568,2.737c-0.924-0.013-1.889-0.271-2.785,0.207C42.666,17.144,42.273,17.148,41.88,17.153z"/>
	<path style="fill-rule:evenodd;clip-rule:evenodd;" d="M45.584,65.095c0.124-0.195,0.248-0.392,0.37-0.587
		c2.123-1.006,2.783,1.118,4.068,1.901c0.158,0.079,0.309,0.174,0.449,0.279c0.896,0.368,1.475,0.96,1.402,2.006
		c-0.082,0.35-0.24,0.662-0.473,0.937C49.311,68.313,46.458,67.972,45.584,65.095z"/>
	<path style="fill-rule:evenodd;clip-rule:evenodd;" d="M72.379,44.151c0.781,1.42-0.773,1.514-1.262,2.212
		c-0.537,0.275-1.074,0.55-1.611,0.825c-1.219,0.093-2.221-1.087-3.508-0.604c-0.33,0.01-0.607-0.109-0.842-0.336
		c-0.686-1.125-0.063-1.431,0.941-1.52C68.19,44.541,70.284,44.343,72.379,44.151z"/>
	<path style="fill-rule:evenodd;clip-rule:evenodd;" d="M47.067,29.554c0.199,0.418,0.396,0.838,0.596,1.257
		c1.184,1.58-0.227,3.385,0.434,5.012c0.346,1.063,0.555,2.119-0.148,3.131c-1.711,0.542-1.537-0.982-1.854-1.803
		c-0.587-1.522-0.629-3.215-1.376-4.7c-0.138-0.329-0.206-0.675-0.215-1.032c0.199-0.93,0.836-1.511,1.597-1.994
		C46.444,29.305,46.768,29.341,47.067,29.554z"/>
	<path style="fill-rule:evenodd;clip-rule:evenodd;" d="M89.797,29.667c0.961-1.724-1.316-0.456-1.248-1.353
		c1.389-0.306,2.699-0.307,3.283,1.291c0.766,2.095-0.553,3.373-1.947,4.585c-0.91-0.767-0.9-1.805-0.854-2.858
		C89.102,30.693,89.385,30.15,89.797,29.667z"/>
	<path style="fill-rule:evenodd;clip-rule:evenodd;" d="M34.351,68.809c1.985-1.028,3.25-3.158,5.58-3.656
		c0.379-0.136,0.657-0.024,0.839,0.335c0.218,1.047-0.274,1.708-1.164,2.156c-1.624,0.442-2.009,3.152-4.313,2.362
		C34.754,69.785,34.398,69.416,34.351,68.809z"/>
	<path style="fill-rule:evenodd;clip-rule:evenodd;" d="M54.092,9.319c-0.174,2.239-1.32,3.987-2.805,5.566
		c-0.207-0.198-0.355-0.433-0.449-0.704c-0.141-0.69-0.299-1.377-0.563-2.037c-0.193-0.792,0.049-1.461,0.566-2.058
		c0.213-0.222,0.455-0.403,0.721-0.557C52.112,9.246,52.674,9,53.297,8.935C53.616,8.948,53.885,9.071,54.092,9.319z"/>
	<path style="fill-rule:evenodd;clip-rule:evenodd;" d="M47.477,35.547c-1.498-1.641,0.252-3.155,0.186-4.739
		c2.76,1.721,2.768,1.764,0.844,4.763C48.157,35.836,47.815,35.828,47.477,35.547z"/>
	<path style="fill-rule:evenodd;clip-rule:evenodd;" d="M35.514,69.513c2.1,0.455,2.245-2.848,4.399-2.285
		c0.763-0.376,1.498-0.86,2.42-0.606c-2.674,2.022-4.969,4.701-8.643,4.996c-0.078-0.291-0.056-0.573,0.081-0.844
		C34.167,70.096,34.854,69.823,35.514,69.513z"/>
	<path style="fill-rule:evenodd;clip-rule:evenodd;" d="M21.799,47.426c0.136-1.731,1.392-1.89,2.724-1.938
		c0.27,0.29,0.54,0.579,0.81,0.869c0.269,1.105,0.825,2.24-0.315,3.211c-1.17,0.175-1.936-0.425-2.548-1.324
		C22.246,47.97,22.022,47.697,21.799,47.426z"/>
	<path style="fill-rule:evenodd;clip-rule:evenodd;" d="M71.11,77.486c0.232-0.07,0.465-0.139,0.699-0.211
		c2.178,0.028,2.9,1.063,2.148,3.114l-0.252,0.121c-0.91,1.479-2.078,1.594-3.445,0.648C69.795,79.763,69.936,78.505,71.11,77.486z"
		/>
	<path style="fill-rule:evenodd;clip-rule:evenodd;" d="M57.161,57.967c0.355,0.632,1.586,0.924,0.783,2.009
		c0-0.002-0.174,0.273-0.174,0.273c-0.781,0.555-1.469,1.243-2.354,1.659c-1.27-0.031-2.336-0.402-2.826-1.717
		C53.862,58.929,55.254,57.92,57.161,57.967z"/>
	<path style="fill-rule:evenodd;clip-rule:evenodd;" d="M51.481,43.174c-0.658-0.23-1.316-0.464-1.977-0.694
		c-0.762-0.928-1.246-1.982-1.443-3.17c0.061-0.542,0.152-1.07,0.688-1.376c0.957-0.37,1.834-0.319,2.574,0.475
		C51.659,39.987,50.196,41.626,51.481,43.174z"/>
	<path style="fill-rule:evenodd;clip-rule:evenodd;" d="M32.532,71.874c0.575,2.535-1.508,3.825-3.028,4.294
		c-2.327,0.715-1.039-1.561-1.297-2.562c0.285-0.149,0.587-0.229,0.907-0.249c1.37,0.135,1.887-0.977,2.608-1.785
		C32.061,71.484,32.332,71.586,32.532,71.874z"/>
	<path style="fill-rule:evenodd;clip-rule:evenodd;" d="M2.66,30.941c1.666,0.633,3.383,1.06,5.195,1.431
		c-0.54,0.081-1.08,0.163-1.62,0.244c-0.564,0.601-1.501-0.054-2.048,0.608c-0.955-0.08-2.208,0.643-2.766-0.518
		C1.007,31.844,2.003,31.375,2.66,30.941z"/>
	<path style="fill-rule:evenodd;clip-rule:evenodd;" d="M64.274,51.207c-0.236,2.118-2.885,1.479-3.555,3.102
		c-0.637,0.559-1.328,0.618-2.068,0.218c-0.748-0.907-0.393-1.697,0.264-2.45c0.268-0.224,0.576-0.383,0.906-0.495
		c0.629-0.719,2.404,1.147,2.387-1.061C63.124,50.067,63.795,50.345,64.274,51.207z"/>
	<path style="fill-rule:evenodd;clip-rule:evenodd;" d="M31.519,55.739c-1.049-0.74-2.098-1.483-3.147-2.226
		c0.457-1.187,1.27-0.79,2.068-0.476c0.892,0.472,1.923,0.529,2.842,0.934c0.773,0.471,1.401,1.069,1.741,1.931
		c0.112,0.565,0.024,1.08-0.403,1.499C32.925,58.079,32.525,56.345,31.519,55.739z"/>
	<path style="fill-rule:evenodd;clip-rule:evenodd;" d="M44.79,31.339c0.01,0.167,0.005,0.335-0.014,0.502
		c-0.271,1.063-0.668,2.07-1.334,2.958c-0.325,0.093-0.623,0.034-0.902-0.154c-0.551-0.637-0.763-1.427-0.994-2.209
		c-0.066-0.515,0.009-0.98,0.469-1.305c1.099-1.279,0.287-2.892,0.753-4.281c0.639-0.202,0.891,0.22,1.116,0.688
		C44.104,28.823,44.707,30.02,44.79,31.339z"/>
	<path style="fill-rule:evenodd;clip-rule:evenodd;" d="M81.627,90.6c-0.463,2.786-2.254,3.293-4.674,2.735
		c-0.244-1.362,1.412-1.624,1.584-2.748c0.271-0.438,0.625-0.784,1.111-0.976C80.604,89.347,81.313,89.58,81.627,90.6z"/>
	<path style="fill-rule:evenodd;clip-rule:evenodd;" d="M47.067,29.554c-0.189-0.035-0.369-0.093-0.543-0.175
		c-1.143-0.404-1.131-1.476-1.386-2.394c-0.152-1.071,0.996-1.553,1.134-2.496c1.285-1,1.318,0.105,1.441,0.896
		C47.94,26.833,47.719,28.232,47.067,29.554z"/>
	<path style="fill-rule:evenodd;clip-rule:evenodd;" d="M8.606,38.518c-0.625-0.213-1.25-0.426-1.874-0.641
		c-0.838-0.422-0.9-1.056-0.496-1.817c0.466-0.345,0.99-0.424,1.549-0.343c1.373,0.448,2.881,0.219,4.225,0.835
		c0.324,0.235,0.489,0.554,0.495,0.954C11.673,39.646,9.999,38.541,8.606,38.518z"/>
	<path style="fill-rule:evenodd;clip-rule:evenodd;" d="M30.231,53.819c-0.582-0.323-1.106-1.001-1.856-0.303
		c-0.339-0.85-2.2-0.168-1.777-1.774c-0.314-0.543-0.417-1.104-0.169-1.705c2.666-1.042,3.482,0.825,4.281,2.724
		C30.699,53.18,30.539,53.533,30.231,53.819z"/>
	<path style="fill-rule:evenodd;clip-rule:evenodd;" d="M54.092,9.319c-0.225-0.054-0.447-0.113-0.67-0.18
		c-0.551-0.521-0.705-1.427-1.582-1.626c-0.299-0.078-0.51-0.267-0.646-0.542c-0.141-0.199-0.279-0.399-0.418-0.599
		c-0.574-0.251-0.584-0.688-0.391-1.192l0.225-0.223c0.764-0.493-0.068-1.628,0.834-2.064C52.288,5.05,55.297,6.315,54.092,9.319z"
		/>
	<path style="fill-rule:evenodd;clip-rule:evenodd;" d="M9.797,43.416c-1.286,0.221-2.699-0.057-3.093-1.197
		c-0.434-1.259,1.396-0.925,1.941-1.648c0.861-0.395,1.461,0.113,2.068,0.595l0.062,0.15C11.482,42.498,10.609,42.943,9.797,43.416z
		"/>
	<path style="fill-rule:evenodd;clip-rule:evenodd;" d="M40.491,65.326c-0.207,0.005-0.395-0.053-0.563-0.172
		c1.196-1.219,1.078-2.652,0.678-4.131c0.269-0.314,0.542-0.332,0.821-0.014c0.528,1.176,1.822,1.997,1.623,3.507
		c-0.315,0.188-0.63,0.376-0.944,0.563C41.643,65.656,41.091,65.649,40.491,65.326z"/>
	<path style="fill-rule:evenodd;clip-rule:evenodd;" d="M51.239,14.319c0.029,0.188,0.045,0.377,0.049,0.566
		c-2.66,1.073-4.877,3.755-8.233,2.253c1.654-1.092,5.053,0.972,5.176-2.87c0.279-0.248,0.6-0.408,0.963-0.484
		C49.952,13.667,50.645,13.805,51.239,14.319z"/>
	<path style="fill-rule:evenodd;clip-rule:evenodd;" d="M85.598,40.529c0.184,2.132-1.555,2.28-2.912,2.821
		c-0.277-0.173-0.449-0.413-0.494-0.738c0.021-0.316,0.129-0.598,0.33-0.844c0.295-0.496,2.221,0.126,0.969-1.432
		c-0.027-0.327-0.008-0.648,0.051-0.969c0.334-0.943,0.445-2.017,1.48-2.552c1.119,0.347,1.076,1.292,1.135,2.189
		C86.12,39.566,85.907,40.065,85.598,40.529z"/>
	<path style="fill-rule:evenodd;clip-rule:evenodd;" d="M13.517,34.637c0.272-0.146,0.545-0.292,0.817-0.437
		c0.102,0.569,0.138,1.159,0.323,1.701c0.24,0.703,1.436,1.201,0.636,2.099c-0.695,0.777-1.521-0.207-2.307-0.121
		c-0.467-0.096-0.407-0.535-0.55-0.843c-0.128-0.012-0.234-0.068-0.316-0.166c-0.214-0.227-0.281-0.487-0.178-0.786
		C12.239,35.355,13.137,35.279,13.517,34.637z"/>
	<path style="fill-rule:evenodd;clip-rule:evenodd;" d="M28.608,73.522c-0.129,0.051-0.262,0.079-0.401,0.086
		C27,71.999,27.634,70.291,27.939,68.6c0.161-0.463,0.314-0.947,0.884-0.339c0.519,0.58,1.037,1.159,1.556,1.736
		c-0.008,0.314-0.088,0.605-0.243,0.878C29.419,71.635,29.88,73.082,28.608,73.522z"/>
	<path style="fill-rule:evenodd;clip-rule:evenodd;" d="M78.704,90.635c0.754,1.771-0.705,2.104-1.754,2.702
		c-2.242,0.034-4.488,0.069-6.736,0.104c-0.094-0.353-0.021-0.661,0.238-0.923c2.314-1.019,5.088-0.185,7.262-1.793
		C78.034,90.582,78.366,90.56,78.704,90.635z"/>
	<path style="fill-rule:evenodd;clip-rule:evenodd;" d="M89.776,31.02c0.037,1.056,0.072,2.11,0.109,3.168
		c-0.035,0.628-0.072,1.254-0.109,1.88c-0.699,0.714-1.277,0.329-1.84-0.201c-0.859-1.128-0.926-2.313-0.246-3.551
		C88.186,31.566,88.657,30.768,89.776,31.02z"/>
	<path style="fill-rule:evenodd;clip-rule:evenodd;" d="M12.436,37.036c0.184,0.281,0.366,0.56,0.55,0.842
		c-0.204,1.48-2.939,1.208-2.272,3.29c-0.689-0.2-1.38-0.398-2.068-0.597c0.727-0.699,1.168-1.393-0.041-2.053
		C9.843,37.923,11.916,39.487,12.436,37.036z"/>
	<path style="fill-rule:evenodd;clip-rule:evenodd;" d="M71.11,77.486c-0.137,1.244-0.074,2.527-0.742,3.665
		c-0.129,0.072-0.258,0.143-0.385,0.216c-0.799,0.013-1.422-0.319-1.881-0.969C68.35,78.648,69.37,77.695,71.11,77.486z"/>
	<path style="fill-rule:evenodd;clip-rule:evenodd;" d="M62.512,73.791c1.197,1.365,2.33,2.753,1.588,4.801
		c-1.797-0.038-0.605-2.767-2.512-2.512c-0.238-0.2-0.342-0.458-0.328-0.766c0.096-0.438,0.279-0.843,0.51-1.224
		C61.948,73.815,62.2,73.725,62.512,73.791z"/>
	<path style="fill-rule:evenodd;clip-rule:evenodd;" d="M38.278,60.256c-0.14-0.027-0.273-0.073-0.402-0.137
		c-0.6-0.275-0.709-0.827-0.78-1.4c0.041-0.398,0.199-0.741,0.47-1.034c0.521-0.323,1.09-0.429,1.695-0.396
		c1.296,0.242,2.27,0.796,2.21,2.328C40.638,60.979,39.411,60.381,38.278,60.256z"/>
	<path style="fill-rule:evenodd;clip-rule:evenodd;" d="M78.18,39.769c-0.221-0.483-0.443-0.965-0.666-1.448
		c-0.404-1.04-0.039-1.962,0.438-2.87c0.262-0.233,0.57-0.372,0.918-0.418c0.75,0.025,1.303,0.4,1.736,0.982
		c0.23,0.479,0.264,0.976,0.123,1.485c-0.438,0.894-1.01,1.697-1.689,2.425C78.715,40.078,78.428,40.036,78.18,39.769z"/>
	<path style="fill-rule:evenodd;clip-rule:evenodd;" d="M21.782,85.61c-0.093-0.693-0.187-1.39-0.28-2.084
		c0.27-0.351,0.54-0.7,0.809-1.051c1.219,0.114,2.245,0.663,2.099,1.973C24.232,86.039,22.725,85.344,21.782,85.61z"/>
	<path style="fill-rule:evenodd;clip-rule:evenodd;" d="M23.768,87.529c1.012-0.883,2.118-0.898,2.619,0.35
		c0.603,1.504-0.884,1.913-1.837,2.521c-0.679-0.513-0.883-1.281-1.107-2.041C23.404,88.024,23.521,87.751,23.768,87.529z"/>
	<path style="fill-rule:evenodd;clip-rule:evenodd;" d="M39.668,2.714c1.205,0.55,2.784-1.199,3.781,0.618
		c-0.296,0.751-0.968,1.08-1.612,1.444c-1.036,0.381-2.077,1.129-3.108-0.007c-0.366-0.792-0.301-1.49,0.441-2.042
		C39.334,2.655,39.5,2.65,39.668,2.714z"/>
	<path style="fill-rule:evenodd;clip-rule:evenodd;" d="M71.002,83.24c-1.268,0.609,0.199,3.433-2.402,2.964
		c0.082-1.226,0.166-2.451,0.248-3.676c0.23-0.213,0.496-0.354,0.801-0.424c0.477-0.049,0.92,0.035,1.322,0.304
		C71.168,82.679,71.178,82.954,71.002,83.24z"/>
	<path style="fill-rule:evenodd;clip-rule:evenodd;" d="M26.611,49.981c-0.005,0.586-0.011,1.173-0.015,1.759
		c-2.04-0.377-3.624-1.297-4.127-3.495c1.146,0.425,2.29,0.852,3.435,1.276C26.228,49.539,26.459,49.699,26.611,49.981z"/>
	<path style="fill-rule:evenodd;clip-rule:evenodd;" d="M27.351,76.465c-1.504-0.722-2.42-1.391-1.837-2.848
		c0.082-0.205,0.68-0.409,0.915-0.311C28.017,73.967,27.134,75.188,27.351,76.465z"/>
	<path style="fill-rule:evenodd;clip-rule:evenodd;" d="M75.192,82.521c2.85,0.697,1.15,1.807,0.26,2.841
		c-0.496-0.205-0.992-0.411-1.49-0.614c-0.539-0.449-0.553-0.915-0.045-1.397C74.342,83.072,74.766,82.798,75.192,82.521z"/>
	<path style="fill-rule:evenodd;clip-rule:evenodd;" d="M51.323,38.408c-0.934-0.037-1.865-0.075-2.797-0.112
		c-0.521-0.833,0.049-1.389,0.502-1.976C51.93,34.666,51.35,36.84,51.323,38.408z"/>
	<path style="fill-rule:evenodd;clip-rule:evenodd;" d="M64.993,87.787c0.104,1.21,0.115,2.471,1.609,2.907
		c0.117,0.565-0.207,0.818-0.688,0.959c-0.32-0.004-0.574-0.134-0.75-0.406c-1.025-0.416-1.91-0.974-2.178-2.155
		C63.608,88.586,63.663,87.206,64.993,87.787z"/>
	<path style="fill-rule:evenodd;clip-rule:evenodd;" d="M32.532,71.874c-0.207-0.083-0.419-0.151-0.636-0.202
		c-1.214,0.543-1.523-0.254-1.746-1.18c0.055-0.174,0.132-0.339,0.23-0.495c0.348-0.212,0.697-0.425,1.045-0.637
		c0.162-0.562,0.497-0.9,1.118-0.873c0.222,0.097,0.444,0.195,0.666,0.295c0.462,0.719,0.56,1.505,0.438,2.333
		c0.018,0.169,0.034,0.336,0.045,0.502C33.304,71.704,32.918,71.79,32.532,71.874z"/>
	<path style="fill-rule:evenodd;clip-rule:evenodd;" d="M65.799,46.455c1.682-2.009,2.643-0.362,3.707,0.731
		c-0.551,0.334-1.104,0.665-1.654,0.997C66.69,48.177,65.756,47.893,65.799,46.455z"/>
	<path style="fill-rule:evenodd;clip-rule:evenodd;" d="M64.274,51.207c-0.652-0.146-1.303-0.294-1.953-0.441
		c-0.307,0.182-0.607,0.174-0.902-0.017c-0.141-0.314-0.127-0.625,0.018-0.935c0.381-0.321,0.84-0.469,1.318-0.572
		c0.955-0.121,1.699-0.801,2.633-0.995c0.699,0.13,1.221,0.438,1.238,1.246C65.979,50.25,65.374,51.068,64.274,51.207z"/>
	<path style="fill-rule:evenodd;clip-rule:evenodd;" d="M6.433,36.18c0.101,0.565,0.203,1.131,0.302,1.697
		c-0.666,0.848-1.649,1.328-2.299,0.354c-1.126-1.69,0.716-2.108,1.595-2.901c0.163-0.012,0.326-0.023,0.489-0.034
		C6.674,35.608,6.655,35.904,6.433,36.18z"/>
	<path style="fill-rule:evenodd;clip-rule:evenodd;" d="M31.519,55.739c1.037,0.499,2.074,0.997,3.11,1.494
		c0.463,0.068,0.769,0.339,0.956,0.757c0.032,0.476-0.192,0.814-0.582,1.06C32.003,59.884,32.349,57.194,31.519,55.739z"/>
	<path style="fill-rule:evenodd;clip-rule:evenodd;" d="M66.625,49.493c-0.49-0.235-0.984-0.469-1.477-0.702
		c-0.383-0.238-0.662-0.584-0.957-0.914c-0.215-0.2-0.408-0.422-0.588-0.653c-0.148-0.299-0.074-0.526,0.225-0.682
		c0.439-0.098,0.885-0.196,1.326-0.293c0.203,0.109,0.418,0.176,0.645,0.206c0.686,0.573,1.371,1.149,2.055,1.727
		C67.444,48.619,67.036,49.057,66.625,49.493z"/>
	<path style="fill-rule:evenodd;clip-rule:evenodd;" d="M9.271,87.637c0.557,0.035,1.198-0.183,1.532,0.514
		c0.518,0.757,0.412,1.578,0.246,2.405C8.506,90.77,7.965,89.766,9.271,87.637z"/>
	<path style="fill-rule:evenodd;clip-rule:evenodd;" d="M78.167,35.52c0.168,1.023-0.229,1.917-0.652,2.8
		c-0.48-0.493-0.959-0.988-1.438-1.482c-0.021-0.717-0.041-1.433-0.063-2.149c0.23-0.235,0.512-0.359,0.84-0.372
		C77.534,34.453,78.036,34.786,78.167,35.52z"/>
	<path style="fill-rule:evenodd;clip-rule:evenodd;" d="M57.012,70.594c-0.512,0.327-1.023,0.655-1.533,0.981
		c-0.41-0.091-0.824-0.183-1.236-0.275c-0.75-0.709-1.18-1.513-0.736-2.564C54.674,69.354,55.842,69.975,57.012,70.594z"/>
	<path style="fill-rule:evenodd;clip-rule:evenodd;" d="M85.598,40.529c-0.043-0.494-0.086-0.989-0.131-1.481
		c0.811-0.564,0.664-1.735,1.461-2.309c1.24-0.107,0.871,1.146,1.393,1.647C87.727,39.498,87.299,40.822,85.598,40.529z"/>
	<path style="fill-rule:evenodd;clip-rule:evenodd;" d="M31.05,67.82c-0.153-1.03-1.348-1.944-0.343-3.104
		c0.249-0.442,0.624-0.627,1.126-0.548c0.883,0.741,0.641,1.664,0.415,2.583C31.828,67.085,32.531,68.676,31.05,67.82z"/>
	<path style="fill-rule:evenodd;clip-rule:evenodd;" d="M73.958,80.39c0.143-1.634-0.631-2.631-2.15-3.112
		c1.408-1.187,2.195,0.024,2.928,0.871C75.643,79.198,74.895,79.874,73.958,80.39z"/>
	<path style="fill-rule:evenodd;clip-rule:evenodd;" d="M33.937,63.786c-0.394-1.109-1.979-1.84-1.082-3.425
		c1.399-0.053,1.375,1.34,2.056,1.98C35.014,63.11,35.162,63.913,33.937,63.786z"/>
	<path style="fill-rule:evenodd;clip-rule:evenodd;" d="M78.18,39.769c0.273-0.023,0.541-0.046,0.811-0.068
		c0.643-0.491,1.324-0.546,2.041-0.173c0.436,0.407,0.541,0.918,0.471,1.485c-0.203,0.715-0.531,1.34-1.24,1.683
		C79.594,41.702,78.297,41.153,78.18,39.769z"/>
	<path style="fill-rule:evenodd;clip-rule:evenodd;" d="M58.76,54.218c0.652,0.029,1.307,0.06,1.959,0.091
		c-0.404,2.045-1.92,1.857-3.418,1.703c-0.018-0.327-0.033-0.655-0.051-0.985C57.542,54.361,57.887,53.798,58.76,54.218z"/>
	<path style="fill-rule:evenodd;clip-rule:evenodd;" d="M64.993,87.787c-0.67,0.436-1.338,0.871-2.006,1.305
		c-0.346-1.776,0.912-2.337,2.188-2.886c0.549-0.42,1.027-0.358,1.424,0.219C66.063,86.88,65.528,87.334,64.993,87.787z"/>
	<path style="fill-rule:evenodd;clip-rule:evenodd;" d="M42.064,32.451c0.288,0.73,0.575,1.461,0.863,2.192
		c-0.136,0.239-0.322,0.426-0.564,0.558c-0.358,0.19-0.731,0.35-1.122,0.462c-0.135,0-0.271-0.003-0.407-0.004
		c-0.109-0.081-0.217-0.161-0.326-0.244c-0.032-0.937-0.065-1.874-0.097-2.812C40.918,32.067,41.475,32.081,42.064,32.451z"/>
	<path style="fill-rule:evenodd;clip-rule:evenodd;" d="M53.506,68.735c0.244,0.854,0.49,1.711,0.736,2.564
		c-1.578,0.517-1.855-1.18-2.844-1.669c-0.02-0.444-0.041-0.891-0.059-1.335c0.82-0.188,1.547,0.061,2.236,0.494L53.506,68.735z"/>
	<path style="fill-rule:evenodd;clip-rule:evenodd;" d="M15.158,79.729c-0.293-0.256-0.586-0.514-0.879-0.769
		c0.733-1.366,1.18-3.163,3.413-2.284c-0.001,0,0.225,0.154,0.225,0.154c0.182,0.145,0.269,0.312,0.259,0.495
		c-0.01,0.197-0.039,0.297-0.084,0.297C17.203,78.448,16.196,79.111,15.158,79.729z"/>
	<path style="fill-rule:evenodd;clip-rule:evenodd;" d="M59.991,71.086c0.281-0.068,0.563-0.136,0.844-0.205
		c1.83,0.238,2.234,1.295,1.678,2.908c0,0.002-0.268,0.123-0.268,0.123C60.454,73.798,60.176,72.478,59.991,71.086z"/>
	<path style="fill-rule:evenodd;clip-rule:evenodd;" d="M73.917,83.35c0.016,0.465,0.029,0.931,0.045,1.397
		c-0.916-0.641-1.588-1.763-2.961-1.507c-0.014-0.212-0.023-0.421-0.031-0.633c0.578-1.214,1.502-1.324,2.619-0.824
		C73.698,82.307,73.807,82.828,73.917,83.35z"/>
	<path style="fill-rule:evenodd;clip-rule:evenodd;" d="M73.588,81.783c-0.875,0.274-1.746,0.55-2.621,0.824
		c-0.5-0.07-0.998-0.141-1.5-0.213c-0.096-0.567,0.096-1.011,0.58-1.327l0.32,0.084c1.156,0.004,2.326,0.094,3.34-0.643
		C73.667,80.936,73.627,81.358,73.588,81.783z"/>
	<path style="fill-rule:evenodd;clip-rule:evenodd;" d="M57.161,57.967c-1.379,0.787-2.756,1.573-4.135,2.359
		c-0.338-0.106-0.463-0.333-0.373-0.678c0.996-1.711,3.002-1.744,4.467-2.681C57.133,57.3,57.147,57.634,57.161,57.967z"/>
	<path style="fill-rule:evenodd;clip-rule:evenodd;" d="M18.774,43.563c-0.026,1.636,1.641,2.188,2.212,3.442
		C19.269,46.488,16.752,46.484,18.774,43.563z"/>
	<path style="fill-rule:evenodd;clip-rule:evenodd;" d="M66.598,86.425c-0.475-0.071-0.949-0.146-1.426-0.219
		c0.066-0.869,0.207-1.863,1.186-1.994c1.307-0.182,1.141,1.264,1.693,1.935C67.567,86.239,67.083,86.332,66.598,86.425z"/>
	<path style="fill-rule:evenodd;clip-rule:evenodd;" d="M65.165,91.247c0.277,0.043,0.555,0.086,0.83,0.13
		c1.225,0.561,2.611,0.517,3.85,1.034c0.115,0.121,0.23,0.242,0.346,0.363c0.01,0.224,0.02,0.444,0.023,0.667
		C68.319,93.196,65.684,94.658,65.165,91.247z"/>
	<path style="fill-rule:evenodd;clip-rule:evenodd;" d="M51.444,2.892c-0.094,0.762,0.275,1.712-0.834,2.064
		c0.137-1.702-1.525-2.368-2.107-3.654C49.77,1.299,50.534,2.232,51.444,2.892z"/>
	<path style="fill-rule:evenodd;clip-rule:evenodd;" d="M33.647,71.115c-0.942-0.628-0.914-1.439-0.438-2.333
		c0.382,0.009,0.765,0.017,1.145,0.025c0.384,0.234,0.771,0.47,1.159,0.705C34.969,70.138,34.556,70.915,33.647,71.115z"/>
	<path style="fill-rule:evenodd;clip-rule:evenodd;" d="M31.833,64.169c-0.375,0.183-0.75,0.365-1.125,0.548
		c-1.467-0.902,0.127-2.117-0.32-3.125c0.734-0.419,0.947,0.209,1.265,0.629C31.712,62.87,31.773,63.52,31.833,64.169z"/>
	<path style="fill-rule:evenodd;clip-rule:evenodd;" d="M43.301,27.604c-0.179-0.253-0.356-0.506-0.533-0.756
		c-0.381-2.128,0.586-2.063,2.021-1.239c0.495,0.374,0.37,0.833,0.177,1.302C44.537,27.447,44.071,27.889,43.301,27.604z"/>
	<path style="fill-rule:evenodd;clip-rule:evenodd;" d="M4.187,33.224c0.542-0.677,1.325-0.539,2.047-0.608
		c0.293,0.234,0.585,0.467,0.878,0.701c0.539,1.038,0.793,1.977-0.794,2.271c-0.087-0.095-0.182-0.181-0.287-0.26
		C6.104,34.023,5.228,33.552,4.187,33.224z"/>
	<path style="fill-rule:evenodd;clip-rule:evenodd;" d="M38.396,37.607c-0.402-1.798,0.558-2.282,2.113-2.192l0.004,0.008
		c0.369,0.4,0.423,0.864,0.276,1.369c-0.311,0.642-0.825,1.018-1.515,1.17C38.931,37.972,38.638,37.853,38.396,37.607z"/>
	<path style="fill-rule:evenodd;clip-rule:evenodd;" d="M49.028,36.321c0.387,0.799-0.434,1.293-0.502,1.976
		c-0.008,0.464-0.016,0.931-0.023,1.396c-0.688,0.323-0.904-0.004-0.891-0.647c-0.043-1.165-0.086-2.332-0.131-3.498
		c0.34,0.009,0.682,0.016,1.025,0.024C48.68,35.82,48.854,36.07,49.028,36.321z"/>
	<path style="fill-rule:evenodd;clip-rule:evenodd;" d="M9.797,43.416c0.326-0.699,0.652-1.399,0.979-2.1
		c0.638,0.042,1.786-0.365,1.688,0.553C12.32,43.212,11.211,43.792,9.797,43.416z"/>
	<path style="fill-rule:evenodd;clip-rule:evenodd;" d="M40.491,65.326c0.538-0.081,1.077-0.163,1.615-0.244
		c0.071,0.521,0.144,1.045,0.221,1.554c-0.695,0.61-1.504,0.81-2.415,0.592C40.105,66.594,40.298,65.96,40.491,65.326z"/>
	<path style="fill-rule:evenodd;clip-rule:evenodd;" d="M23.856,88.183c1.104,0.467,0.651,1.418,0.692,2.217
		c-0.228,0.074-0.456,0.149-0.684,0.227c-0.512-0.262-1.023-0.521-1.535-0.781c-0.236-0.152-0.324-0.319-0.265-0.498
		c0.062-0.183,0.129-0.274,0.201-0.274c0.002-0.167,0.001-0.335-0.006-0.502C22.657,87.884,23.256,88.029,23.856,88.183z"/>
	<path style="fill-rule:evenodd;clip-rule:evenodd;" d="M80.262,42.696c0.219-0.449,0.436-0.897,0.652-1.344
		c0.857,0.141,1.154,0.913,1.645,1.469c0.018,0.181,0.059,0.357,0.125,0.529C81.229,45.54,81.03,43.06,80.262,42.696z"/>
	<path style="fill-rule:evenodd;clip-rule:evenodd;" d="M70.047,81.067c-0.195,0.444-0.389,0.887-0.58,1.329
		c-0.205,0.049-0.412,0.095-0.619,0.132c-1.205-0.374-1.52-1.061-0.746-2.13C68.752,80.621,69.399,80.845,70.047,81.067z"/>
	<path style="fill-rule:evenodd;clip-rule:evenodd;" d="M38.278,60.256c0.995-0.191,1.989-0.383,2.982-0.572
		c1.357-0.885,1.164,0.188,1.209,0.959c-0.348,0.123-0.696,0.244-1.042,0.367c-0.274,0.005-0.548,0.009-0.822,0.014
		C39.84,60.741,38.831,61.188,38.278,60.256z"/>
	<path style="fill-rule:evenodd;clip-rule:evenodd;" d="M39.17,2.727c-0.036,0.718-0.07,1.436-0.106,2.154
		c-0.144,0.26-0.364,0.351-0.65,0.294c-0.462-0.063-0.924-0.126-1.384-0.19C37.408,3.914,37.606,2.673,39.17,2.727z"/>
	<path style="fill-rule:evenodd;clip-rule:evenodd;" d="M38.396,37.607c0.242,0.027,0.484,0.055,0.728,0.083
		c0.556,0.576,0.588,1.291,0.543,2.029c-0.088,0.552-0.275,1.047-0.812,1.325C37.592,40.047,37.334,38.915,38.396,37.607z"/>
	<path style="fill-rule:evenodd;clip-rule:evenodd;" d="M88.321,38.386c-0.496-0.489-0.99-0.978-1.488-1.466
		c-0.152-0.277-0.191-0.565-0.1-0.872c0.395-0.505,0.824-0.918,1.539-0.602c0.354,0.565,0.906,0.647,1.504,0.622
		C89.424,36.925,88.178,37.22,88.321,38.386z"/>
	<path style="fill-rule:evenodd;clip-rule:evenodd;" d="M23.856,88.183c-0.531,0.128-1.063,0.258-1.595,0.386
		c-0.252-0.089-0.502-0.179-0.751-0.269c-0.536-0.711-0.466-1.409,0.05-2.094l0.149,0.089c0.687,0.411,1.373,0.822,2.059,1.234
		C23.798,87.747,23.828,87.963,23.856,88.183z"/>
	<path style="fill-rule:evenodd;clip-rule:evenodd;" d="M33.937,63.786c0.324-0.482,0.648-0.964,0.974-1.446
		c0.588,0.427,1.376,0.942,0.836,1.694C35.25,64.726,34.467,64.461,33.937,63.786z"/>
	<path style="fill-rule:evenodd;clip-rule:evenodd;" d="M11.048,90.556c-0.394-0.769-0.828-1.536-0.246-2.405
		c0.419,0.07,0.839,0.141,1.257,0.211c1.107,1.162-0.446,1.603-0.653,2.407C11.288,90.698,11.168,90.628,11.048,90.556z"/>
	<path style="fill-rule:evenodd;clip-rule:evenodd;" d="M38.854,41.044c0.047-0.324,0.096-0.65,0.143-0.976
		c0.219-0.581,0.672-0.68,1.217-0.59c0.317,0.149,0.542,0.387,0.679,0.71c0.144,0.699,0.145,1.355-0.544,1.803
		c-0.2,0.063-0.403,0.115-0.608,0.157C39.444,41.781,39.148,41.413,38.854,41.044z"/>
	<path style="fill-rule:evenodd;clip-rule:evenodd;" d="M61.532,75.486c0,0.199,0.02,0.397,0.055,0.594
		c-1.051,0.933-1.912,1.229-2.145-0.63c0.115-0.187,0.277-0.31,0.486-0.372C60.563,74.828,61.11,74.913,61.532,75.486z"/>
	<path style="fill-rule:evenodd;clip-rule:evenodd;" d="M42.064,32.451c-0.55,0.05-1.102,0.1-1.653,0.151
		c0.232-0.818-0.674-2.875,1.603-1.473C42.032,31.569,42.048,32.011,42.064,32.451z"/>
	<path style="fill-rule:evenodd;clip-rule:evenodd;" d="M35.003,59.05c0.054-0.359,0.107-0.718,0.161-1.077
		c0.99-0.662,1.582,0.022,2.19,0.649c0.174,0.498,0.347,0.997,0.522,1.497C36.919,59.765,35.96,59.406,35.003,59.05z"/>
	<path style="fill-rule:evenodd;clip-rule:evenodd;" d="M15.857,30.948c-0.463-0.915-1.394-0.398-2.064-0.673
		c1.154-0.838,2.207-1.302,2.608,0.69c-0.096,0.156-0.191,0.312-0.287,0.468C16.028,31.271,15.943,31.109,15.857,30.948z"/>
	<path style="fill-rule:evenodd;clip-rule:evenodd;" d="M81.627,90.6c-0.652-0.246-1.303-0.493-1.953-0.737
		c-0.17-0.147-0.238-0.302-0.201-0.467c0.035-0.17,0.078-0.255,0.127-0.255c0.209-0.228,0.418-0.456,0.625-0.685
		C80.711,89.158,82.073,89.288,81.627,90.6z"/>
	<path style="fill-rule:evenodd;clip-rule:evenodd;" d="M28.824,68.261c-0.294,0.116-0.588,0.23-0.883,0.343
		c-0.602-0.577-0.697-1.406,0.04-1.636C28.998,66.651,28.836,67.619,28.824,68.261z"/>
	<path style="fill-rule:evenodd;clip-rule:evenodd;" d="M44.824,26.337c-0.013-0.244-0.024-0.489-0.036-0.732
		c0.495-0.369,0.989-0.743,1.484-1.116c0.906,1.105-0.581,1.331-0.75,2.041C45.155,26.949,44.923,26.886,44.824,26.337z"/>
	<path style="fill-rule:evenodd;clip-rule:evenodd;" d="M31.05,67.82c0.4-0.357,0.8-0.716,1.2-1.072
		c0.097,0.583,0.195,1.16,0.294,1.739c-0.375,0.292-0.75,0.583-1.122,0.875C31.301,68.848,31.175,68.335,31.05,67.82z"/>
	<path style="fill-rule:evenodd;clip-rule:evenodd;" d="M15.857,30.948c0.181,0.044,0.363,0.049,0.545,0.018
		c0.782,1.444,0.687,2.443-1.271,2.495C15.374,32.624,15.615,31.786,15.857,30.948z"/>
	<path style="fill-rule:evenodd;clip-rule:evenodd;" d="M31.652,62.221c-0.422-0.211-0.843-0.42-1.265-0.629
		c-0.802-0.493-0.44-1.081,0.152-1.085C31.535,60.5,31.738,61.343,31.652,62.221z"/>
	<path style="fill-rule:evenodd;clip-rule:evenodd;" d="M61.532,75.486c-0.533-0.137-1.066-0.271-1.604-0.408
		c-0.162-1.309-0.324-2.616-0.486-3.92c0.172-0.094,0.355-0.12,0.549-0.072c0.752,0.942,1.502,1.884,2.254,2.824
		C62.008,74.436,61.768,74.962,61.532,75.486z"/>
	<path style="fill-rule:evenodd;clip-rule:evenodd;" d="M55.647,61.655c0.031-1.49,0.863-1.773,2.123-1.406
		c0.084,1.103,0.611,2.296-0.65,3.121c-0.551,0.198-1.059,0.104-1.529-0.228C55.292,62.635,55.256,62.137,55.647,61.655z"/>
	<path style="fill-rule:evenodd;clip-rule:evenodd;" d="M58.842,65.841c1.078-0.006,1.006,0.804,1.061,1.486
		c0.045,0.567,0.18,1.327-0.66,1.347c-0.887,0.021-1.074-0.79-1.201-1.483C57.922,66.543,58.184,66.048,58.842,65.841z"/>
	<path style="fill-rule:evenodd;clip-rule:evenodd;" d="M52.241,59.536c-0.035,0.4-0.07,0.803-0.104,1.206
		c0-0.001-0.234-0.024-0.234-0.024s-0.225,0.068-0.221,0.066c-0.82-0.175-1.604-0.672-2.492-0.296
		c-0.568-1.317,0.127-1.8,1.301-1.968C51.194,58.65,51.862,58.841,52.241,59.536z"/>
	<path style="fill-rule:evenodd;clip-rule:evenodd;" d="M53.577,68.79c-0.746-0.164-1.49-0.325-2.236-0.49
		c-0.291-0.539-0.58-1.076-0.869-1.611C52.196,66.367,52.901,67.552,53.577,68.79z"/>
	<path style="fill-rule:evenodd;clip-rule:evenodd;" d="M55.852,65.142c0.404-0.242,0.807-0.486,1.211-0.731
		c-0.014,0.876,0.529,2.255-0.371,2.48C55.477,67.192,56.077,65.791,55.852,65.142z"/>
	<path style="fill-rule:evenodd;clip-rule:evenodd;" d="M57.221,44.239c0.693-0.014,1.391-0.026,2.088-0.04
		c0.744,0.94,2.68-0.625,2.918,1.385l0.002-0.002c-1.297,0.055-2.609,0.002-3.885,0.191C56.813,46,57.274,44.977,57.221,44.239z"/>
	<path style="fill-rule:evenodd;clip-rule:evenodd;" d="M63.795,46.962c-1.584-0.002-3.168-0.004-4.754-0.004
		c0.936-0.76,2.092-0.579,3.17-0.737c0.537,0.107,1.074,0.213,1.613,0.32C63.766,46.678,63.756,46.818,63.795,46.962z"/>
	<path style="fill-rule:evenodd;clip-rule:evenodd;" d="M78.184,90.631c-2.002,3.188-5.281,1.602-7.994,2.144h0.01
		c-0.531-1.276-3.656,1.025-2.865-2.076c0.451-0.297,0.902-0.594,1.355-0.889c2.701,0.044,5.381,1.061,8.1,0.143
		c0.363,0.026,0.703,0.124,1.027,0.284C77.942,90.368,78.063,90.5,78.184,90.631z"/>
	<path style="fill-rule:evenodd;clip-rule:evenodd;" d="M77.612,90.406c-3.037,0.752-6.02,0.693-8.922-0.597
		c2.299-0.878,4.617-0.044,6.924-0.086C76.436,89.499,77.317,89.094,77.612,90.406z"/>
	<path style="fill-rule:evenodd;clip-rule:evenodd;" d="M67.334,90.698c0.018,1.983,2.328,0.806,2.865,2.076
		c-1.5-0.166-3.316,0.604-4.205-1.397c0.203-0.228,0.406-0.456,0.609-0.685C66.846,90.694,67.09,90.696,67.334,90.698z"/>
	<path style="fill-rule:evenodd;clip-rule:evenodd;" d="M79.6,89.141c0.025,0.239,0.049,0.479,0.072,0.722
		c-0.32,0.257-0.645,0.515-0.967,0.772c-0.002,0-0.26-0.051-0.26-0.051l-0.262,0.047l-0.025-0.311
		c-0.363-0.381-0.641-0.806-0.68-1.352c0.004-0.203,0.025-0.407,0.064-0.607C78.229,88.619,78.917,88.881,79.6,89.141z"/>
	<path style="fill-rule:evenodd;clip-rule:evenodd;" d="M77.479,88.969c0.459,0.334,0.828,0.715,0.68,1.352l-0.262,0.107
		l-0.285-0.02c-0.473-0.801-1.359-0.39-2-0.685C76.038,88.981,76.856,89.215,77.479,88.969z"/>
	<path style="fill-rule:evenodd;clip-rule:evenodd;" d="M36.619,50.648c0.547-1.404,1.851-2.842-0.184-4.129
		c0.798-0.055,1.592-0.108,2.383-0.161c-0.559,0.956-0.612,1.961-0.438,3.046c0.2,1.253-0.286,2.061-1.71,1.99
		C36.524,51.156,36.507,50.906,36.619,50.648z"/>
	<path style="fill-rule:evenodd;clip-rule:evenodd;" d="M33.933,46.314c-1.47,0.858-2.948,0.821-4.432,0.037
		C30.973,45.765,32.454,46.147,33.933,46.314z"/>
	<path style="fill-rule:evenodd;clip-rule:evenodd;" d="M13.517,34.637c-0.185,0.648-0.443,1.243-1.119,1.532
		c-0.854,0.555-1.809,0.258-2.72,0.316c-2.913-0.814-1.841-1.941-0.244-3.111C11.165,32.599,11.938,34.923,13.517,34.637z"/>
	<path style="fill-rule:evenodd;clip-rule:evenodd;" d="M9.435,33.374c-0.161,0.922-1.952,1.744-0.167,2.782
		c-0.479,0.412-0.977,0.383-1.486,0.062c-0.449-0.012-0.899-0.024-1.348-0.037c-0.114-0.184-0.151-0.381-0.114-0.593
		c0.798-0.57,0.735-1.442,0.793-2.271C7.876,33.74,8.655,33.564,9.435,33.374z"/>
	<path style="fill-rule:evenodd;clip-rule:evenodd;" d="M62.227,45.584c-0.611-1.226-2.262-0.257-2.918-1.385
		c1.039-0.006,2.078-0.025,3.115-0.013c0.496,0.005,1.006,0.248,0.869,0.753C63.215,45.229,62.598,45.373,62.227,45.584z"/>
	<path style="fill-rule:evenodd;clip-rule:evenodd;" d="M21.56,86.206c-0.016,0.698-0.031,1.397-0.049,2.096
		c-0.496-0.007-0.99-0.014-1.485-0.02c-0.757-0.907-1.436-0.614-2.085,0.137c-1.405-0.098-2.819,1.691-4.215-0.021
		c1.254-0.176,1.593-0.899,1.226-2.045C17.134,85.425,19.318,84.534,21.56,86.206z"/>
	<path style="fill-rule:evenodd;clip-rule:evenodd;" d="M19.505,82.432c-0.239,0.066-0.479,0.132-0.718,0.196
		c-1.151,0.595-2.444,0.143-3.629,0.491c-0.358-0.051-0.682-0.184-0.967-0.408c-0.433-2.755,2.392-0.996,3.068-2.214
		c0.128-0.7,0.623-1.023,1.25-1.213c0.315-0.035,0.61,0.027,0.886,0.186C21.87,80.365,20.734,81.397,19.505,82.432z"/>
	<path style="fill-rule:evenodd;clip-rule:evenodd;" d="M18.557,79.564c-0.432,0.313-0.865,0.623-1.298,0.933
		c-0.701-0.257-1.401-0.513-2.102-0.77c0.476-1.214,1.105-2.261,2.604-2.342C18.765,77.843,19.539,78.383,18.557,79.564z"/>
	<path style="fill-rule:evenodd;clip-rule:evenodd;" d="M15.784,84.012c-0.238,0.735-0.476,1.469-0.713,2.203
		c-0.869-1.023-3.397-1.63-0.879-3.503c-0.001-0.001,0.075,0.035,0.075,0.035C14.807,83.128,15.351,83.504,15.784,84.012z"/>
	<path style="fill-rule:evenodd;clip-rule:evenodd;" d="M41.886,4.14c0.275-0.742,1.014-0.589,1.562-0.808
		c1.6-0.031,3.107,0.217,4.304,1.408C47.936,4.916,48.018,5.107,48,5.315c-0.018,0.216-0.053,0.325-0.102,0.325
		c-2.078,1.667-4.506,0.284-6.72,0.772C40.665,5.422,41.411,4.822,41.886,4.14z"/>
	<path style="fill-rule:evenodd;clip-rule:evenodd;" d="M47.899,5.64c-0.049-0.299-0.098-0.599-0.145-0.899
		c0.877,0.145,1.754,0.29,2.631,0.437c0.129,0.399,0.26,0.796,0.389,1.193C49.815,6.127,48.858,5.883,47.899,5.64z"/>
	<path style="fill-rule:evenodd;clip-rule:evenodd;" d="M22.265,89.072c0.021,0.258,0.042,0.517,0.064,0.772
		c-1.925,0.473-3.831,1.151-6.315,0.383C18.202,89.015,20.303,89.348,22.265,89.072z"/>
	<path style="fill-rule:evenodd;clip-rule:evenodd;" d="M17.94,88.419c0.03-0.837,0.133-1.778,1.179-1.743
		c0.843,0.028,0.901,0.894,0.907,1.606C19.331,88.328,18.636,88.374,17.94,88.419z"/>
	<path style="fill-rule:evenodd;clip-rule:evenodd;" d="M38.605,10.669c-1.19-0.757-1.004-1.973-1.033-3.116
		c0.913,0.758,1.952,0.969,2.979,0.384c2.35-1.336,4.795-1.133,7.285-0.625c1.213,0.538,2.469,0.483,3.738,0.247
		c1.383,0.718,0.883,1.536,0.125,2.366c-0.195,0.072-0.381,0.16-0.561,0.265c-1.031,0.685-2.021,1.466-3.381,1.281
		c-1.789-0.49-3.583-0.347-5.377-0.01C41.084,11.39,39.824,11.125,38.605,10.669z"/>
	<path style="fill-rule:evenodd;clip-rule:evenodd;" d="M41.886,4.14c-0.236,0.757-0.471,1.514-0.708,2.272
		c-0.882-0.501-2.942,1.623-2.765-1.239c0.223-0.083,0.439-0.181,0.651-0.292C40.006,4.633,40.946,4.387,41.886,4.14z"/>
	<path style="fill-rule:evenodd;clip-rule:evenodd;" d="M51.233,7.679c-1.309,1.467-2.361,0.609-3.398-0.367
		c1.121-0.112,2.24-0.226,3.359-0.34c0-0.002,0.256,0.09,0.256,0.09C51.676,7.375,51.59,7.575,51.233,7.679z"/>
	<path style="fill-rule:evenodd;clip-rule:evenodd;" d="M47.256,60.2c1.324-2.139,3.25-3.497,5.584-4.329
		c0.525,2.047-1.734,1.62-2.35,2.649c-0.955,0.313-1.592,0.832-1.301,1.968c-0.238,0.203-0.477,0.405-0.715,0.607
		C48.391,60.359,47.684,60.471,47.256,60.2z"/>
	<path style="fill-rule:evenodd;clip-rule:evenodd;" d="M38.605,10.669c1.17-0.869,2.19-0.234,3.217,0.322
		c0.398,0.717,0.389,1.515,0.467,2.298c-0.018,0.33-0.155,0.603-0.393,0.828l-0.043,0.148c-0.989,0.489-1.604-0.451-2.419-0.631
		C39.157,12.646,38.882,11.658,38.605,10.669z"/>
	<path style="fill-rule:evenodd;clip-rule:evenodd;" d="M39.434,13.634c0.807,0.21,1.613,0.421,2.42,0.631
		c0.031,0.746,0.062,1.492,0.091,2.239C41.108,15.547,40.27,14.59,39.434,13.634z"/>
	<path style="fill-rule:evenodd;clip-rule:evenodd;" d="M55.79,54.106c0.211-0.21,0.42-0.421,0.629-0.634
		c0.867-1.095,1.729-2.199,3.387-1.467c-0.6,0.617-1.186,1.242-1.045,2.212c-0.502,0.27-1.006,0.54-1.51,0.809
		C56.764,54.722,56.278,54.414,55.79,54.106z"/>
	<path style="fill-rule:evenodd;clip-rule:evenodd;" d="M74.497,29.477c3.094,0.734,6.051-0.857,9.119-0.544
		c1.129,0.116,2.398-0.4,3.311,0.717c0.664,0.793,0.752,1.663,0.354,2.597c-0.201,0.309-0.482,0.489-0.854,0.521
		c-1.543-1.148-3.18-0.431-4.795-0.212c-0.893,0.067-1.783,0.053-2.668-0.099c-0.92-0.185-1.803-0.479-2.666-0.845
		c-1.029-0.291-2.578-0.116-1.814-2.016L74.497,29.477z"/>
	<path style="fill-rule:evenodd;clip-rule:evenodd;" d="M86.944,32.408c-0.008-0.92-0.012-1.84-0.018-2.758
		c0.957,0.004,1.914,0.01,2.871,0.015c-0.008,0.452-0.016,0.904-0.021,1.355c-0.666,0.298-1.188,0.738-1.428,1.453
		C87.856,32.938,87.387,32.97,86.944,32.408z"/>
	<path style="fill-rule:evenodd;clip-rule:evenodd;" d="M18.557,79.564c0.132-0.87-0.31-1.532-0.795-2.179
		c0.061-0.181,0.113-0.366,0.155-0.555c0.636-0.361,1.231-0.646,1.828,0.127c0.769,0.99,0.147,1.729-0.352,2.512
		C19.115,79.502,18.836,79.533,18.557,79.564z"/>
	<path style="fill-rule:evenodd;clip-rule:evenodd;" d="M77.012,31.196c0.639,0.258,1.277,0.516,1.916,0.774
		c0.295,0.708,0.197,1.487,0.418,2.209c0.061,0.473-0.004,0.911-0.361,1.264c-0.271,0.026-0.547,0.05-0.818,0.076
		c-0.477-0.332-0.955-0.664-1.432-0.996c-0.131-0.681,0.045-1.443-0.539-2c-0.023-0.218-0.033-0.436-0.033-0.655
		C76.165,31.289,76.627,31.294,77.012,31.196z"/>
	<path style="fill-rule:evenodd;clip-rule:evenodd;" d="M77.012,31.196c-0.285,0.224-0.568,0.449-0.85,0.673
		c-0.74,0.102-1.615,0.866-2.15-0.204c-0.355-0.71-0.564-1.586,0.473-2.071C74.665,31.173,75.917,31.059,77.012,31.196z"/>
	<path style="fill-rule:evenodd;clip-rule:evenodd;" d="M76.196,32.523c1.93,0.195,0.953,1.174,0.539,2
		c-0.24,0.055-0.48,0.111-0.721,0.166C76.075,33.967,76.135,33.245,76.196,32.523z"/>
	<path style="fill-rule:evenodd;clip-rule:evenodd;" d="M15.784,84.012c-0.992,0.161-1.597-0.143-1.518-1.265
		c1.507-0.038,3.014-0.08,4.521-0.119C18.221,84.03,16.317,82.533,15.784,84.012z"/>
	<path style="fill-rule:evenodd;clip-rule:evenodd;" d="M41.896,14.117c0.074-0.177,0.146-0.355,0.212-0.534
		c1.697-1.218,4.384-0.239,5.599-2.523c1.145-0.291,2.289-0.581,3.434-0.871c-0.137,0.744-0.273,1.487-0.408,2.229
		c0.072,1.225-0.943,1.492-1.725,1.966c-0.26-0.038-0.518-0.076-0.777-0.115C46.12,14.218,44.008,14.167,41.896,14.117z"/>
	<path style="fill-rule:evenodd;clip-rule:evenodd;" d="M44.824,26.337c0.232,0.064,0.465,0.129,0.698,0.193
		c0.334,0.949,0.667,1.899,1.001,2.849c-0.578,0.653-1.157,1.307-1.735,1.96c-1.611-0.802-1.925-2.121-1.487-3.738
		C43.809,27.182,44.315,26.759,44.824,26.337z"/>
	<path style="fill-rule:evenodd;clip-rule:evenodd;" d="M51.233,7.679c0.09-0.198,0.16-0.404,0.217-0.617
		c2.932-1.466,1.869,0.859,1.973,2.078c-0.568,0.281-0.895,1.089-1.727,0.786C51.612,9.163,52.28,8.242,51.233,7.679z"/>
	<path style="fill-rule:evenodd;clip-rule:evenodd;" d="M49.008,14.384c0.574-0.656,1.15-1.313,1.725-1.967
		c0.736,0.483,0.732,1.164,0.506,1.904C50.497,14.341,49.752,14.362,49.008,14.384z"/>
	<path style="fill-rule:evenodd;clip-rule:evenodd;" d="M30.15,70.492c0.582,0.396,1.165,0.787,1.746,1.182
		c0.042,2.635-0.989,3.367-3.287,1.849C29.07,72.485,27.773,70.554,30.15,70.492z"/>
	<path style="stroke:#D6D4D2;stroke-width:0;stroke-linecap:round;stroke-linejoin:round;" d="M56.418,53.475
		c1.234-0.249,1.953-1.686,3.387-1.469l0.061,0.08c0.654-0.356,1.475-0.537,1.57-1.484c0.018-0.195,0.043-0.389,0.074-0.581
		C59.721,51.035,57.053,50.758,56.418,53.475z"/>
	<path style="fill-rule:evenodd;clip-rule:evenodd;" d="M59.866,52.086c0.523-0.496,1.049-0.99,1.57-1.484
		c0.295,0.054,0.59,0.11,0.885,0.164C62.741,53.512,60.647,51.577,59.866,52.086z"/>
	<path style="fill-rule:evenodd;clip-rule:evenodd;" d="M30.526,52.53c0.982-0.572,2.196,0.783,3.108-0.374
		c0.68,0.083,0.739,0.59,0.769,1.12c-0.1,0.543-0.317,0.977-0.956,1.006c-1.076-0.128-2.254,0.444-3.216-0.467
		C30.329,53.389,30.428,52.959,30.526,52.53z"/>
	<path style="fill-rule:evenodd;clip-rule:evenodd;" d="M37.354,58.622c-0.729-0.218-1.458-0.432-2.189-0.648
		c-0.179-0.247-0.357-0.494-0.536-0.74c0.022-0.476,0.045-0.953,0.067-1.429c0.26-0.25,0.57-0.367,0.93-0.354
		c1.113,0.452,1.608,1.275,1.478,2.473C37.188,58.155,37.27,58.389,37.354,58.622z"/>
	<path style="fill-rule:evenodd;clip-rule:evenodd;" d="M35.371,55.693c-0.231,0.006-0.456,0.043-0.675,0.111
		c-0.417-0.508-0.833-1.015-1.25-1.522c0.146-0.307,0.293-0.614,0.439-0.922c0.518-0.298,1.052-0.346,1.605-0.104
		c0.26,0.351,0.521,0.7,0.781,1.049C36.478,55.097,35.946,55.409,35.371,55.693z"/>
	<path style="fill-rule:evenodd;clip-rule:evenodd;" d="M43.519,34.666c-0.502,1.95,1.663,5.497-2.976,4.969
		c0-0.002-0.159,0.017-0.159,0.017c-0.716-0.887-0.505-1.776,0-2.664c0.043-0.521,0.087-1.043,0.13-1.564
		c0.137-0.061,0.271-0.055,0.402,0.018c1.114,1.032,1.106-0.674,1.775-0.726c0,0,0.236-0.071,0.236-0.072
		C43.122,34.706,43.319,34.713,43.519,34.666z"/>
	<path style="fill-rule:evenodd;clip-rule:evenodd;" d="M7.781,36.217c0.495-0.021,0.991-0.042,1.486-0.062
		c1.043,0.004,2.087,0.009,3.131,0.013c-0.092,0.234-0.186,0.468-0.278,0.701C10.653,36.789,9.083,37.392,7.781,36.217z"/>
	<path style="fill-rule:evenodd;clip-rule:evenodd;" d="M82.559,42.821c-0.988,0-1.477-0.557-1.643-1.471
		c0.078-0.457,0.158-0.913,0.24-1.37c0.158-0.33,0.406-0.558,0.75-0.686c0.729-0.156,1.406-0.115,1.941,0.493
		c0.016,0.217,0.023,0.433,0.027,0.649c-0.316,0.653-0.963,1.071-1.24,1.751C82.639,42.401,82.614,42.613,82.559,42.821z"/>
	<path style="fill-rule:evenodd;clip-rule:evenodd;" d="M83.848,39.787c-0.637-0.054-1.273-0.108-1.91-0.162
		c-0.5-0.265-0.506-0.693-0.385-1.163c0.531-0.757,1.496-0.936,2.111-1.581c0.248-0.176,0.523-0.25,0.826-0.239
		c0.121,0.082,0.244,0.163,0.367,0.246C84.866,37.975,84.624,38.974,83.848,39.787z"/>
	<path style="fill-rule:evenodd;clip-rule:evenodd;" d="M86.663,36.319c0.031,0.209,0.088,0.408,0.172,0.602
		c-0.018,0.991,0.275,2.181-1.367,2.127c-0.072-0.757,0.082-1.579-0.611-2.16c0.002,0-0.164-0.025-0.164-0.025
		C84.995,35.39,85.743,35.548,86.663,36.319z"/>
	<path style="fill-rule:evenodd;clip-rule:evenodd;" d="M82.635,42.188c-0.17-0.999,0.098-1.686,1.242-1.75
		C85.045,42.144,83.428,41.873,82.635,42.188z"/>
	<path style="fill-rule:evenodd;clip-rule:evenodd;" d="M86.663,36.319c-0.729-0.076-1.576-0.586-1.971,0.543
		c-0.176,0.071-0.357,0.104-0.549,0.104c-1.516,0.955-2.695,0.295-3.785-0.793c-0.459-0.243-0.916-0.486-1.375-0.729
		c-0.025-0.487-0.051-0.974-0.078-1.462c0.064-2.278,1.789-1.684,3.105-1.798c1.393,0.018,2.822-0.786,4.17,0.195
		c0.254,0.011,0.508,0.02,0.764,0.031c0.467,0.021,0.936,0.043,1.404,0.065c-0.582,0.978-0.793,1.964-0.076,2.975
		C87.735,35.738,87.198,36.028,86.663,36.319z"/>
	<path style="fill-rule:evenodd;clip-rule:evenodd;" d="M35.371,55.693c0.299-0.463,0.6-0.927,0.901-1.389
		c0.93,1.144,1.859,2.288,2.788,3.431c-0.651,0.063-1.302,0.125-1.954,0.189C36.526,57.181,35.948,56.437,35.371,55.693z"/>
	<path style="fill-rule:evenodd;clip-rule:evenodd;" d="M81.874,38.428c0.021,0.399,0.043,0.8,0.064,1.199
		c-0.26,0.114-0.52,0.232-0.779,0.351c-0.725-0.092-1.447-0.184-2.168-0.277c-0.078-1.068,0.514-1.715,1.379-2.186
		C81.264,37.171,82.014,37.07,81.874,38.428z"/>
	<path style="fill-rule:evenodd;clip-rule:evenodd;" d="M81.874,38.428c-0.262-0.699-0.859-0.84-1.504-0.913
		c-0.004-0.448-0.008-0.895-0.012-1.344c1.26,0.265,2.521,0.529,3.785,0.793C83.93,38.294,82.838,38.26,81.874,38.428z"/>
	<path style="fill-rule:evenodd;clip-rule:evenodd;" d="M62.971,49.81c0.471-0.909,1.563-1.499,1.41-2.729
		c0.867,0.293,0.813,1,0.768,1.708C64.592,49.491,63.991,50.098,62.971,49.81z"/>
	<path style="fill-rule:evenodd;clip-rule:evenodd;" d="M42.69,34.714c0.231,1.239,0.061,2.395-0.415,3.605
		c-1.574-0.709-1.012-1.974-1.359-2.879C41.355,34.826,41.985,34.681,42.69,34.714z"/>
	<path style="fill-rule:evenodd;clip-rule:evenodd;" d="M40.383,36.987c0,0.888,0,1.777,0,2.666
		c-0.462,0.136-0.924,0.274-1.386,0.413c0.041-0.792,0.083-1.584,0.125-2.377C39.542,37.456,39.962,37.22,40.383,36.987z"/>
	<path style="fill-rule:evenodd;clip-rule:evenodd;" d="M35.491,53.256c-0.534,0.034-1.069,0.069-1.604,0.104
		c-0.083-0.401-0.166-0.802-0.251-1.204c0.957-0.574,0.338-4.279,2.984-1.506c0.017,0.247,0.034,0.497,0.049,0.744
		C36.532,52.178,35.322,52.279,35.491,53.256z"/>
	<path style="fill-rule:evenodd;clip-rule:evenodd;" d="M52.084,50.096c0.941,1.02,0.646,2.289,0.705,3.489
		C50.022,51.186,49.952,50.84,52.084,50.096z"/>
	<path style="fill-rule:evenodd;clip-rule:evenodd;" d="M47.708,11.059c0.52,1.777,0.057,2.854-1.997,2.755
		c-1.202-0.057-2.402-0.153-3.603-0.233c-0.703-0.796-0.743-1.666-0.286-2.591C43.794,10.248,45.761,9.821,47.708,11.059z"/>
	<path style="fill-rule:evenodd;clip-rule:evenodd;" d="M86.18,32.377c-1.391,0.024-2.781,0.046-4.17,0.069
		c-0.338-0.069-0.422-0.267-0.295-0.573C83.209,32.004,84.991,29.58,86.18,32.377z"/>
	<path style="fill-rule:evenodd;clip-rule:evenodd;" d="M81.715,31.873c0.121,0.178,0.221,0.371,0.295,0.573
		c-1.248,0.085-2.527,0.098-3.105,1.534c-1.143-0.683-0.232-1.344,0.023-2.011C79.86,31.938,80.788,31.905,81.715,31.873z"/>
</g>
</svg>
