<?xml version="1.0" encoding="iso-8859-1"?>
<!-- Generator: Adobe Illustrator 16.0.0, SVG Export Plug-In . SVG Version: 6.00 Build 0)  -->
<!DOCTYPE svg PUBLIC "-//W3C//DTD SVG 1.1//EN" "http://www.w3.org/Graphics/SVG/1.1/DTD/svg11.dtd">
<svg version="1.1" id="Layer_1" xmlns="http://www.w3.org/2000/svg" xmlns:xlink="http://www.w3.org/1999/xlink" x="0px" y="0px"
	 width="83.012px" height="69.195px" viewBox="0 0 83.012 69.195" style="enable-background:new 0 0 83.012 69.195;"
	 xml:space="preserve">
<g>
	<path style="fill-rule:evenodd;clip-rule:evenodd;" d="M31.823,53.548c3.629,0.998,3.102,4.721,4.647,7.084
		c0.302,0.469,0.19,0.801-0.333,0.994C34.7,58.933,33.262,56.239,31.823,53.548z"/>
	<path style="fill-rule:evenodd;clip-rule:evenodd;" d="M71.886,15.637c1.064-1.75,1.314-4.025,3.328-5.163
		C74.582,12.502,74.767,15.059,71.886,15.637z"/>
	<path style="fill-rule:evenodd;clip-rule:evenodd;" d="M30.014,47.554c0.593,1.795,3.278,3.041,1.428,5.475
		c-0.737-1.787-1.475-3.578-2.213-5.367C29.438,47.239,29.697,47.183,30.014,47.554z"/>
	<path style="fill-rule:evenodd;clip-rule:evenodd;" d="M13.291,18.283c1.905,1.329,2.654,3.272,2.911,5.479
		C14.302,22.43,13.619,20.45,13.291,18.283z"/>
	<path style="fill-rule:evenodd;clip-rule:evenodd;" d="M2.419,0.93c0.32,1.37,0.64,2.74,0.96,4.11
		C2.755,3.742-1.382,3.263,2.419,0.93z"/>
	<path style="fill-rule:evenodd;clip-rule:evenodd;" d="M30.014,47.554c-0.266,0.01-0.527,0.045-0.785,0.107
		c-0.797-1.363-1.593-2.725-2.39-4.088C29.419,43.688,29.195,46.036,30.014,47.554z"/>
	<path style="fill-rule:evenodd;clip-rule:evenodd;" d="M38.286,64.556c1.656,0.551,1.252,2.281,1.936,3.389
		C38.141,67.634,38.286,66.054,38.286,64.556z"/>
	<path style="fill-rule:evenodd;clip-rule:evenodd;" d="M36.138,61.626c0.11-0.332,0.221-0.664,0.332-0.996
		c0.939,1.172,1.732,2.41,1.846,3.965C36.626,64.312,36.385,62.966,36.138,61.626z"/>
	<path style="fill-rule:evenodd;clip-rule:evenodd;" d="M47.949,56.585c1.09-1.367,1.002-3.41,2.58-4.496
		C50.525,54.079,50.736,56.192,47.949,56.585z"/>
	<path style="fill-rule:evenodd;clip-rule:evenodd;" d="M82.091,1.574c-0.752-1.568-2.309-0.724-3.545-0.913
		c-5.445-0.833-10.121,2.672-15.35,2.708c-15.098,0.103-30.198,0.03-45.297,0.015c-1.324-0.001-3.229,0.46-3.876-0.226
		C10.596-0.472,6.388,1.045,2.419,0.93c-1.32,1.753,0.862,2.689,0.96,4.111c4.177,3.76,5.979,9.298,9.912,13.242
		c1.081,1.767,2.114,3.56,2.911,5.479c3.546,6.604,7.092,13.208,10.637,19.812c1.704,0.857,2.004,2.736,2.999,4.109
		c0.343,1.842,2.316,3.191,1.604,5.348c0.054,0.229,0.181,0.4,0.382,0.518c2.371,1.703,2.892,4.527,4.168,6.893
		c1.036,1.238,1.357,2.877,2.324,4.154l-0.029-0.039c0.864,1.004,0.734,2.574,1.935,3.387c2.746,1.17,2.828-1.574,3.541-2.748
		c1.646-2.719,2.822-5.723,4.188-8.609c1.682-1.027,1.582-3.078,2.58-4.496c7.076-12.176,13.502-24.732,21.357-36.452
		c1.691-1.345,2.154-3.482,3.328-5.162c1.645-2.007,3.346-3.97,4.906-6.04C80.82,3.509,82.992,3.453,82.091,1.574z M58.107,30.424
		c-2.945,4.834-5.891,9.667-8.836,14.501c-0.773,1.188-1.082,2.609-1.904,3.773c-1.328,1.754-2.861,3.395-3.928,5.297
		c-1.018,1.818-2.256,2.357-4.142,1.836c-1.039-1.797-1.539-3.932-3.301-5.277c-1.882-3.256-3.764-6.512-5.645-9.768
		c-0.972-1.451-1.439-3.123-2.054-4.73c-1.254-3.023-6.127-5.204-4.493-8.293c1.483-2.804,6.01-0.668,9.157-0.772
		c8.266-0.274,16.545-0.106,24.821-0.115C59.019,27.955,59.32,29.12,58.107,30.424z M67.351,13.049
		c-0.354,0.357-0.709,0.714-1.063,1.071c-1.4,2.548-1.352,5.961-4.461,7.493c-2.307,1.542-4.859,0.609-7.283,0.635
		c-9.957,0.104-19.917,0.079-29.875,0.066c-3.711-0.005-11.655-9.008-10.938-12.448c0.382-1.835,2.021-2.082,3.532-2.023
		c16.744,0.644,33.489,0.356,50.235,0.137c0.463-0.006,0.93,0.33,1.395,0.507C71.126,10.935,67.732,11.483,67.351,13.049z"/>
	<path style="fill-rule:evenodd;clip-rule:evenodd;" d="M61.828,21.612c2.117-2.12,2.137-5.491,4.461-7.491
		C66.013,17.338,65.669,20.516,61.828,21.612z"/>
	<path style="fill-rule:evenodd;clip-rule:evenodd;" d="M35.996,50.554c2.659,0.783,2.967,3.037,3.301,5.275
		C37.598,54.446,36.835,52.476,35.996,50.554z"/>
	<path style="fill-rule:evenodd;clip-rule:evenodd;" d="M67.351,13.049c-0.176-1.754,2.836-2.431,1.541-4.563
		C71.052,10.456,70.851,11.049,67.351,13.049z"/>
	<path style="fill-rule:evenodd;clip-rule:evenodd;" d="M28.298,36.056c1.159,1.371,2.131,2.822,2.054,4.73
		C28.668,39.642,28.146,37.997,28.298,36.056z"/>
	<path style="fill-rule:evenodd;clip-rule:evenodd;" d="M58.107,30.424c0.527-1.242,0.387-2.423-0.326-3.549
		C60.564,27.813,60.556,29.006,58.107,30.424z"/>
	<path style="fill-rule:evenodd;clip-rule:evenodd;" d="M47.367,48.698c-0.303-1.732,0.621-2.844,1.904-3.773
		C49.5,46.618,48.812,47.849,47.367,48.698z"/>
</g>
</svg>
