<?xml version="1.0" encoding="iso-8859-1"?>
<!-- Generator: Adobe Illustrator 16.0.0, SVG Export Plug-In . SVG Version: 6.00 Build 0)  -->
<!DOCTYPE svg PUBLIC "-//W3C//DTD SVG 1.1//EN" "http://www.w3.org/Graphics/SVG/1.1/DTD/svg11.dtd">
<svg version="1.1" id="Layer_1" xmlns="http://www.w3.org/2000/svg" xmlns:xlink="http://www.w3.org/1999/xlink" x="0px" y="0px"
	 width="83.125px" height="72.707px" viewBox="0 0 83.125 72.707" style="enable-background:new 0 0 83.125 72.707;"
	 xml:space="preserve">
<g>
	<path style="fill-rule:evenodd;clip-rule:evenodd;" d="M3.677,64.788c-0.371,1.612-1.434,3.157-0.491,4.901
		C0.094,68.09,0.154,67.5,3.677,64.788z"/>
	<path style="fill-rule:evenodd;clip-rule:evenodd;" d="M23.199,32.614c0.053,2.491-0.922,4.428-3.094,5.718
		C20.407,36.032,21.892,34.371,23.199,32.614z"/>
	<path style="fill-rule:evenodd;clip-rule:evenodd;" d="M40.462,0.848c-1.291,1.457-0.154,4.251-2.748,4.991
		C38.799,4.268,37.097,1.163,40.462,0.848z"/>
	<path style="fill-rule:evenodd;clip-rule:evenodd;" d="M8.191,58.347c0.432,2.408-1.381,3.414-2.883,4.614
		C5.232,60.775,6.974,59.725,8.191,58.347z"/>
	<path style="fill-rule:evenodd;clip-rule:evenodd;" d="M80.748,68.669c-6.473-8.73-12.08-18.089-17.055-27.642
		C57.802,29.72,51.025,18.878,45.744,7.23c-1.039-2.294-1.824-5.697-5.281-6.382c-2.197,0.958-0.809,3.891-2.748,4.991
		c-4.466,9.127-9.002,18.216-14.516,26.774c-0.311,2.296-2.102,3.791-3.094,5.718c-3.971,6.673-7.942,13.345-11.914,20.016
		c-0.363,1.912-2.143,2.938-2.883,4.614c-0.543,0.608-1.088,1.217-1.631,1.826c-1.227,1.527-2.721,3.027-0.492,4.901
		c21.592-0.123,43.184-0.295,64.773-0.321c3.668-0.004,7.66-1.249,10.793,2.166c0.744,0.812,2.172,0.563,3.01-0.611
		C82.716,69.583,81.214,69.297,80.748,68.669z M59.714,62.292c-14.246,0.067-28.493,0.109-42.736,0.33
		c-3.145,0.049-4.001-1.075-2.832-3.776c0.828-1.914,2.002-3.68,3.021-5.512c1.029-1.393,1.191-3.261,2.48-4.51
		c3.174-8.402,8.396-15.7,12.803-23.427c1.992-3.491,4.037-7.002,6.215-10.411c2.035-3.185,3.404-2.092,4.768-0.307
		c2.154,2.824,3.875,5.98,5.779,8.996c1.393,1.268,2.229,2.888,2.922,4.599c3.68,6.368,7.359,12.736,11.037,19.104
		c0.773,1.936,2.016,3.634,2.797,5.565C70.011,62.272,70.011,62.244,59.714,62.292z"/>
	<path style="fill-rule:evenodd;clip-rule:evenodd;" d="M65.968,52.945c-1.629-1.505-2.557-3.362-2.797-5.565
		C64.906,48.832,65.867,50.672,65.968,52.945z"/>
	<path style="fill-rule:evenodd;clip-rule:evenodd;" d="M52.134,28.275c-1.342-1.298-2.502-2.712-2.922-4.598
		C51.367,24.458,52.218,26.07,52.134,28.275z"/>
	<path style="fill-rule:evenodd;clip-rule:evenodd;" d="M19.648,48.825c-0.178,1.859-0.822,3.463-2.48,4.51
		C17.24,51.416,18.054,49.906,19.648,48.825z"/>
</g>
</svg>
