<?xml version="1.0" encoding="iso-8859-1"?>
<!-- Generator: Adobe Illustrator 16.0.0, SVG Export Plug-In . SVG Version: 6.00 Build 0)  -->
<!DOCTYPE svg PUBLIC "-//W3C//DTD SVG 1.1//EN" "http://www.w3.org/Graphics/SVG/1.1/DTD/svg11.dtd">
<svg version="1.1" id="Layer_1" xmlns="http://www.w3.org/2000/svg" xmlns:xlink="http://www.w3.org/1999/xlink" x="0px" y="0px"
	 width="83.466px" height="83.918px" viewBox="0 0 83.466 83.918" style="enable-background:new 0 0 83.466 83.918;"
	 xml:space="preserve">
<g>
	<path style="fill-rule:evenodd;clip-rule:evenodd;" d="M50.704,80.693c-4.762,3.624-10.473,2.313-15.206,1.329
		c-9.896-2.057-19.069-6.316-24.788-15.537c0.232-0.663,0.504-1.294,1.257-1.531c3.596,0.475,4.383,4.372,7.153,5.854
		c1.665,1.244,3.396,2.358,5.44,2.893c6.249,1.575,12.177,4.703,18.955,3.644c1.448-0.227,2.904,0.34,4.204,1.108
		C48.771,79.123,50.104,79.422,50.704,80.693z"/>
	<path style="fill-rule:evenodd;clip-rule:evenodd;" d="M26.425,5.026c7.822-3.904,15.773-6.223,24.363-2.301
		c2.369,1.082,5.701,0.228,6.947,3.527c0.279,0.591,0.148,1.07-0.391,1.439c-1.973,0.42-4.045,0.335-5.854-0.25
		C44.704,5.25,38.007,4.937,31.225,7.355c-1.073,0.382-2.282,0.134-3.382-0.313C27.019,6.617,26.517,5.965,26.425,5.026z"/>
	<path style="fill-rule:evenodd;clip-rule:evenodd;" d="M50.704,80.693c-1.092-0.402-2.525-0.05-3.171-1.438
		c0.153-2.093,1.935-2.773,3.393-3.067c6.014-1.21,10.796-4.652,15.631-8.066c0.938-0.663,1.927-1.271,3.112-1.426
		c0.807-0.031,1.528,0.159,2.07,0.806C66.144,74.156,59.464,79.082,50.704,80.693z"/>
	<path style="fill-rule:evenodd;clip-rule:evenodd;" d="M26.425,5.026c0.371,0.438,0.741,0.878,1.111,1.316
		c-0.133,1.272-0.902,2.273-1.914,2.77c-5.771,2.83-10.029,7.514-14.666,11.741c-1.096,0.108-1.871-0.319-2.275-1.363
		C13.253,13.021,18.33,7.174,26.425,5.026z"/>
	<path style="fill-rule:evenodd;clip-rule:evenodd;" d="M57.368,7.667c0.121-0.472,0.244-0.943,0.366-1.414
		c6.772,0.252,10.147,5.646,14.134,9.804c1.447,1.509,2.99,3.339,4.025,5.352c-0.346,0.37-0.761,0.627-1.252,0.758
		c-0.748,0.118-1.47,0.025-2.165-0.269C68.229,16.32,62.09,12.746,57.368,7.667z"/>
	<path style="fill-rule:evenodd;clip-rule:evenodd;" d="M3.457,54.639C-0.039,45.844,0.3,37.055,3.499,28.271
		c0.679,0.522,0.951,1.257,1.092,2.063c0.152,1.061,0.144,2.126,0.072,3.193c-0.051,0.799-0.191,1.584-0.381,2.36
		c-0.765,4.989-0.688,9.98-0.041,14.975c0.137,0.531,0.199,1.069,0.206,1.616C4.402,53.33,4.165,54.094,3.457,54.639z"/>
	<path style="fill-rule:evenodd;clip-rule:evenodd;" d="M77.813,59.93c-1.711,2.229-3.422,4.457-5.133,6.686
		c-0.914-0.688-1.021-1.67-0.993-2.703c0.706-3.332,2.958-5.977,4.075-9.132c0.357-0.62,0.836-1.126,1.451-1.498
		c1.08-0.447,1.73,0.167,2.313,0.945l0.281,0.133C80.022,56.531,78.909,58.228,77.813,59.93z"/>
	<path style="fill-rule:evenodd;clip-rule:evenodd;" d="M72.073,20.558c0.827,0.302,1.655,0.603,2.482,0.904
		c1.389,1.629,2.076,3.639,3,5.521c0.323,0.32,0.646,0.641,0.969,0.961c-0.111,3.024,2.016,5.895,0.615,9.01
		c-0.283,0.528-0.719,0.727-1.303,0.598C75.667,31.971,73.317,26.452,72.073,20.558z"/>
	<path style="fill-rule:evenodd;clip-rule:evenodd;" d="M82.543,43.364c-0.597,3.482,0.765,7.458-2.583,10.247
		c-0.888-2.373-0.66-4.793-0.309-7.22c0.255-1.062,0.716-2.021,1.452-2.837C81.536,43.146,82.017,43.083,82.543,43.364z"/>
	<path style="fill-rule:evenodd;clip-rule:evenodd;" d="M5.486,25.236c-0.249-1.15,0.494-1.81,1.225-2.476
		c1.251-0.726,2.483-1.315,3.404,0.459c-0.185,2.266-0.944,3.969-3.663,3.768C5.691,26.646,5.112,26.203,5.486,25.236z"/>
	<path style="fill-rule:evenodd;clip-rule:evenodd;" d="M82.543,43.364c-0.245,0.026-0.485,0.074-0.722,0.142
		c-2.075-1.715-1.271-4.363-2.107-6.482c0-1.75-0.547-3.597,0.894-5.092C82.608,35.513,82.974,39.371,82.543,43.364z"/>
	<path style="fill-rule:evenodd;clip-rule:evenodd;" d="M8.069,62.386c-0.319,0-0.457-0.156-0.414-0.469
		c-0.573-1.48-1.059-2.973-0.674-4.592c2.553-1.086,2.719-0.96,3.986,3.016c0.021,0.487-0.109,0.938-0.379,1.345
		c-0.351,0.308-0.75,0.55-1.178,0.74C8.964,62.556,8.515,62.549,8.069,62.386z"/>
	<path style="fill-rule:evenodd;clip-rule:evenodd;" d="M78.822,37.471c0.372-3.19-1.716-6.304-0.298-9.526
		c1.424,0.683,1.301,1.88,1.039,3.124C79.882,33.268,81.163,35.579,78.822,37.471z"/>
	<path style="fill-rule:evenodd;clip-rule:evenodd;" d="M5.486,25.236c0.37,0.522,0.741,1.046,1.112,1.568
		c0.316,0.33,0.473,0.724,0.473,1.182c-0.091,0.442-0.275,0.84-0.547,1.199c-0.807,0.718-1.49,1.754-2.832,1.139
		c-0.064-0.684-0.129-1.368-0.193-2.053C3.624,26.907,4.08,25.761,5.486,25.236z"/>
	<path style="fill-rule:evenodd;clip-rule:evenodd;" d="M78.822,37.471c1.439-1.995,0.37-4.281,0.742-6.401
		c0.348,0.288,0.696,0.578,1.044,0.864c0.08,1.844,0.162,3.688,0.243,5.534c0.19,1.093,0.569,2.214-0.47,3.122
		c-1.189,0.213-1.475-0.729-1.906-1.487c-0.162-0.426-0.172-0.856-0.014-1.289C78.647,37.768,78.767,37.653,78.822,37.471z"/>
	<path style="fill-rule:evenodd;clip-rule:evenodd;" d="M72.545,63.176c0.045,1.146,0.09,2.294,0.135,3.44
		c-0.313,0.295-0.627,0.59-0.94,0.886c-0.872-0.086-1.744-0.173-2.617-0.259C68.882,64.725,70.056,63.397,72.545,63.176z"/>
	<path style="fill-rule:evenodd;clip-rule:evenodd;" d="M7.649,56.41c0.002,1.835,0.004,3.67,0.006,5.506
		c-0.724-1.051-1.447-2.103-2.17-3.154c-0.289-0.912-0.768-1.793-0.463-2.805c0.215-0.465,0.572-0.758,1.07-0.881
		c0.5,0.067,0.92,0.288,1.262,0.659C7.454,55.96,7.552,56.185,7.649,56.41z"/>
	<path style="fill-rule:evenodd;clip-rule:evenodd;" d="M80.608,45.419c-0.292,2.723,0.534,5.532-0.645,8.189
		c-0.004,0.003-0.215-0.039-0.215-0.039c-1.579-1.192-1.17-3.062-1.592-4.65c-0.147-1.281,0.241-2.384,1.12-3.319
		C79.688,45.299,80.134,45.25,80.608,45.419z"/>
	<path style="fill-rule:evenodd;clip-rule:evenodd;" d="M77.813,59.93c0.664-1.856,1.33-3.713,1.994-5.569
		C81.498,57.061,80.401,58.762,77.813,59.93z"/>
	<path style="fill-rule:evenodd;clip-rule:evenodd;" d="M9.605,22.116c-0.878,0.604-1.754,1.223-2.895,0.641
		c-0.3-1.662,1.55-2.035,1.97-3.268c0.66,0.395,1.318,0.789,1.978,1.183C10.718,21.452,10.338,21.913,9.605,22.116z"/>
	<path style="fill-rule:evenodd;clip-rule:evenodd;" d="M77.556,26.982c-1.78-1.416-2.555-3.379-3-5.521
		c0.445-0.019,0.891-0.037,1.336-0.055C76.741,23.179,78.115,24.792,77.556,26.982z"/>
	<path style="fill-rule:evenodd;clip-rule:evenodd;" d="M5.147,55.055c0.57,1.193,0.707,2.426,0.338,3.705
		c-1.385-1.024-2.128-2.366-2.028-4.122c0.071-0.735,0.142-1.472,0.213-2.208c0.292-0.33,0.633-0.393,1.023-0.19
		C5.383,53.09,5.347,54.06,5.147,55.055z"/>
	<path style="fill-rule:evenodd;clip-rule:evenodd;" d="M78.817,48.491c1.433,1.487,0.404,3.426,0.932,5.079
		c0.008,0.247-0.065,0.468-0.222,0.659c-0.598-0.274-1.194-0.547-1.792-0.819C76.395,51.396,77.264,49.868,78.817,48.491z"/>
	<path style="fill-rule:evenodd;clip-rule:evenodd;" d="M8.558,62.949c-0.223-0.136-0.385-0.324-0.488-0.563
		c0.146-0.115,0.313-0.167,0.498-0.154c0.438-0.175,0.892-0.262,1.365-0.247c0.482,0.089,0.85,0.339,1.084,0.776
		c0.187,0.737,0.082,1.395-0.525,1.914C9.261,64.758,8.961,63.796,8.558,62.949z"/>
	<path style="fill-rule:evenodd;clip-rule:evenodd;" d="M8.558,62.949c0.653,0.704,1.306,1.409,1.959,2.113
		c0,0,0.287,0.103,0.289,0.103c0.002-0.001-0.264,0.158-0.264,0.158C8.53,65.662,8.231,64.566,8.558,62.949z"/>
	<path style="fill-rule:evenodd;clip-rule:evenodd;" d="M11.448,65.485c-0.246,0.333-0.492,0.666-0.738,1
		c-0.055-0.387-0.111-0.773-0.167-1.161c-0.001-0.001,0.001,0.076,0.001,0.076C10.882,65.049,11.183,65.077,11.448,65.485z"/>
	<path style="fill-rule:evenodd;clip-rule:evenodd;" d="M18.335,71.349c2.818-0.663,3.933,1.813,5.699,3.091
		C21.638,74.326,20.177,72.489,18.335,71.349z"/>
	<path style="fill-rule:evenodd;clip-rule:evenodd;" d="M6.754,26.907c1.831,4.42-0.364,8.505-1.057,12.716
		c-0.714-0.343-0.991-1.06-1.422-1.646c-0.344-0.44-0.685-0.884-0.925-1.393c-0.166-0.371-0.113-0.715,0.125-1.035
		c0.092-0.682,0.182-1.363,0.273-2.046c1.119-1.607,1.832-3.437,2.795-5.131C6.614,27.884,6.685,27.396,6.754,26.907z"/>
	<path style="fill-rule:evenodd;clip-rule:evenodd;" d="M3.476,35.549c0.156,0.354,0.313,0.708,0.471,1.063
		c1.08,3.177,0.321,6.514,0.856,9.739c0.021,1.819,0.222,3.685-1.271,5.127C1.887,46.174,1.966,40.864,3.476,35.549z"/>
	<path style="fill-rule:evenodd;clip-rule:evenodd;" d="M6.544,28.372c-0.352,2.027,0.102,4.49-2.795,5.131
		c-0.02-1.059-0.039-2.118-0.058-3.178C4.643,29.674,5.593,29.023,6.544,28.372z"/>
	<path style="fill-rule:evenodd;clip-rule:evenodd;" d="M3.532,51.478c0.09-1.691,0.179-3.383,0.269-5.074
		c0.285-0.032,0.57-0.064,0.856-0.097c0.176,0.228,0.351,0.455,0.528,0.682c0.35,1.956,1.034,3.965-0.848,5.583
		c-0.224-0.044-0.446-0.092-0.668-0.143C3.647,52.109,3.601,51.792,3.532,51.478z"/>
	<path style="fill-rule:evenodd;clip-rule:evenodd;" d="M76.564,54.639c0.217-3.242,0.675-6.431,2.087-9.408
		c0.18-0.062,0.359-0.122,0.538-0.185c0.147,0.12,0.294,0.239,0.44,0.358c-0.271,1.028-0.541,2.057-0.813,3.086
		c-0.36,1.641-0.721,3.28-1.082,4.92C77.345,53.82,76.954,54.229,76.564,54.639z"/>
	<path style="fill-rule:evenodd;clip-rule:evenodd;" d="M80.608,45.419L80.12,45.39l-0.49,0.015l-0.24-0.048
		c-0.234-1.734-0.888-3.502,0.423-5.107c1.504-0.496,0.703-1.851,1.038-2.781c1.56,1.814,0.291,4.082,0.969,6.038
		C81.658,44.297,81.493,45.086,80.608,45.419z"/>
	<path style="fill-rule:evenodd;clip-rule:evenodd;" d="M10.377,61.509c0.056,0.351,0.112,0.7,0.169,1.05
		c-0.283-0.056-0.566-0.12-0.846-0.191c-0.268-0.153-0.372-0.327-0.316-0.523c0.059-0.207,0.127-0.311,0.205-0.311
		C9.853,61.549,10.115,61.541,10.377,61.509z"/>
	<path style="fill-rule:evenodd;clip-rule:evenodd;" d="M9.589,61.533c-0.002,0.283,0.035,0.562,0.111,0.834
		c-0.377-0.044-0.754-0.089-1.132-0.134C8.614,61.568,8.926,61.294,9.589,61.533z"/>
	<path style="fill-rule:evenodd;clip-rule:evenodd;" d="M79.813,40.249c-0.141,1.703-0.282,3.405-0.423,5.107
		c-0.246-0.036-0.49-0.076-0.736-0.123c-0.014-2.313-0.025-4.623-0.037-6.934C79.612,38.583,79.663,39.446,79.813,40.249z"/>
	<path style="fill-rule:evenodd;clip-rule:evenodd;" d="M4.725,37.48c0.323,0.713,0.647,1.427,0.972,2.142
		C5.485,45.3,7.48,50.714,7.687,56.341c-0.644,0.055-0.906-0.321-0.998-0.888c-2.446-2.655-0.96-6.149-1.945-9.116l-0.146,0.084
		C3.903,43.43,3.706,40.446,4.725,37.48z"/>
	<path style="fill-rule:evenodd;clip-rule:evenodd;" d="M4.743,46.337c0.648,3.038,1.297,6.076,1.945,9.115
		c-0.512-0.13-1.023-0.261-1.537-0.395c-0.273-0.83-0.543-1.658-0.813-2.486C4.474,50.493,4.608,48.415,4.743,46.337z"/>
	<path style="fill-rule:evenodd;clip-rule:evenodd;" d="M37.065,35.363c4.711-2.242,8.392-1.516,11.221,2.167
		c2.729,3.554,1.355,6.872-0.984,9.703c-3.1,3.75-6.737,4.515-10.379,0.452C32.54,42.831,32.558,41.282,37.065,35.363z"/>
	<path style="fill-rule:evenodd;clip-rule:evenodd;" d="M37.065,35.363c-3.064,4.071-3.375,8.176-0.144,12.321
		C31.3,44.223,31.36,38.911,37.065,35.363z"/>
	<path style="fill-rule:evenodd;clip-rule:evenodd;" d="M4.725,37.48c-0.042,2.979-0.085,5.96-0.127,8.94
		C4.331,46.42,4.065,46.413,3.8,46.403c-0.219-3.269-0.426-6.537,0.146-9.793C4.206,36.9,4.465,37.19,4.725,37.48z"/>
</g>
</svg>
