<?xml version="1.0" encoding="iso-8859-1"?>
<!-- Generator: Adobe Illustrator 16.0.0, SVG Export Plug-In . SVG Version: 6.00 Build 0)  -->
<!DOCTYPE svg PUBLIC "-//W3C//DTD SVG 1.1//EN" "http://www.w3.org/Graphics/SVG/1.1/DTD/svg11.dtd">
<svg version="1.1" id="Layer_1" xmlns="http://www.w3.org/2000/svg" xmlns:xlink="http://www.w3.org/1999/xlink" x="0px" y="0px"
	 width="95.244px" height="67.837px" viewBox="0 0 95.244 67.837" style="enable-background:new 0 0 95.244 67.837;"
	 xml:space="preserve">
<g>
	<path style="fill-rule:evenodd;clip-rule:evenodd;" d="M70.302,31.824c1.023-3.293,0.369-6.882,1.773-10.109
		c2.084-2.203,0.9-5.125,1.678-7.616c0.213-1.618,1.262-2.961,1.072-4.78c-0.447-4.295,3.15-6.364,5.994-7.61
		c2.572-1.127,6.322-1.718,8.977,1.005c1.289,1.321,3.918,1.489,3.697,4.152c0.313,0.848,0.277,1.705,0.07,2.568
		c-1.295,0.92-1.945-0.312-2.805-0.838c-1.301-2.153-3.215-3.625-5.652-2.634c-2.949,1.2-4.094,4.044-4.701,7.039
		c-1.51,2.71-1.256,5.786-1.813,8.694c0.029,0.204,0.006,0.402-0.074,0.591c-0.641,1.437-0.68,3.065-1.428,4.468
		c-0.168,1.355,0.383,2.789-0.453,4.067l0.029-0.055c-1.201,1.854,0.102,4.088-0.908,5.971c-1.313,1.307-0.93,2.658-0.107,4.021
		c-1.053,1.438-1.299,3.162-1.727,4.824l-0.037,0.012c-0.881,2.205-1.301,4.529-1.791,6.834c-2.5,4.781-7.18,7.674-10.424,11.865
		c-1.311,1.693-5.061,2.027-7.387,2.291c-7.833,0.889-16.691,1.625-22.276-4.816c-3.722-4.293-8.997-8.91-8.12-16.008
		c-1.049-2.842,0.51-6.023-1.149-8.783c-0.71-2.027-1.029-4.148-1.454-6.244c-0.595-2.713-0.602-5.578-2.07-8.067
		c-0.608-1.996-0.818-4.109-1.767-6.006c-0.55-1.481-0.805-3.18-1.703-4.407c-4.556-6.216-6.296-6.122-10.714,0.317
		c-0.777,1.134-1.056,3.455-3.097,2.056c-1.809-1.239,0.139-2.504,0.65-3.705c1.467-3.438,4.24-5.617,7.509-7.022
		c4.081-1.753,6.931,0.591,9.331,3.544c2.3,2.828,3.024,6.427,4.474,9.671c1.279,1.621-0.246,3.756,0.987,5.385
		c0.343,0.492,0.687,0.984,1.03,1.476c0.432,3.076,1.065,6.113,1.751,9.14l-0.024,0.003c1.091,1.917-0.216,4.204,0.946,6.108
		c1.159,2.959,1.868,5.926,1.881,9.199c0.017,4.455,3.19,6.391,7.393,7.514c5.127,1.371,10.049,2.961,15.474,2.559
		c5.391-0.398,10.533-3.994,12.193-9.053c0.768-1.6,1.318-3.275,1.734-4.998c1.332-2.182,0.936-4.66,1.203-7.023
		C70.171,35.914,69.814,33.73,70.302,31.824z"/>
	<path style="fill-rule:evenodd;clip-rule:evenodd;" d="M78.593,21.695c-0.303-3.086-0.547-6.159,1.813-8.691
		C80.375,16.019,80.076,18.98,78.593,21.695z"/>
	<path style="fill-rule:evenodd;clip-rule:evenodd;" d="M22.961,36.164c1.575,3.078,1.117,6.35,0.929,9.598
		c-1.629-3.021-0.531-6.541-1.749-9.637C22.427,35.887,22.7,35.9,22.961,36.164z"/>
	<path style="fill-rule:evenodd;clip-rule:evenodd;" d="M27.667,33.116c-1.64-2.844-2.081-5.917-1.75-9.139
		C27.581,26.815,27.934,29.906,27.667,33.116z"/>
	<path style="fill-rule:evenodd;clip-rule:evenodd;" d="M73.753,14.1c-0.082,2.644,1.111,5.568-1.678,7.616
		C72.562,19.161,72.521,16.49,73.753,14.1z"/>
	<path style="fill-rule:evenodd;clip-rule:evenodd;" d="M17.45,16.662c2.309,1.496,1.461,3.92,1.767,6.005
		C17.501,20.997,17.328,18.873,17.45,16.662z"/>
	<path style="fill-rule:evenodd;clip-rule:evenodd;" d="M72.097,52.43c-0.412-2.541,0.105-4.84,1.791-6.832
		C73.939,48.045,73.687,50.412,72.097,52.43z"/>
	<path style="fill-rule:evenodd;clip-rule:evenodd;" d="M70.302,31.824c0.26,2.15,0.871,4.416-1.834,5.6
		C69.158,35.584,68.962,33.451,70.302,31.824z"/>
	<path style="fill-rule:evenodd;clip-rule:evenodd;" d="M93.232,9.395c0.088-0.844,0.176-1.688,0.262-2.53
		c0.65,1.927,2.375,4.063-1.018,5.195C92.103,10.995,92.527,10.155,93.232,9.395z"/>
	<path style="fill-rule:evenodd;clip-rule:evenodd;" d="M93.232,9.395c0.475,1.097-0.326,1.831-0.758,2.667
		c-2.08-0.41-0.826-2.47-1.715-3.467C91.582,8.862,92.406,9.129,93.232,9.395z"/>
	<path style="fill-rule:evenodd;clip-rule:evenodd;" d="M22.961,36.164l-0.41,0.012c0,0-0.407-0.047-0.408-0.049
		c-1.052-1.678-0.945-3.537-0.857-5.392C22.837,32.239,22.329,34.379,22.961,36.164z"/>
	<path style="fill-rule:evenodd;clip-rule:evenodd;" d="M75.759,36.738c0.172-2.01-0.889-4.208,0.908-5.971
		C77.236,32.89,76.908,34.877,75.759,36.738z"/>
	<path style="fill-rule:evenodd;clip-rule:evenodd;" d="M73.925,45.584c-0.029-1.824-0.641-3.857,1.727-4.824
		C75.478,42.512,75.082,44.184,73.925,45.584z"/>
	<path style="fill-rule:evenodd;clip-rule:evenodd;" d="M28.589,39.227c-1.562-1.842-0.845-4.037-0.945-6.107
		C29.166,34.969,29.046,37.072,28.589,39.227z"/>
	<path style="fill-rule:evenodd;clip-rule:evenodd;" d="M24.887,22.5c-1.759-1.532-0.626-3.596-0.987-5.385
		C25.928,18.599,25.087,20.609,24.887,22.5z"/>
	<path style="fill-rule:evenodd;clip-rule:evenodd;" d="M67.265,44.447c0.217,1.941,0.043,3.746-1.734,4.998
		C65.328,47.51,66.181,45.938,67.265,44.447z"/>
	<path style="fill-rule:evenodd;clip-rule:evenodd;" d="M76.638,30.822c0.064-1.552,0.129-3.103,0.193-4.655
		c0.33-0.345,0.623-0.301,0.887,0.081C77.771,27.871,78.273,29.599,76.638,30.822z"/>
	<path style="fill-rule:evenodd;clip-rule:evenodd;" d="M77.718,26.249c-0.295-0.033-0.59-0.061-0.887-0.08
		c0.426-1.353,0.51-2.853,1.688-3.88C78.826,23.724,78.564,25.045,77.718,26.249z"/>
</g>
</svg>
