<?xml version="1.0" encoding="iso-8859-1"?>
<!-- Generator: Adobe Illustrator 16.0.0, SVG Export Plug-In . SVG Version: 6.00 Build 0)  -->
<!DOCTYPE svg PUBLIC "-//W3C//DTD SVG 1.1//EN" "http://www.w3.org/Graphics/SVG/1.1/DTD/svg11.dtd">
<svg version="1.1" id="Layer_1" xmlns="http://www.w3.org/2000/svg" xmlns:xlink="http://www.w3.org/1999/xlink" x="0px" y="0px"
	 width="90.6px" height="85.051px" viewBox="0 0 90.6 85.051" style="enable-background:new 0 0 90.6 85.051;" xml:space="preserve"
	>
<g>
	<path style="fill-rule:evenodd;clip-rule:evenodd;" d="M50.832,82.874c-3.14,2.125-6.615,0.873-9.847,0.623
		c-2.253-0.176-0.807-2.658-1.049-4.102c1.015-1.564-0.209-3.525,0.898-5.074l0.021,0.094c0.823-2.998,0.74-6.002,0.046-9.01
		c-4.168-0.467-8.338-0.955-12.027,1.791c-2.136-1.703,0.67-4.16-0.905-5.951c-0.669-1.568-0.854-4.273,1.327-2.703
		c3.813,2.744,7.527,1.385,11.307,1.598c1.676-5.156,0.308-10.459,0.748-15.672c-1.068-4.671,0.017-9.473-0.87-14.154
		c-0.568-4.353,0.532-8.78-0.598-13.107c0.056-4.759-3.604-7.095-6.953-8.578c-3.421-1.517-6.278,0.192-5.937,4.713
		c-0.088,1.517-0.384,2.955-1.546,4.063c-0.98,11.035-0.061,22.093-0.388,33.134c-0.055,1.816-0.138,3.631-0.208,5.445
		c-1.567,2.252,0.797,5.307-1.514,7.408c-0.702,6.434-2.946,12.041-9.156,14.98c-3.774,1.787-9.62,2.039-12.262-2.354
		c-0.497-0.826-1.579-1.527-0.797-2.547c0.636-0.828,1.506-0.643,2.594-0.211c6.258,2.49,8.47,1.615,12.05-4.4
		c0.599-0.92,0.556-2.031,0.893-3.033c0.505-2.994-0.236-6.076,0.651-9.047c0.249-4.156-0.285-8.328,0.293-12.477
		c1.369-1.955,0.653-4.17,0.728-6.265c0.308-8.715-0.785-17.504,1.436-26.115c1.306-7.866,7.566-11.91,12.133-10.433
		c3.52,1.138,7.711,1.549,10.07,5.282c1.962,3.104,4.247,3.288,6.659,0.323c6.556-8.063,13.901-7.441,21.7-0.094
		c3.895,3.67,6.176,7.871,7.45,12.857c-0.971,8.587-0.018,17.237-0.867,25.829c-0.024,1.77-0.049,3.541-0.072,5.311
		c-1.113,2.721-0.287,5.566-0.533,8.338c-0.389,1.82-0.729,3.648-0.317,5.518c0.404,0.758,0.042,1.789,0.856,2.404
		c2.555,7.324,3.217,7.566,12.896,4.242c-1.757,4.334-4.377,7.254-8.529,7.74c-7.72,0.904-10.23-0.797-13.51-7.895
		c-0.712-2.064-0.197-4.197-0.352-6.293c0.264-4.236-0.592-8.52,0.542-12.717l-0.044,0.102c0.333-0.365,0.603-0.775,0.806-1.227
		c0.268-2.717,0.199-5.477,1.052-8.115c-0.058-0.227-0.014-0.432,0.134-0.615c1.124-1.965,0.093-4.165,0.678-6.188
		c0.789-5.799,0.104-11.549-0.555-17.299c-0.76-1.321-1.396-2.714-2.251-3.983c-3.261-5.685-7.521-8.396-10.523-6.101
		c-2.505,1.914-5.314,3.944-6.354,7.303c-1.742,3.645-1.229,7.675-1.963,11.492c-0.017,2.063-0.032,4.128-0.048,6.191
		c-0.854,5.634-0.86,11.266,0.006,16.899c-0.005,0.359-0.01,0.719-0.015,1.076c-0.737,2.672-0.938,5.334,0.12,7.977
		c3.134,0.9,5.972,0.811,8.743-1.414c1.247-1,3.913-2.066,4.716,0.145c0.967,2.66,1.147,5.857-0.171,8.572
		c-0.375,0.771-2.03,0.051-2.997-0.799c-2.723-2.385-5.986-0.957-9.009-0.998c-1.742-0.023-1.119,1.648-1.278,2.688
		C49.984,72.935,48.236,78.181,50.832,82.874z"/>
	<path style="fill-rule:evenodd;clip-rule:evenodd;" d="M19.766,11.923c-1.151,9.853-0.932,19.748-0.919,29.636
		c0.001,0.991-0.022,1.995-0.823,2.756c-0.592-0.227-0.708-0.598-0.347-1.119c0.093-8.622,0.183-17.243,0.28-25.864
		C17.981,15.34,17.906,13.305,19.766,11.923z"/>
	<path style="fill-rule:evenodd;clip-rule:evenodd;" d="M70.02,18.703c1.402,5.879,2.625,11.767,0.874,17.801
		c-0.411-0.237-0.676-0.581-0.769-1.052c-0.145-5.242-0.289-10.483-0.434-15.726C69.377,19.249,69.487,18.908,70.02,18.703z"/>
	<path style="fill-rule:evenodd;clip-rule:evenodd;" d="M76.912,45.688c-0.284-8.629-0.429-17.252,0.867-25.829
		c1.552,5.368,0.318,10.817-0.006,16.152C77.581,39.191,78.708,42.628,76.912,45.688z"/>
	<path style="fill-rule:evenodd;clip-rule:evenodd;" d="M48.831,50.796c-1.671-5.631-1.647-11.263-0.006-16.898
		C48.827,39.53,48.829,45.163,48.831,50.796z"/>
	<path style="fill-rule:evenodd;clip-rule:evenodd;" d="M41.687,44.243c0.104,4.236,0.276,8.475,0.263,12.711
		c-0.004,1.129,0.57,2.76-1.348,3.186c0.105-5.334,0.21-10.668,0.315-16l0.423-0.23L41.687,44.243z"/>
	<path style="fill-rule:evenodd;clip-rule:evenodd;" d="M76.845,67.259c-0.413-0.537-0.826-1.074-1.239-1.611
		c-0.333-1.799-0.499-3.594,0.094-5.375c0.477-3.078-0.915-6.383,1.14-9.27C76.841,56.419,76.843,61.839,76.845,67.259z"/>
	<path style="fill-rule:evenodd;clip-rule:evenodd;" d="M50.832,82.874c-3.441-4.584-1.676-9.832-1.892-14.83
		C50.519,72.866,49.878,77.972,50.832,82.874z"/>
	<path style="fill-rule:evenodd;clip-rule:evenodd;" d="M41.687,44.243c-0.262,0.008-0.518-0.027-0.77-0.102
		c0-0.002-0.216-0.396-0.216-0.396c-0.76-3.954-0.161-7.946-0.342-11.916c-0.048-0.646,0.148-1.205,0.589-1.679
		C42.739,34.767,41.549,39.541,41.687,44.243z"/>
	<path style="fill-rule:evenodd;clip-rule:evenodd;" d="M40.949,30.151c-0.103,0.411-0.205,0.822-0.308,1.233
		c-0.269,0.392-0.507,0.394-0.712-0.055c-0.016-4.708-0.03-9.415-0.046-14.123C42.381,21.344,40.483,25.845,40.949,30.151z"/>
	<path style="fill-rule:evenodd;clip-rule:evenodd;" d="M17.677,43.196c0.115,0.373,0.23,0.746,0.347,1.119
		c-0.118,4.324-0.236,8.648-0.354,12.975c-0.179,0.123-0.357,0.248-0.536,0.371c-0.16-0.146-0.321-0.293-0.481-0.439
		C17.151,52.558,16.13,47.784,17.677,43.196z"/>
	<path style="fill-rule:evenodd;clip-rule:evenodd;" d="M67.893,52.337c-0.069,4.344-0.138,8.688-0.206,13.031
		c-0.256,0.43-0.514,0.412-0.776,0.008C66.787,60.995,65.782,56.548,67.893,52.337z"/>
	<path style="fill-rule:evenodd;clip-rule:evenodd;" d="M48.873,27.706c-0.1-3.96-0.568-7.981,1.963-11.492
		C50.742,20.14,50.176,23.986,48.873,27.706z"/>
	<path style="fill-rule:evenodd;clip-rule:evenodd;" d="M39.929,31.33c0.237,0.022,0.475,0.041,0.712,0.055
		c0.021,4.118,0.04,8.236,0.061,12.357C38.786,39.709,40.218,35.465,39.929,31.33z"/>
	<path style="fill-rule:evenodd;clip-rule:evenodd;" d="M27.968,61.245c3.297,1.527-0.33,4.109,0.905,5.951
		C24.344,65.856,28.482,63.196,27.968,61.245z"/>
	<path style="fill-rule:evenodd;clip-rule:evenodd;" d="M40.901,65.405c1.801,3.014,1.369,6.014-0.046,9.01
		C40.871,71.413,40.885,68.409,40.901,65.405z"/>
	<path style="fill-rule:evenodd;clip-rule:evenodd;" d="M69.707,43.097c-0.357,3.043,1.55,6.387-1.21,9.111
		c-0.11-2.455-0.534-4.922,0.336-7.332C69.124,44.284,69.415,43.69,69.707,43.097z"/>
	<path style="fill-rule:evenodd;clip-rule:evenodd;" d="M70.125,35.452c0.257,0.351,0.513,0.701,0.769,1.052
		c-0.338,1.994,0.729,4.236-1.054,5.978C69.649,40.126,69.508,37.774,70.125,35.452z"/>
	<path style="fill-rule:evenodd;clip-rule:evenodd;" d="M68.833,44.876c-0.111,2.443-0.223,4.887-0.334,7.332
		c-0.186,0.166-0.402,0.242-0.649,0.23C68.085,49.905,67.019,47.204,68.833,44.876z"/>
	<path style="fill-rule:evenodd;clip-rule:evenodd;" d="M48.936,59.849c-2.031-2.627-1.031-5.303-0.12-7.975
		C48.856,54.532,48.896,57.19,48.936,59.849z"/>
	<path style="fill-rule:evenodd;clip-rule:evenodd;" d="M23.337,63.392c1.086-2.35-0.456-5.234,1.514-7.404
		C24.608,58.507,26.379,61.44,23.337,63.392z"/>
	<path style="fill-rule:evenodd;clip-rule:evenodd;" d="M15.949,63.337c0.069-2.057-0.547-4.193,0.703-6.115l0.368,0.305
		c0.54,1.813,0.244,3.656,0.204,5.492C16.913,63.577,16.487,63.685,15.949,63.337z"/>
	<path style="fill-rule:evenodd;clip-rule:evenodd;" d="M66.911,65.376c0.259-0.006,0.517-0.01,0.776-0.008
		c0.617,1.992,0.204,3.986,0.016,5.979C66.147,69.528,66.953,67.396,66.911,65.376z"/>
	<path style="fill-rule:evenodd;clip-rule:evenodd;" d="M25.447,17.404c0.516-1.354,1.03-2.708,1.546-4.063
		C28.46,15.45,27.676,16.702,25.447,17.404z"/>
	<path style="fill-rule:evenodd;clip-rule:evenodd;" d="M70.02,18.703c-0.109,0.34-0.219,0.68-0.329,1.021
		c-1.04-1.407-1.891-2.896-1.979-4.71C69.314,15.721,69.891,17.072,70.02,18.703z"/>
	<path style="fill-rule:evenodd;clip-rule:evenodd;" d="M15.949,63.337c0.193,0.004,0.387-0.006,0.579-0.031
		c1.299,1.086,0.785,2.301,0.25,3.518c-0.337,0.68-0.675,1.359-1.012,2.037C15.827,67.021,15.887,65.179,15.949,63.337z"/>
	<path style="fill-rule:evenodd;clip-rule:evenodd;" d="M40.834,74.321c-0.418,1.67,0.975,3.662-0.898,5.074
		C39.784,77.624,39.191,75.774,40.834,74.321z"/>
	<path style="fill-rule:evenodd;clip-rule:evenodd;" d="M16.778,66.823c-0.083-1.172-0.166-2.346-0.25-3.518
		c0.164-1.926,0.328-3.854,0.492-5.779c0.202-0.117,0.419-0.197,0.649-0.236C17.733,60.501,18.4,63.771,16.778,66.823z"/>
	<path style="fill-rule:evenodd;clip-rule:evenodd;" d="M75.7,60.272c-0.031,1.791-0.063,3.582-0.094,5.373
		C74.321,63.833,74.455,62.042,75.7,60.272z"/>
</g>
</svg>
