<?xml version="1.0" encoding="iso-8859-1"?>
<!-- Generator: Adobe Illustrator 16.0.0, SVG Export Plug-In . SVG Version: 6.00 Build 0)  -->
<!DOCTYPE svg PUBLIC "-//W3C//DTD SVG 1.1//EN" "http://www.w3.org/Graphics/SVG/1.1/DTD/svg11.dtd">
<svg version="1.1" id="Layer_1" xmlns="http://www.w3.org/2000/svg" xmlns:xlink="http://www.w3.org/1999/xlink" x="0px" y="0px"
	 width="24.009px" height="82.899px" viewBox="0 0 24.009 82.899" style="enable-background:new 0 0 24.009 82.899;"
	 xml:space="preserve">
<g>
	<path style="fill-rule:evenodd;clip-rule:evenodd;" d="M19.919,37.631c0.495,1.588-1.243,3.843,1.957,4.703
		c1.437,0.385,0.379,6.16-1.305,7.24c-1.199,0.77-0.312,1.363,0.171,1.627c1.776,0.975,1.611,2.584,1.607,4.186
		c-0.015,6.66-0.022,13.322-0.033,19.984c-2.227-0.559-1.473-2.445-1.693-3.869c-0.402-2.598,0.76-5.357-0.827-7.824
		c-0.363,0.082-0.711,0.088-1.073,0.021c-0.379-0.15-0.658-0.398-0.859-0.746c-0.415-0.975-0.44-1.994-0.418-3.021
		c0.043-0.832,0.179-1.639,0.71-2.316c1.573,0.334,1.573,0.334,2.03,1.748c-0.181-2.215-0.161-4.471-1.567-6.436
		c-1.755-3.754-0.975-7.713-0.956-11.613c0.374-1.176,0.53-2.426,1.169-3.515C19.147,37.442,19.511,37.387,19.919,37.631z"/>
	<path style="fill-rule:evenodd;clip-rule:evenodd;" d="M4.829,69.812c-1.794-3.904-1.018-8.049-0.746-12.021
		c0.388-5.676,1.487-11.299,2.282-16.947c0.406-0.237,0.758-0.172,1.055,0.189c0.587,2.719,0.061,5.467,0.24,8.195
		c-0.872,0.77-0.068,1.682-0.192,2.52C7.401,56.88,6.847,61.96,5.997,67.011C5.773,68.013,5.587,69.033,4.829,69.812z"/>
	<path style="fill-rule:evenodd;clip-rule:evenodd;" d="M19.965,63.38c0.178-0.402,0.039-1.699,0.887-0.531
		c1.148,1.58,0.513,3.537,0.71,5.326c0.265,2.398-0.819,4.939,0.755,7.195c-0.296,1.6-0.703,3.131-2.379,3.885
		c-0.907-1.295-0.283-2.887-0.841-4.254C19.176,71.109,17.969,67.123,19.965,63.38z"/>
	<path style="fill-rule:evenodd;clip-rule:evenodd;" d="M14.185,15.184c0.068-0.502,0.137-1.005,0.204-1.507
		c0.745-0.678,1.53-0.714,2.354-0.151c0.227,3.487,0.453,6.973,0.679,10.461c-0.357,0.644-0.683,1.348-1.634,0.86
		c-0.149-1.178-0.103-2.408-0.83-3.451c0.31-1.866-0.207-3.622-0.72-5.377c-0.219-0.172-0.3-0.353-0.242-0.543
		C14.054,15.281,14.117,15.184,14.185,15.184z"/>
	<path style="fill-rule:evenodd;clip-rule:evenodd;" d="M16.558,29.157c0.404-0.184,0.753-0.164,0.986,0.271
		c1.084,1.435,0.578,2.803-0.47,3.858c-1.754,1.769-1.854,3.896-1.754,6.134c-0.154,1.449,0.246,3.095-1.409,4.011
		c-1.795-0.994-1.236-2.764-1.271-4.247c-0.043-1.829-0.334-3.414-2.06-4.395c-0.268-0.286-0.409-0.628-0.427-1.019
		c0.706-0.969,1.922-1.024,2.843-1.605c1.156-0.569,1.614-1.837,2.582-2.595C15.881,29.378,16.208,29.241,16.558,29.157z"/>
	<path style="fill-rule:evenodd;clip-rule:evenodd;" d="M6.406,32.084c-0.005-2.206,0.002-4.349-2.529-5.477
		c-0.782-0.347-0.83-1.247,0.214-1.7c0.883,0.722,1.524,0.084,2.196-0.398c0.326-0.161,0.665-0.267,1.021-0.33
		c0.562-0.066,1.108-0.013,1.642,0.173c0.767,0.347,1.103,0.976,1.172,1.781c-0.003,0.368-0.069,0.729-0.186,1.079
		c-0.911,1.318-1.39,2.863-2.179,4.25C7.416,31.902,7.027,32.246,6.406,32.084z"/>
	<path style="fill-rule:evenodd;clip-rule:evenodd;" d="M9.851,26.083c-0.393-0.471-0.785-0.941-1.176-1.412
		c-0.234-0.617,0.096-1.108,0.345-1.61c0.33-0.536-0.714-0.774-0.302-1.33c0.92-0.167,1.967-0.444,2.301,0.792
		c0.497,1.835,1.923,1.465,3.198,1.524c0.633,0.077,1.025,0.45,1.259,1.018c0.169,1.376-0.907,2.438-0.947,3.758
		c-0.304,0.215-0.639,0.287-1.003,0.195C12.802,27.417,11.543,26.478,9.851,26.083z"/>
	<path style="fill-rule:evenodd;clip-rule:evenodd;" d="M14.359,39.05c-0.12-2.406-0.297-4.803,2.194-6.34
		c1.226-0.756,0.715-2.165,0.991-3.28c0.243,0.104,0.488,0.205,0.734,0.302c1.076,1.002,0.434,2.256,0.503,3.405
		c-0.056,0.607-0.354,1.103-0.722,1.563c-1.442,1.282-1.792,3.232-2.881,4.734C14.767,39.601,14.495,39.472,14.359,39.05z"/>
	<path style="fill-rule:evenodd;clip-rule:evenodd;" d="M19.92,76.003c1.507,1.076-0.187,2.17,0.018,3.254
		c-1.469,0.545-2.021,2.57-3.916,2.43c-0.131-0.119-0.261-0.24-0.392-0.359c0.027-0.176,0.055-0.35,0.077-0.525
		c0.452-0.748,0.705-1.58,1.012-2.393c0.62-0.824,0.888-1.885,1.709-2.58C18.956,75.625,19.456,75.667,19.92,76.003z"/>
	<path style="fill-rule:evenodd;clip-rule:evenodd;" d="M17.573,34.548c0.234-0.316,0.468-0.633,0.702-0.948
		c0.341-0.241,0.484-0.763,1.023-0.718c1.176,1.456,0.415,3.166,0.621,4.75c-0.263,0.02-0.526,0.032-0.79,0.037
		c-0.962,0.369-1.496-0.193-1.969-0.897C16.869,35.952,16.963,35.202,17.573,34.548z"/>
	<path style="fill-rule:evenodd;clip-rule:evenodd;" d="M4.829,69.812c0.164-0.893,0.327-1.785,0.491-2.678
		c1.025,0.568,1.194,1.648,1.563,2.611c0.679,2.545,0.06,4.961-0.745,7.359c-0.176,0.404-0.47,0.688-0.875,0.855
		c-1.416-0.57-0.959-1.619-0.669-2.625C5.189,73.515,5.639,71.691,4.829,69.812z"/>
	<path style="fill-rule:evenodd;clip-rule:evenodd;" d="M4.125,13.53c-0.045-1.666-0.541-3.347,0.208-5.243
		c1.48,0.521,1.915,1.547,1.835,2.933c-0.453,0.748-0.587,1.654-1.154,2.348C4.708,13.818,4.41,13.805,4.125,13.53z"/>
	<path style="fill-rule:evenodd;clip-rule:evenodd;" d="M2.605,17.925c1.018,0.41,1.331,1.218,1.265,2.243
		c-0.048,0.758-0.431,1.388-1.184,1.31C1.364,21.34,1.597,20.199,1.57,19.3C1.549,18.591,1.718,17.976,2.605,17.925z"/>
	<path style="fill-rule:evenodd;clip-rule:evenodd;" d="M7.835,8.736c-0.662-1.244-1.892-2.289-1.38-3.943
		C6.6,4.715,6.743,4.638,6.887,4.559C7.034,4.626,7.183,4.695,7.333,4.76C7.894,5.32,8.32,6.019,9.025,6.441
		C9.313,6.605,9.58,6.795,9.842,6.996c0.389,0.338,0.702,0.73,0.884,1.218c0.107,0.535,0.027,1.014-0.408,1.39
		c-0.505,0.296-1.01,0.592-1.515,0.887C8.125,10.103,7.949,9.437,7.835,8.736z"/>
	<path style="fill-rule:evenodd;clip-rule:evenodd;" d="M11.82,12.8c0.037-0.776,0.073-1.554,0.111-2.331
		c0.455-0.55,0.938-0.528,1.443-0.07c0.092,1.59,0.185,3.18,0.276,4.771C11.083,15.892,11.464,14.336,11.82,12.8z"/>
	<path style="fill-rule:evenodd;clip-rule:evenodd;" d="M7.835,8.736c0.772,0.337,0.866,1.047,0.968,1.753
		c0.182,0.919,1.294,1.847-0.345,3.012C8.073,11.816,6.784,10.519,7.835,8.736z"/>
	<path style="fill-rule:evenodd;clip-rule:evenodd;" d="M15.106,25.127c-0.296-0.36-0.592-0.72-0.889-1.08
		c0.522-0.806-1.035-2.194,0.741-2.652c1.957,0.665,1.162,2.116,0.97,3.396C15.741,25.116,15.466,25.228,15.106,25.127z"/>
	<path style="fill-rule:evenodd;clip-rule:evenodd;" d="M7.024,4.716c-0.187,0.046-0.378,0.072-0.57,0.077
		C6.33,3.376,6.366,1.901,7.816,1.231c0.755-0.35,0.788,0.708,1.015,1.235c0.157,0.355,0.161,0.708-0.008,1.062
		C8.382,4.162,7.852,4.664,7.024,4.716z"/>
	<path style="fill-rule:evenodd;clip-rule:evenodd;" d="M8.831,3.147c-0.029-0.227-0.029-0.454,0-0.681
		c1.034-1.254,2.071-2.414,3.194-0.08c0.403,1.22-0.681,1.342-1.319,1.796C10.38,4.304,10.044,4.34,9.699,4.296
		C9.19,4.081,8.879,3.712,8.831,3.147z"/>
	<path style="fill-rule:evenodd;clip-rule:evenodd;" d="M10.358,3.878c0.555-0.498,1.11-0.995,1.665-1.492
		c0.775,1.071,1.55,2.143,2.322,3.214c-0.364,0.656-0.822,1.157-1.672,1.005C11.625,5.932,10.901,4.982,10.358,3.878z"/>
	<path style="fill-rule:evenodd;clip-rule:evenodd;" d="M9.661,81.8c-2.383,0.205-2.413-2.578-4.113-3.238
		c-0.24-0.113-0.326-0.24-0.26-0.379c0.068-0.145,0.139-0.215,0.213-0.215c0.09-0.115,0.128-0.246,0.117-0.391
		c2.658-0.666,3.243,1.467,4.2,3.104C9.907,81.074,9.86,81.449,9.661,81.8z"/>
	<path style="fill-rule:evenodd;clip-rule:evenodd;" d="M6.406,32.084c0.357-0.28,0.714-0.561,1.072-0.841
		c0.323-0.152,0.642-0.135,0.958,0.023c0.687,0.641,1.952,0.826,1.727,2.187c0.086,0.114,0.153,0.238,0.202,0.372
		c-0.857,0.719-1.846,0.649-2.853,0.479c-0.379-0.134-0.72-0.335-1.018-0.607C6.465,33.159,6.435,32.621,6.406,32.084z"/>
	<path style="fill-rule:evenodd;clip-rule:evenodd;" d="M6.494,33.697c0.234,0.077,0.448,0.191,0.644,0.342
		c1.188,1.306,0.861,2.912,0.898,4.451c-0.089,0.904-0.221,1.793-1.049,2.369c-0.208,0-0.416-0.006-0.623-0.016
		C6.408,38.462,6.451,36.079,6.494,33.697z"/>
	<path style="fill-rule:evenodd;clip-rule:evenodd;" d="M15.106,25.127c0.273-0.112,0.548-0.224,0.822-0.336
		c0.499-0.269,0.997-0.537,1.495-0.805c-0.011,1.924-2.396,2.676-2.298,4.654c-0.273,0.339-0.529,0.326-0.768-0.039
		C14.607,27.444,14.857,26.285,15.106,25.127z"/>
	<path style="fill-rule:evenodd;clip-rule:evenodd;" d="M11.82,12.8c0.191,1.113,0.041,2.491,1.83,2.371
		c0.179,0.026,0.356,0.031,0.535,0.014c0.019,0.279,0.036,0.558,0.054,0.835c-0.771,0.359-1.592,1.18-2.375,0.218
		C10.998,15.173,10.759,13.958,11.82,12.8z"/>
	<path style="fill-rule:evenodd;clip-rule:evenodd;" d="M13.375,10.399c-0.481,0.022-0.963,0.046-1.443,0.07
		c-0.538-0.288-1.075-0.577-1.613-0.866c-0.014-0.504-0.028-1.008-0.043-1.512c0.57-0.735,1.326-0.74,2.134-0.552
		c0.592,0.252,0.946,0.683,0.998,1.337C13.397,9.384,13.386,9.892,13.375,10.399z"/>
	<path style="fill-rule:evenodd;clip-rule:evenodd;" d="M13.408,8.877c-0.307-0.27-0.614-0.54-0.921-0.811
		c-0.289-0.562-0.227-1.086,0.171-1.574c0.563-0.297,1.125-0.594,1.688-0.891C15.266,7.045,15.179,8.202,13.408,8.877z"/>
	<path style="fill-rule:evenodd;clip-rule:evenodd;" d="M16.744,13.526c-0.785,0.049-1.57,0.099-2.354,0.15
		c0.448-0.918,0.896-1.837,1.413-2.898C17.224,11.508,16.611,12.64,16.744,13.526z"/>
	<path style="fill-rule:evenodd;clip-rule:evenodd;" d="M8.718,21.731c0.012,0.683,2.039,0.158,0.911,1.522
		c-1.12,0.776-2.131,0.291-3.137-0.27c-0.338-0.237-0.425-0.556-0.297-0.941C6.832,20.286,7.853,21.639,8.718,21.731z"/>
	<path style="fill-rule:evenodd;clip-rule:evenodd;" d="M9.661,81.8c-0.046-0.256-0.03-0.51,0.047-0.76
		c2.08-1.531,4.145-1.605,6.189,0.064c0.053,0.191,0.092,0.387,0.123,0.582C13.901,81.726,11.781,81.763,9.661,81.8z"/>
	<path style="fill-rule:evenodd;clip-rule:evenodd;" d="M4.125,13.53c0.142,0.014,0.277-0.01,0.405-0.072
		c0.953-0.454,1.29,0.321,1.738,0.872c0.291,0.501,0.582,1.002,0.872,1.504c-0.513,0.714-1.119,0.668-1.774,0.214
		C4.598,15.385,4.183,14.545,4.125,13.53z"/>
	<path style="fill-rule:evenodd;clip-rule:evenodd;" d="M19.298,32.882c-0.341,0.238-0.682,0.478-1.022,0.718
		c0.001-1.29,0.002-2.579,0.003-3.867C20.302,30.237,19.696,31.594,19.298,32.882z"/>
	<path style="fill-rule:evenodd;clip-rule:evenodd;" d="M14.358,28.602c0.249,0.156,0.505,0.169,0.768,0.039
		c0.478,0.171,0.955,0.343,1.433,0.515c-0.339,0.204-0.679,0.405-1.018,0.609c-0.641,0.457-1.156,1.153-2.075,1.075
		c-0.521-0.121-0.858-0.426-0.954-0.969c0.142-0.535,0.492-0.826,1.038-0.889C13.818,28.855,14.088,28.729,14.358,28.602z"/>
	<path style="fill-rule:evenodd;clip-rule:evenodd;" d="M7.117,24.604c-0.206,0.183-0.446,0.266-0.722,0.249
		c-0.629,0.484-1.255,0.493-1.878-0.014c0.143-1.181,0.669-2.131,1.677-2.794c0.077,0.149,0.179,0.281,0.307,0.393
		C6.937,23.093,7.435,23.732,7.117,24.604z"/>
	<path style="fill-rule:evenodd;clip-rule:evenodd;" d="M5.367,16.048c0.592-0.07,1.184-0.141,1.774-0.213
		c0.11,0.859,0.585,2.113-0.586,2.276C5.287,18.286,5.558,16.881,5.367,16.048z"/>
	<path style="fill-rule:evenodd;clip-rule:evenodd;" d="M6.269,14.33c-0.579-0.29-1.158-0.58-1.738-0.871
		c0.099-1.075,0.679-1.795,1.638-2.238C6.202,12.257,6.235,13.293,6.269,14.33z"/>
	<path style="fill-rule:evenodd;clip-rule:evenodd;" d="M5.5,77.968c0.026,0.195,0.042,0.395,0.046,0.594
		c-2.793-0.346-2.295-1.662-0.954-3.229C4.796,76.248,4.646,77.279,5.5,77.968z"/>
	<path style="fill-rule:evenodd;clip-rule:evenodd;" d="M4.518,24.839c0.626,0.004,1.252,0.009,1.878,0.014
		c-0.215,0.542-0.138,1.331-0.922,1.434c-0.979,0.128-1.193-0.643-1.382-1.379C4.24,24.926,4.382,24.903,4.518,24.839z"/>
	<path style="fill-rule:evenodd;clip-rule:evenodd;" d="M18.373,40.945c0.361,3.994-0.371,8.072,0.918,11.996
		c0.344,0.531,0.32,1.059-0.018,1.582c-1.417,0.377-1.976-0.871-2.86-1.508c-0.245-0.309-0.45-0.639-0.625-0.99
		c-1.398-3.703,0.173-7.367,0.138-11.055c0.148-0.806,0.357-1.574,1.252-1.882C18.16,39.33,18.253,40.146,18.373,40.945z"/>
	<path style="fill-rule:evenodd;clip-rule:evenodd;" d="M16.884,52.998c1.266-0.293,1.382,1.053,2.132,1.494
		c1.262,1.291,0.579,2.271-0.506,3.189c-0.093,0.781-0.186,1.564-0.278,2.346c-0.682,0.57-1.303,0.49-1.87-0.176
		C15.57,57.494,15.111,55.16,16.884,52.998z"/>
	<path style="fill-rule:evenodd;clip-rule:evenodd;" d="M18.309,63.25c0.269,0.066,0.538,0.131,0.807,0.197
		c0.863,3.467,0.197,6.99,0.392,10.479c-0.128,0.895-0.758,1.008-1.486,0.959c-0.456-0.123-0.729-0.422-0.816-0.885
		c0.087-2.016,0.309-4.033,0.19-6.061c-0.028-0.971-0.285-1.908-0.45-2.859c-0.063-0.598,0.02-1.168,0.329-1.691
		C17.587,63.103,17.93,63.046,18.309,63.25z"/>
	<path style="fill-rule:evenodd;clip-rule:evenodd;" d="M19.068,74.554c0.016-3.705,0.032-7.408,0.048-11.109
		c0.283-0.021,0.566-0.043,0.85-0.066c-0.016,4.209-0.029,8.418-0.044,12.627c-0.469,0.023-0.937,0.047-1.404,0.072
		C17.833,75.255,18.697,74.994,19.068,74.554z"/>
	<path style="fill-rule:evenodd;clip-rule:evenodd;" d="M18.51,57.681c0.169-1.063,0.339-2.125,0.507-3.189
		c0.09-0.518,0.18-1.035,0.271-1.551c3.185,1.773,0.512,4.719,1.908,7.561C19.562,59.542,20.174,57.496,18.51,57.681z"/>
	<path style="fill-rule:evenodd;clip-rule:evenodd;" d="M18.373,40.945c-0.7-0.361-0.855-1.024-0.952-1.719
		c-0.6-0.813-0.543-1.59,0.124-2.335c0.528,0.259,1.057,0.519,1.585,0.778C18.982,38.784,19.468,40.048,18.373,40.945z"/>
	<path style="fill-rule:evenodd;clip-rule:evenodd;" d="M18.309,63.25c-0.244,0.039-0.489,0.078-0.733,0.121
		c-0.469,0.225-0.859,0.131-1.175-0.283c-0.494-1.131-0.601-2.197,0.528-3.047c0.436-0.006,0.87-0.01,1.304-0.014
		C18.258,61.099,18.284,62.173,18.309,63.25z"/>
	<path style="fill-rule:evenodd;clip-rule:evenodd;" d="M7.12,51.166c0.269,6.15,0.159,12.281-1.024,18.348
		c-0.858-0.6-0.447-1.609-0.774-2.379C5.408,61.755,6.157,56.447,7.12,51.166z"/>
	<path style="fill-rule:evenodd;clip-rule:evenodd;" d="M7.17,38.292c1.536,3.854,0.911,7.631-0.406,11.385
		c0.073-2.938,0.148-5.877,0.224-8.818C7.049,40.004,7.109,39.148,7.17,38.292z"/>
	<path style="fill-rule:evenodd;clip-rule:evenodd;" d="M13.836,60.957c-0.879-5.922-0.027-11.865-0.24-17.797
		c1.099-1.213,0.347-2.767,0.763-4.107c0.223,0.149,0.466,0.253,0.729,0.308c0.551,0.407,0.763,0.992,0.867,1.633
		c-0.009,4.027-1.341,7.973-0.681,12.053c0.211,1.297,0.137,2.637,0.876,3.807c0.34,1.893,0.091,3.801,0.158,5.703
		c-0.022,0.434-0.047,0.865-0.068,1.297c-0.54,2.523,0.724,5.348-1.282,7.621c-1.974-1.488-0.716-3.59-0.969-5.393
		C13.754,64.398,14.065,62.662,13.836,60.957z"/>
	<path style="fill-rule:evenodd;clip-rule:evenodd;" d="M13.066,29.603c0.135,0.282,0.27,0.563,0.404,0.845
		c0.737,0.824,0.706,1.62-0.082,2.39c-0.884,1.204-1.984,1.27-3.224,0.615c-0.839-0.729-1.676-1.459-2.512-2.188
		c0.706-0.802,1.173-1.854,2.308-2.21C11.075,28.787,12.152,28.737,13.066,29.603z"/>
	<path style="fill-rule:evenodd;clip-rule:evenodd;" d="M13.388,32.838c0.027-0.797,0.055-1.593,0.082-2.39
		c0.692-0.229,1.384-0.457,2.072-0.684C14.993,30.908,15.089,32.502,13.388,32.838z"/>
	<path style="fill-rule:evenodd;clip-rule:evenodd;" d="M13.066,29.603c-1.264,0.092-2.527,0.185-3.792,0.276
		c-0.554-1.016-0.231-1.971,0.203-2.919c0.123-0.291,0.247-0.582,0.372-0.875c3.291-1.66,3.803,0.227,3.701,2.897
		C13.371,29.175,13.209,29.382,13.066,29.603z"/>
	<path style="fill-rule:evenodd;clip-rule:evenodd;" d="M9.477,26.96c-0.066,0.974-0.132,1.946-0.2,2.919
		c-0.255,0.797-0.936,1.095-1.623,1.387c-0.002,0-0.182-0.023-0.179-0.023C7.654,29.586,7.823,27.927,9.477,26.96z"/>
	<path style="fill-rule:evenodd;clip-rule:evenodd;" d="M7.117,24.604c-0.416-0.663-0.958-1.29-0.616-2.168
		c1.042,0.273,2.084,0.545,3.128,0.817c-0.319,0.473-0.638,0.945-0.956,1.418C8.155,24.649,7.636,24.626,7.117,24.604z"/>
	<path style="fill-rule:evenodd;clip-rule:evenodd;" d="M15.262,40.64c-0.058-0.427-0.116-0.854-0.174-1.281
		c0.477-1.784,0.122-3.998,2.484-4.811c-0.009,0.781-0.019,1.561-0.028,2.342c-0.04,0.779-0.081,1.558-0.123,2.336
		c-0.225,0.565-0.449,1.13-0.674,1.696C16.168,41.271,15.624,41.443,15.262,40.64z"/>
	<path style="fill-rule:evenodd;clip-rule:evenodd;" d="M19.068,74.554c-0.184,0.508-0.368,1.016-0.552,1.525
		c-0.065,1.164-0.097,2.352-1.591,2.67c-0.352-0.166-0.593-0.436-0.741-0.793c-0.281-1.129-0.331-2.234,0.345-3.264
		c0.301-0.264,0.635-0.328,1.006-0.16C18.045,74.539,18.557,74.546,19.068,74.554z"/>
	<path style="fill-rule:evenodd;clip-rule:evenodd;" d="M16.038,80.91c0.031-1.266-0.646-2.092-1.669-2.705
		c-0.494-0.434-0.489-0.906-0.114-1.41c0.345-0.145,0.694-0.16,1.051-0.045c0.661,0.383,0.908,1.105,1.358,1.662
		c0.042,0.145,0.128,0.258,0.261,0.338C17.357,79.769,17.31,80.591,16.038,80.91z"/>
	<path style="fill-rule:evenodd;clip-rule:evenodd;" d="M12.658,6.492c-0.056,0.525-0.111,1.049-0.169,1.574
		c-0.738,0.008-1.476,0.016-2.212,0.025c-0.265-0.278-0.528-0.559-0.792-0.837C8.722,6.115,8.52,4.99,9.563,3.895
		c0.266,0.023,0.53,0.018,0.794-0.016C11.875,4.09,12.23,5.322,12.658,6.492z"/>
	<path style="fill-rule:evenodd;clip-rule:evenodd;" d="M9.563,3.895c-0.026,1.12-0.052,2.24-0.078,3.359
		c-0.253-0.034-0.5-0.095-0.741-0.182C8.127,6.399,7.934,5.455,7.292,4.799c0,0-0.266-0.082-0.267-0.083
		C7.626,4.193,8.228,3.67,8.83,3.147C9.075,3.396,9.319,3.645,9.563,3.895z"/>
	<path style="fill-rule:evenodd;clip-rule:evenodd;" d="M7.292,4.799c1.535,0.086,1.433,1.22,1.452,2.273
		C7.444,6.835,7.208,5.92,7.292,4.799z"/>
	<path style="fill-rule:evenodd;clip-rule:evenodd;" d="M15.262,40.64c0.495,0.094,0.99,0.188,1.485,0.282
		c0.091,3.732-1.289,7.436-0.228,11.189c-0.646,1.529,0.396,3.295-0.669,4.766c-2.024-0.279-1.644-1.881-1.512-3.094
		c0.406-3.742-1.031-7.697,1.296-11.252C15.887,42.146,15.404,41.283,15.262,40.64z"/>
	<path style="fill-rule:evenodd;clip-rule:evenodd;" d="M15.851,56.876c0.283-1.582-0.44-3.305,0.671-4.768
		c0.119,0.297,0.239,0.592,0.361,0.889c0.015,2.348,0.029,4.695,0.045,7.043c-0.086,1.092-0.173,2.184-0.26,3.275l-0.311,0.18
		l-0.305-0.191C15.986,61.162,15.918,59.019,15.851,56.876z"/>
	<path style="fill-rule:evenodd;clip-rule:evenodd;" d="M17.535,74.533c-0.245,0.031-0.489,0.072-0.732,0.121
		c-0.148-0.141-0.296-0.281-0.447-0.42c-1.008-2.135,0.004-4.445-0.588-6.617c-0.218-0.582-0.231-1.176-0.123-1.783
		c0.428-0.742,0.925-1.344,1.916-0.939c0.253,0.807,0.506,1.613,0.759,2.418c-1.063,2.041,0.233,4.359-0.759,6.408
		C17.552,73.992,17.543,74.261,17.535,74.533z"/>
	<path style="fill-rule:evenodd;clip-rule:evenodd;" d="M17.56,73.72c0.324-2.127-0.828-4.43,0.759-6.408
		C18.001,69.441,19.114,71.738,17.56,73.72z"/>
	<path style="fill-rule:evenodd;clip-rule:evenodd;" d="M17.56,64.894c-0.447,0.26-0.895,0.52-1.341,0.777
		c-1.12-0.639-0.661-1.488-0.312-2.324c0,0,0.145-0.041,0.146-0.041c0.205,0.016,0.411,0.018,0.616,0.01
		c0.302,0.018,0.604,0.035,0.906,0.053C17.571,63.878,17.565,64.386,17.56,64.894z"/>
	<path style="fill-rule:evenodd;clip-rule:evenodd;" d="M14.254,77.078c0.038,0.375,0.076,0.752,0.114,1.127
		c-1.465-0.389-1.92-1.543-1.502-2.744c1.66-4.766,0.279-9.699,0.97-14.504c1.556,3.316-0.658,7.096,1.275,10.365
		c0.962,1.186,0.119,2.309-0.11,3.453C14.772,75.546,14.34,76.255,14.254,77.078z"/>
	<path style="fill-rule:evenodd;clip-rule:evenodd;" d="M14.243,75.181c0.29-1.287,0.58-2.572,0.87-3.859
		c0.385-2.645-0.823-5.451,0.795-7.975c0.104,0.775,0.207,1.551,0.312,2.326c-0.071,0.547-0.144,1.096-0.216,1.645
		c0.671,1.969,0.146,4,0.311,5.994c0.017,0.406-0.031,0.803-0.143,1.193C15.695,75.203,15.192,75.83,14.243,75.181z"/>
	<path style="fill-rule:evenodd;clip-rule:evenodd;" d="M16.664,78.412c-0.883-0.029-1.265-0.615-1.508-1.355
		c-0.069-0.924,0.169-1.744,0.818-2.426l-0.035-0.182c0.276-0.279,0.521-0.254,0.737,0.074c0,0,0.125,0.129,0.126,0.129
		C16.755,75.906,16.709,77.16,16.664,78.412z"/>
	<path style="fill-rule:evenodd;clip-rule:evenodd;" d="M15.974,74.63c-0.027,0.891,0.051,1.816-0.818,2.426
		c-0.301,0.008-0.602,0.014-0.901,0.021c-0.709-0.629-0.685-1.26-0.012-1.896C14.819,74.998,15.397,74.814,15.974,74.63z"/>
	<path style="fill-rule:evenodd;clip-rule:evenodd;" d="M16.676,74.523c-0.25,0.018-0.496-0.006-0.737-0.074
		c0.021-2.377,0.043-4.754,0.063-7.131C17.314,69.619,16.589,72.109,16.676,74.523z"/>
</g>
</svg>
