<?xml version="1.0" encoding="iso-8859-1"?>
<!-- Generator: Adobe Illustrator 16.0.0, SVG Export Plug-In . SVG Version: 6.00 Build 0)  -->
<!DOCTYPE svg PUBLIC "-//W3C//DTD SVG 1.1//EN" "http://www.w3.org/Graphics/SVG/1.1/DTD/svg11.dtd">
<svg version="1.1" id="Layer_1" xmlns="http://www.w3.org/2000/svg" xmlns:xlink="http://www.w3.org/1999/xlink" x="0px" y="0px"
	 width="63.873px" height="61.608px" viewBox="0 0 63.873 61.608" style="enable-background:new 0 0 63.873 61.608;"
	 xml:space="preserve">
<g>
	<path style="fill-rule:evenodd;clip-rule:evenodd;" d="M28.786,46.624c-0.904,3.636,1.255,7.847-2.072,11.027
		c0.091-2.793,0.217-5.586,0.257-8.38C26.989,47.933,26.706,46.5,28.786,46.624z"/>
	<path style="fill-rule:evenodd;clip-rule:evenodd;" d="M26.095,3.963c3.617,2.87,3.793,7.173,0.402,9.854
		C27.424,10.49,27.507,7.196,26.095,3.963z"/>
	<path style="fill-rule:evenodd;clip-rule:evenodd;" d="M57.394,27.378c-3.32-0.145-6.75,1.211-9.934-0.739
		C50.771,26.885,54.081,27.132,57.394,27.378z"/>
	<path style="fill-rule:evenodd;clip-rule:evenodd;" d="M1.577,26.514c1.981,1.916,0.592,4.048,0.389,6.104
		c-0.238,0.456-0.535,0.496-0.887,0.12C1.155,30.657,0.397,28.508,1.577,26.514z"/>
	<path style="fill-rule:evenodd;clip-rule:evenodd;" d="M60.865,34.115c0.359-2.413-0.472-4.914,0.547-7.277
		c0.221-0.104,0.429-0.086,0.626,0.052c0.508,2.325,0.815,4.646-0.175,6.933C61.53,33.919,61.198,34.017,60.865,34.115z"/>
	<path style="fill-rule:evenodd;clip-rule:evenodd;" d="M61.863,33.822c0.058-2.312,0.115-4.623,0.174-6.934
		C63.43,29.237,63.72,31.557,61.863,33.822z"/>
	<path style="fill-rule:evenodd;clip-rule:evenodd;" d="M34.994,55.729c-2.144-2.195-0.538-4.834-0.858-7.245
		C36.291,50.677,34.917,53.289,34.994,55.729z"/>
	<path style="fill-rule:evenodd;clip-rule:evenodd;" d="M13.186,35.708c2.976,0.479,1.526,2.775,1.794,4.368
		C13.52,38.975,13.388,37.327,13.186,35.708z"/>
	<path style="fill-rule:evenodd;clip-rule:evenodd;" d="M33.759,60.526c1.652-1.307,1.015-3.193,1.232-4.863
		C36.845,57.858,37.845,59.837,33.759,60.526z"/>
	<path style="fill-rule:evenodd;clip-rule:evenodd;" d="M1.079,32.738c0.297-0.037,0.592-0.077,0.887-0.119
		c0.146,1.354-0.135,2.796,0.83,3.979C-0.091,36.339,0.956,34.333,1.079,32.738z"/>
	<path style="fill-rule:evenodd;clip-rule:evenodd;" d="M34.098,10.946c-0.09-1.963-0.784-4.02,0.891-5.707
		C35.499,7.267,35.476,9.212,34.098,10.946z"/>
	<path style="fill-rule:evenodd;clip-rule:evenodd;" d="M61.415,26.837c-1.341,0.181-2.682,0.36-4.021,0.541
		c-3.289-0.563-6.7,0.538-9.934-0.739c-0.953-4.815-0.023-10.45-7.328-11.921c-1.363-0.274-5.098-0.888-6.034-3.772
		c0.789-1.826-0.206-3.93,0.891-5.707c-0.097-1.637,1.063-4.243-1.948-4.005c-2.438,0.193-6.118-1.844-6.945,2.729
		c2.755,3.178,2.581,6.476,0.401,9.854c-0.646,0.977-1.464,1.464-2.669,1.859c-3.799,1.25-8.148,2.919-9.143,6.896
		c-1.617,6.474-6.004,4.379-9.927,4.393c-1.092,0.003-1.972-1.385-3.181-0.451c0.609,2.173-0.293,4.325-0.094,6.49
		c-0.012,1.36-0.18,2.779,1.312,3.593c3.342-1.721,6.638-3.98,10.391-0.89c1.192,1.213,1.119,2.945,1.794,4.369
		c1.803,2.958,4.391,4.007,7.85,3.74c2.332-0.18,5.236-0.777,5.957,2.807c-2.171,3.397,0.147,7.639-2.072,11.027
		c-1.973,2.313,0.635,2.576,1.586,2.777c1.748,0.369,3.631,0.101,5.459,0.098c2.493-1.093,1.742-3.009,1.232-4.863l0.003,0.066
		c-1.325-2.292,0.03-4.901-0.858-7.246c-0.967-4.082,0.999-5.118,4.682-4.725c3.938,0.42,6.668-0.933,7.291-5.328
		c0.422-2.973,2.529-3.932,5.378-3.93c3.126,0.003,6.292,0.639,9.379-0.386C62.431,31.793,62.111,29.33,61.415,26.837z
		 M19.271,25.285c2.62-1.781,3.008-6.697,7.703-5.551c1.414,1.833,0.911,4.03,1.156,6.086c-0.075,0.148-0.11,0.356-0.23,0.437
		c-2.557,1.694-5.23,1.575-7.961,0.484C19.226,26.457,18.677,25.689,19.271,25.285z M26.917,40.733
		c-0.48,0.105-1.008,0.397-1.432,0.287c-2.92-0.764-6.376-2.462-6.125-5.199c0.29-3.17,4.047-0.902,6.211-1.415
		c0.59-0.141,1.285,0.16,1.933,0.259C29.814,36.93,29.16,38.909,26.917,40.733z M42.196,38.13c-2.357,2.84-4.932,4.18-8.378,1.844
		c-0.325-1.732-0.907-3.482,0.336-5.111c2.279-0.213,4.577-0.313,6.831-0.676c1.536-0.247,2.079,0.806,2.657,1.696
		C44.734,37.57,42.794,37.41,42.196,38.13z M43.462,26.765c-1.961,1.528-4.17,0.065-6.267,0.5c-1.702,0.353-3.772-0.546-3.886-2.219
		c-0.156-2.305,0.104-5.092,1.328-6.893c0.977-1.434,3.144-0.173,4.65,1.114c0.947,0.809,2.345,1.086,2.748,2.511
		C43.193,23.247,45.521,24.379,43.462,26.765z"/>
	<path style="fill-rule:evenodd;clip-rule:evenodd;" d="M28.13,25.82c-1.671-1.784-1.076-4-1.156-6.086
		C30.347,21.195,28.794,23.591,28.13,25.82z"/>
	<path style="fill-rule:evenodd;clip-rule:evenodd;" d="M43.462,26.765c1.133-2.122-1.241-3.241-1.426-4.986
		C44.032,23.006,46.567,24.08,43.462,26.765z"/>
	<path style="fill-rule:evenodd;clip-rule:evenodd;" d="M26.917,40.733c1.296-1.915,1.312-3.956,0.588-6.067
		c0.456,0.054,0.913,0.107,1.37,0.161c1.009,1.662,0.604,3.373,0.173,5.085C28.516,40.646,27.818,40.955,26.917,40.733z"/>
	<path style="fill-rule:evenodd;clip-rule:evenodd;" d="M29.048,39.912c-0.058-1.695-0.116-3.391-0.174-5.085
		C30.739,36.459,30.216,38.175,29.048,39.912z"/>
	<path style="fill-rule:evenodd;clip-rule:evenodd;" d="M34.154,34.863c-0.112,1.703-0.224,3.407-0.336,5.11
		C32.739,38.192,31.88,36.424,34.154,34.863z"/>
</g>
</svg>
