<?xml version="1.0" encoding="iso-8859-1"?>
<!-- Generator: Adobe Illustrator 16.0.0, SVG Export Plug-In . SVG Version: 6.00 Build 0)  -->
<!DOCTYPE svg PUBLIC "-//W3C//DTD SVG 1.1//EN" "http://www.w3.org/Graphics/SVG/1.1/DTD/svg11.dtd">
<svg version="1.1" id="Layer_1" xmlns="http://www.w3.org/2000/svg" xmlns:xlink="http://www.w3.org/1999/xlink" x="0px" y="0px"
	 width="93.771px" height="49.49px" viewBox="0 0 93.771 49.49" style="enable-background:new 0 0 93.771 49.49;"
	 xml:space="preserve">
<g>
	<path style="fill-rule:evenodd;clip-rule:evenodd;" d="M70.273,19.852c1.504-0.071,1.51-1.31,1.801-2.322
		c0.527-0.789,0.869-1.656,1.125-2.563c1.615-3.061,4.084-5.491,6.105-8.251c1.619-2.21,4.107-3.257,6.607-3.949
		c1.092-0.302,2.02-0.688,3.027-1.147c1.266-0.575,2.908-0.888,3.998,0.479c-6.773,4.669-10.543,11.135-12.219,18.965
		c-0.551,2.403-0.518,4.808-0.014,7.212l0.027,0.117c0.67,1.346-0.146,2.906,0.619,4.236c1.311,6.238,6.156,9.834,10.434,13.83
		c0.412,0.385,1.254,0.453,1.135,1.193c-0.162,0.996-1.074,0.844-1.752,0.766c-3.611-0.42-7.451-1.467-9.883-3.717
		c-4.174-3.857-9.396-7.43-9.678-14.119c-0.037-0.898-0.373-1.355-1.324-0.869c-1.777,0.787-0.482,2.717-1.42,3.818
		c-1.93,5.98-7.1,9.469-11.768,12.33c-4.988,3.057-11.253,4.395-17.429,1.082c-5.605-3.006-10.734-6.371-14.106-11.924
		c0.266-1.439-0.784-2.529-1.021-3.838c-0.33-0.945-0.437-1.922-0.434-2.918c-0.003-2.109-0.023-4.218-0.004-6.328
		c0.221-2.326,1.451-4.341,2.028-6.559c2.198-5.398,6.585-9.23,11.122-12.042c4.567-2.832,10.283-2.909,15.855-1.136
		c7.975,2.537,12.256,8.559,15.852,15.432C69.783,19.691,69.783,19.691,70.273,19.852z"/>
	<path style="fill-rule:evenodd;clip-rule:evenodd;" d="M13.167,19.92C10.86,13.444,8.168,7.222,2.223,3.109
		C1.739,2.774,1.051,2.371,1.454,1.65c0.353-0.635,1.191-0.488,1.669-0.31C8.02,3.167,13.532,3.499,16.595,9.114
		c1.807,3.311,4.606,6.123,5.796,9.867c0.258,0.737,0.649,1.423,0.86,2.178c1.18,2.401,1.833,4.71-0.346,7.029
		c-0.759,0.807-0.351,2.174-0.591,3.268c-0.098,0.299-0.239,0.576-0.425,0.83c-0.723,3.066-1.498,6.109-4.783,7.531
		c-0.381,0.164-0.714,0.203-0.845,0.693c-1.146,4.277-4.749,5.271-8.377,6.098c-1.708,0.389-2.701,2.424-4.805,1.869
		c-0.767-0.201-1.874,0.082-2.115-0.809c-0.222-0.82,0.909-0.914,1.437-1.342c5.523-4.471,10.078-9.561,10.801-17.072
		c0.183-0.225,0.331-0.471,0.44-0.74c0.161-2.625,0.17-5.248-0.009-7.869C13.514,20.379,13.36,20.137,13.167,19.92z"/>
	<path style="fill-rule:evenodd;clip-rule:evenodd;" d="M13.641,29.162c-0.141,0.063-0.287,0.094-0.44,0.092
		c-0.011-3.111-0.022-6.223-0.034-9.334c0.143-0.001,0.277,0.034,0.401,0.105C14.345,23.064,14.233,26.111,13.641,29.162z"/>
	<path style="fill-rule:evenodd;clip-rule:evenodd;" d="M26.131,15.379c0.237,2.2-1.581,3.952-1.339,6.153
		c-0.428,0.993-0.892,0.511-1.356,0.034c-0.178-0.478-0.145-0.921,0.21-1.314C25.204,19,24.519,16.604,26.131,15.379z"/>
	<path style="fill-rule:evenodd;clip-rule:evenodd;" d="M24.744,28.486c0.069,1.072,0.138,2.146,0.208,3.219
		c0.258,0.432,0.33,0.84-0.15,1.176c-0.428-0.859-0.855-1.721-1.282-2.58c-0.521-0.68-0.483-1.4-0.159-2.143
		C24.009,27.469,24.383,27.947,24.744,28.486z"/>
	<path style="fill-rule:evenodd;clip-rule:evenodd;" d="M23.67,28.307c-0.05,0.666-0.1,1.33-0.15,1.996
		c-0.702,0.529-0.324,1.947-1.63,1.984c-0.033-0.207-0.067-0.41-0.101-0.613c0.636-0.93,0.105-2.01,0.379-2.969
		C22.406,27.873,22.829,27.131,23.67,28.307z"/>
	<path style="fill-rule:evenodd;clip-rule:evenodd;" d="M24.802,32.881c0.05-0.391,0.1-0.783,0.15-1.176
		c0.567,1.037,1.518,2.004,0.609,3.314C25.308,34.309,25.055,33.596,24.802,32.881z"/>
	<path style="fill-rule:evenodd;clip-rule:evenodd;" d="M23.646,20.252c-0.005,0.338-0.009,0.677-0.012,1.016
		c-0.31,0.379-0.575,0.863-1.198,0.521c-0.015-0.936-0.03-1.873-0.044-2.809C22.81,19.404,23.228,19.829,23.646,20.252z"/>
	<path style="fill-rule:evenodd;clip-rule:evenodd;" d="M22.436,21.79c0.4-0.174,0.799-0.348,1.198-0.521
		c0.386,0.088,0.772,0.177,1.158,0.265c-0.016,2.319-0.031,4.639-0.048,6.956c-0.358-0.063-0.716-0.121-1.074-0.182
		c-0.916-0.473-1.254-0.105-1.322,0.836c-0.063,0.863,0.361,1.854-0.559,2.531c0.464-1.648-1.04-3.676,1.589-5.049
		C24.28,26.154,24.17,23.184,22.436,21.79z"/>
	<path style="fill-rule:evenodd;clip-rule:evenodd;" d="M13.641,29.162c-0.024-3.047-0.048-6.091-0.073-9.137
		C14.863,23.061,14.737,26.107,13.641,29.162z"/>
</g>
</svg>
