<?xml version="1.0" encoding="iso-8859-1"?>
<!-- Generator: Adobe Illustrator 16.0.0, SVG Export Plug-In . SVG Version: 6.00 Build 0)  -->
<!DOCTYPE svg PUBLIC "-//W3C//DTD SVG 1.1//EN" "http://www.w3.org/Graphics/SVG/1.1/DTD/svg11.dtd">
<svg version="1.1" id="Layer_1" xmlns="http://www.w3.org/2000/svg" xmlns:xlink="http://www.w3.org/1999/xlink" x="0px" y="0px"
	 width="64.213px" height="97.904px" viewBox="0 0 64.213 97.904" style="enable-background:new 0 0 64.213 97.904;"
	 xml:space="preserve">
<g>
	<path style="fill-rule:evenodd;clip-rule:evenodd;" d="M23.718,46.978c-4.5-2.865-7.691-7.087-11.281-10.895
		c-0.284-0.424-0.554-0.857-0.813-1.298C8.922,29.047,5.171,23.662,5.585,16.87c0.219-1.06,0.597-1.999,1.783-2.307
		c3.931,1.662,3.028,5.937,4.761,8.785c1.085,3.261,3.429,5.857,4.791,8.971c0.676,1.527,1.641,2.854,2.858,3.997
		c0.421,0.421,0.803,0.874,1.15,1.355c0.496,0.817,1.177,1.47,1.916,2.076c0.273,0.285,0.532,0.575,0.801,0.854
		c0.48,0.353,0.965,0.365,1.439,0.043c0.379-0.916-0.521-1.117-0.898-1.61c-0.881-1.206-1.484-2.595-2.571-3.65
		c-1.218-1.744-2.245-3.583-2.918-5.609c-0.225-2.488-0.746-4.892-2.004-7.094c-0.625-6.016-1.025-12.025,0.273-18.02
		c0.615-1.161,1.678-1.679,2.88-1.656C31.958,3.229,44.081,2.414,56.183,3.42c2.406,2.207,1.484,5.087,1.568,7.762
		c-0.164,1.111-0.361,2.221-0.689,3.297c-0.688,2.758-1.277,5.538-1.519,8.38c-1.079,4.399-1.486,9.032-4.414,12.793
		c-1.477,4.427-4.77,7.345-8.342,10.036c-1.507,1.423-4.25-0.095-5.363,2.271c-1.272,1.816-1.537,3.722-1.526,6.007
		c0.038,8.242,0.569,16.471,0.525,24.712c-0.126,0.551-0.392,1.024-0.794,1.423c-4.228-0.892-5.347-4.206-6.104-7.812
		c0.534-7.564-1.406-15.018-1.033-22.565C27.762,47.322,25.808,47.032,23.718,46.978z"/>
	<path style="fill-rule:evenodd;clip-rule:evenodd;" d="M12.559,95.137c-1.99-0.111-3.98-0.224-5.971-0.336
		c-1.729-2.797-0.633-4.294,2.287-4.909c2.089-0.441,4.188-0.877,6.272,0.03c0.813,0.571,1.346,1.423,2.047,2.1
		c2.82,1.575,5.448,0.896,7.993-0.678c0.395-0.51,0.778-1.025,1.209-1.505c0.622-0.602,1.356-1.041,2.106-1.458
		c1.29-0.644,2.618-1.237,3.424-2.536c0.44-0.704,0.803-1.449,1.174-2.188c0.717-1.288,1.237-2.706,2.425-3.682l0.328-0.221
		c1.621,0.21,1.027,1.896,1.786,2.682c0.93,0.487,1.09,1.344,1.092,2.275c2.106,3.25,6.005,1.062,8.6,2.831
		c0.771,1.619,2.182,2.08,3.829,2.112c0.563-0.293,1.127-0.586,1.69-0.879c1.549,0.263,3.807-0.118,3.973,1.968
		c0.186,2.317-2.063,3.484-3.656,4.851c-0.547,0.19-1.106,0.292-1.685,0.313c-6.851,0.078-13.695,0.017-20.54,0.037
		c-2.069-0.002-4.14-0.003-6.209-0.002c-2.051-0.001-4.103-0.001-6.154,0C16.554,95.806,14.44,96.342,12.559,95.137z"/>
	<path style="fill-rule:evenodd;clip-rule:evenodd;" d="M56.417,3.991c-11.439-0.008-22.879-0.04-34.318,0.004
		C20.402,4,18.317,3.241,17.38,5.612c-2.455,1.472-5.197,1.396-7.914,1.481C8.194,7.076,6.923,7.048,5.764,6.413
		c-1.371-1.341-1.075-2.719-0.091-4.11c0.366-0.326,0.785-0.576,1.246-0.747c2.114-0.173,4.241,0.046,6.36-0.132
		c0.46,0.097,0.92,0.193,1.38,0.29c13.515,1.409,27.046,0.907,40.576,0.341c0.427-0.013,0.853-0.024,1.279-0.037
		c0.139,0.145,0.277,0.288,0.417,0.433C57.097,3.076,57.032,3.625,56.417,3.991z"/>
	<path style="fill-rule:evenodd;clip-rule:evenodd;" d="M7.339,30.167c-3.58-7.499-5.583-15.482-6.565-23.659
		C0.353,3,2.062,0.312,6.429,1.128l0.41,0.178l0.029,0.446C6.611,1.792,6.374,1.879,6.155,2.018C5.531,2.55,4.929,3.101,4.554,3.851
		C3.567,5.375,3.47,6.98,4.101,8.659c0.156,0.428,0.267,0.862,0.356,1.308c0.293,2.057,0.062,4.186,0.932,6.155
		c0.16,4.471,2.317,8.501,2.831,12.893C8.101,29.532,7.806,29.917,7.339,30.167z"/>
	<path style="fill-rule:evenodd;clip-rule:evenodd;" d="M37.64,82.436c-0.596-0.894-1.191-1.788-1.786-2.682
		c-0.323-9.09-0.635-18.18-0.975-27.268c-0.092-2.449,0.486-4.538,2.771-5.838c0.461,0.762,0.514,1.498-0.128,2.194
		c-1.298,7.73-0.712,15.481-0.201,23.226C37.549,75.524,38.103,78.961,37.64,82.436z"/>
	<path style="fill-rule:evenodd;clip-rule:evenodd;" d="M55.235,2.054c-2.074,1.62-4.473,0.672-6.689,0.702
		C38.734,2.888,28.92,2.864,19.108,2.768c-1.487-0.015-3.375,0.934-4.453-1.056C28.187,1.618,41.718,1.024,55.235,2.054z"/>
	<path style="fill-rule:evenodd;clip-rule:evenodd;" d="M50.312,35.936c1.849-4.192,3.685-8.388,4.365-12.973
		c0.609-2.502,0.948-5.109,2.764-7.146c0.327,0.543,1.064,1.25,0.922,1.604c-2.468,6.141-1.51,13.498-6.6,18.701
		C51.231,36.43,50.748,36.368,50.312,35.936z"/>
	<path style="fill-rule:evenodd;clip-rule:evenodd;" d="M56.519,14.459c0.061-0.797,0.122-1.595,0.183-2.393
		c0.591-3.199,0.714-6.395-0.08-9.582c-0.188-0.121-0.223-0.277-0.106-0.468c3.113-0.259,5.629,1.884,4.765,4.284
		c-1.096,3.045-2.556,5.958-3.857,8.928C56.786,15.365,56.485,15.108,56.519,14.459z"/>
	<path style="fill-rule:evenodd;clip-rule:evenodd;" d="M50.312,35.936c0.483,0.062,0.967,0.124,1.45,0.187
		c-1.631,6.692-6.604,11.536-11.446,11.151c0.537-1,1.909-1.212,2.256-2.391C45.515,42.214,48.506,39.587,50.312,35.936z"/>
	<path style="fill-rule:evenodd;clip-rule:evenodd;" d="M53.386,94.937c0.381-1.87,2.199-2.702,3.241-4.295
		c-1.344-0.66-2.563-1.261-3.78-1.863c1.965-1.364,3.84-0.675,5.705,0.238c0.477,1.46,3.146,1.533,2.388,3.774
		c-0.838,1.105-2.155,1.572-3.203,2.401C56.295,94.974,54.771,96.146,53.386,94.937z"/>
	<path style="fill-rule:evenodd;clip-rule:evenodd;" d="M15.366,91.018c-5.521-1.932-8.227-0.766-8.778,3.783
		c-0.75-0.017-1.499-0.033-2.249-0.05c-0.629-1.896-0.69-3.685,0.966-5.151c3.111-0.862,6.667,0.349,9.455-2.026
		c0.827,0.174,1.268,0.72,1.454,1.512C16.268,89.876,16.1,90.573,15.366,91.018z"/>
	<path style="fill-rule:evenodd;clip-rule:evenodd;" d="M15.366,91.018c0.146-0.64,0.291-1.278,0.438-1.918
		c1.001-1.357,2.448-1.87,4.031-2.127c0.245-0.07,0.495-0.106,0.751-0.109c1.334,1.54,1.595,3.328,1.216,5.264
		c-1.436,1.752-3.323,1.369-5.188,1.093C16.197,92.486,15.782,91.752,15.366,91.018z"/>
	<path style="fill-rule:evenodd;clip-rule:evenodd;" d="M28.47,70.283c-1.344-4.703-0.032-9.804-2.32-14.419
		c-0.832-1.678,0.275-3.444,1.311-4.945c1.918,1.758,0.551,4.324,1.551,6.309c0.647,4.139,1.111,8.292,0.915,12.493
		C29.564,70.228,29.079,70.416,28.47,70.283z"/>
	<path style="fill-rule:evenodd;clip-rule:evenodd;" d="M21.685,85.69c-0.027-2.013,1.965-2.443,2.9-3.703
		c0.926-0.821,1.933-0.905,3.012-0.336c1.574,2.559,1.002,4.516-1.649,5.89c-1.274,0.309-2.42-0.041-3.498-0.713
		C22.063,86.539,21.802,86.163,21.685,85.69z"/>
	<path style="fill-rule:evenodd;clip-rule:evenodd;" d="M28.513,56.984c-1.82-1.768-0.517-4.075-1.053-6.065
		c0.532-3.007-2.648-2.483-3.744-3.94c1.889-1.4,3.415-0.687,4.805,0.82C29.339,50.861,29.35,53.922,28.513,56.984z"/>
	<path style="fill-rule:evenodd;clip-rule:evenodd;" d="M28.47,70.283c0.255-0.141,0.51-0.281,0.764-0.421
		c1.342,0.588,0.607,1.798,0.817,2.724c-0.04,1.033,0.438,2.006,0.371,3.045c-0.22,1.522-0.656,2.971-1.538,4.258
		c-0.431,0.345-0.901,0.411-1.411,0.199c-0.526-0.716-0.452-1.385,0.16-2.011C28.188,75.509,27.295,72.785,28.47,70.283z"/>
	<path style="fill-rule:evenodd;clip-rule:evenodd;" d="M47.175,88.042c-2.595-1.667-6.947,1.121-8.443-3.331
		c2.493,2.377,6.32-0.31,8.751,2.305C48.051,87.559,47.948,87.902,47.175,88.042z"/>
	<path style="fill-rule:evenodd;clip-rule:evenodd;" d="M62.538,90.971c0.021,1.623,2.374,4.313-1.831,4.003
		c-0.732-0.654-0.727-1.356-0.132-2.095c-0.675-1.287-1.35-2.575-2.023-3.863C59.88,89.668,61.209,90.32,62.538,90.971z"/>
	<path style="fill-rule:evenodd;clip-rule:evenodd;" d="M56.519,14.459c0.301,0.256,0.603,0.513,0.903,0.769
		c-0.082,0.202-0.075,0.399,0.02,0.592c-0.229,2.648-1.543,4.879-2.765,7.145C54.313,19.917,54.728,17.04,56.519,14.459z"/>
	<path style="fill-rule:evenodd;clip-rule:evenodd;" d="M19.835,86.973c-0.828,1.688-2.287,2.181-4.033,2.127
		c-0.348-0.507-0.696-1.014-1.044-1.523C16.227,85.48,17.935,85.411,19.835,86.973z"/>
	<path style="fill-rule:evenodd;clip-rule:evenodd;" d="M21.375,91.637c-0.263-1.591-0.526-3.182-0.789-4.772
		c0.366-0.392,0.732-0.782,1.099-1.174c0-0.001,0.02,0.097,0.02,0.097c0.99,1.874,1.598,4.188,4.479,3.882
		c0.181,0.136,0.358,0.274,0.536,0.413c-0.191,0.641-0.382,1.281-0.572,1.922C24.513,92.443,22.843,93.356,21.375,91.637z"/>
	<path style="fill-rule:evenodd;clip-rule:evenodd;" d="M5.305,89.6c-0.321,1.718-0.642,3.436-0.964,5.153
		C3.102,92.742,0.05,90.393,5.305,89.6z"/>
	<path style="fill-rule:evenodd;clip-rule:evenodd;" d="M12.526,35.06c-0.029,0.341-0.06,0.681-0.09,1.022
		c-3.135-0.734-3.76-3.632-5.096-5.916c0.181-0.152,0.364-0.305,0.549-0.456C10.899,30.224,10.972,33.286,12.526,35.06z"/>
	<path style="fill-rule:evenodd;clip-rule:evenodd;" d="M27.633,78.077c0.04,0.559,0.08,1.116,0.12,1.675
		c0.426,0.745,0.362,1.425-0.269,2.03c-0.966,0.068-1.933,0.137-2.899,0.205C24.243,79.625,25.612,78.597,27.633,78.077z"/>
	<path style="fill-rule:evenodd;clip-rule:evenodd;" d="M42.571,44.883c0.275,1.764-0.944,2.119-2.255,2.391
		c-1.388-0.288-1.756,1.238-2.795,1.57c0.043-0.731,0.085-1.463,0.128-2.194C39.239,45.917,41.384,46.734,42.571,44.883z"/>
	<path style="fill-rule:evenodd;clip-rule:evenodd;" d="M6.868,1.752c-0.245-0.139-0.39-0.348-0.437-0.625
		c2.275,0.282,4.628-1.139,6.853,0.297C11.186,2.379,9.036,2.254,6.868,1.752z"/>
	<path style="fill-rule:evenodd;clip-rule:evenodd;" d="M47.175,88.042c0.103-0.342,0.205-0.684,0.308-1.025
		c1.235,0.869,2.052,2.324,3.682,2.638C49.247,90.562,47.984,89.86,47.175,88.042z"/>
	<path style="fill-rule:evenodd;clip-rule:evenodd;" d="M9.63,6.112c-1.889,1.533-1.516,3.297-0.819,5.329
		c1.438,4.198,3.473,8.299,2.845,12.963c-2.078-2.876-1.826-6.751-4.087-9.552c-1.708-0.594-1.861-2.096-2.095-3.556
		C5.329,9.87,4.686,8.511,4.852,7.037c0.111-0.479,0.344-0.895,0.69-1.243C6.905,5.899,8.267,6.005,9.63,6.112z"/>
	<path style="fill-rule:evenodd;clip-rule:evenodd;" d="M29.623,73.461c-0.13-1.199-0.259-2.398-0.39-3.599
		c-0.24-4.294-0.48-8.587-0.721-12.879c0.003-3.062,0.007-6.121,0.009-9.184c2.115,6.744,1.593,13.741,1.943,20.653
		c0.074,1.468,0.006,2.941,0.003,4.412C30.336,73.277,30.055,73.475,29.623,73.461z"/>
	<path style="fill-rule:evenodd;clip-rule:evenodd;" d="M12.526,35.06c-2.47-0.981-2.25-4.297-4.637-5.35
		c-1.222-4.572-2.443-9.145-3.664-13.718c0.309-0.303,0.681-0.421,1.107-0.379C5.941,15.89,6.149,16.505,6.501,17
		C6.318,23.75,10.678,28.987,12.526,35.06z"/>
	<path style="fill-rule:evenodd;clip-rule:evenodd;" d="M29.623,73.461c0.282-0.198,0.563-0.396,0.845-0.596
		c0.916,2.918,2.648,5.254,5.058,7.109c-0.026,1.62-0.721,2.931-1.874,4.025c-1.258-0.469-0.237-2.275-1.595-2.692
		c-0.412-0.072-0.724-0.281-0.967-0.608c-0.762-1.48-1.094-3.073-1.279-4.705C29.748,75.151,29.686,74.306,29.623,73.461z"/>
	<path style="fill-rule:evenodd;clip-rule:evenodd;" d="M6.501,17c-0.41-0.386-0.82-0.771-1.229-1.157
		c-1.892-1.664-1.091-3.78-0.972-5.783c1.413-0.811,1.764,0.331,2.248,1.225c0.341,1.19,0.681,2.381,1.021,3.569
		C6.723,15.325,6.632,16.171,6.501,17z"/>
	<path style="fill-rule:evenodd;clip-rule:evenodd;" d="M20.675,38.164c1.853-0.3,1.935-1.619,1.773-3.079
		c1.712,0.611,1.915,2.192,2.336,3.635c0.122,1.78-0.869,1.855-2.188,1.427C21.564,39.865,20.282,39.827,20.675,38.164z"/>
	<path style="fill-rule:evenodd;clip-rule:evenodd;" d="M19.449,29.822c-1.619-1.936-2.51-4.047-1.587-6.592
		C19.61,25.137,19.573,27.469,19.449,29.822z"/>
	<path style="fill-rule:evenodd;clip-rule:evenodd;" d="M56.621,2.485c2.074,3.176,1.411,6.376,0.08,9.582
		c-0.095-2.692-0.189-5.385-0.284-8.076C56.484,3.489,56.553,2.987,56.621,2.485z"/>
	<path style="fill-rule:evenodd;clip-rule:evenodd;" d="M22.597,40.146c0.898-0.215,1.733-0.529,2.188-1.426
		c0.952,0.022,2.007,0.034,2.271,1.173c0.234,1.005-0.838,1.159-1.412,1.619c-1.179,0.206-2.344,0.37-3.078-0.916L22.597,40.146z"/>
	<path style="fill-rule:evenodd;clip-rule:evenodd;" d="M16.123,32.905c2.602,0.151,2.922,2.104,3.217,4.074
		C17.76,36.022,16.99,34.425,16.123,32.905z"/>
	<path style="fill-rule:evenodd;clip-rule:evenodd;" d="M22.566,40.596c1.026,0.304,2.053,0.608,3.078,0.914
		C23.872,43.712,23.146,42.401,22.566,40.596z"/>
	<path style="fill-rule:evenodd;clip-rule:evenodd;" d="M31.604,80.282c0.291,0.29,0.583,0.581,0.875,0.871
		c0.248,0.215,0.368,0.457,0.36,0.728c-0.009,0.285-0.044,0.427-0.105,0.427c0.112,2.937-1.623,4.859-3.643,6.625
		c-0.571,0.837-1.438,1.063-2.372,1.15l-0.436-0.229c-0.822-0.756-1.962-1.327-1.611-2.766c3.111-0.617,2.965-2.959,2.813-5.307
		c0.088-0.677,0.177-1.353,0.267-2.029c0.267,0.066,0.528,0.051,0.785-0.047C29.606,79.645,30.616,79.906,31.604,80.282z"/>
	<path style="fill-rule:evenodd;clip-rule:evenodd;" d="M52.58,95.113c-0.005,0.227-0.005,0.453,0.001,0.68
		c-7.338-0.003-14.677-0.006-22.015-0.009c0-0.221,0.001-0.44,0.001-0.661C37.905,95.12,45.242,95.117,52.58,95.113z"/>
	<path style="fill-rule:evenodd;clip-rule:evenodd;" d="M21.375,91.637c1.594,0.119,3.188,0.24,4.776,0.363
		c-2.954,2.201-6.113,2.761-9.538,1.219C18.323,93.06,20.113,93.142,21.375,91.637z"/>
	<path style="fill-rule:evenodd;clip-rule:evenodd;" d="M29.092,88.932c1.066-2.234,2.134-4.47,3.2-6.703
		c1.284,1.212,0.798,2.563,0.308,3.914C32.175,88.01,30.572,88.394,29.092,88.932z"/>
	<path style="fill-rule:evenodd;clip-rule:evenodd;" d="M32.6,86.143c-0.103-1.309-0.206-2.616-0.308-3.92
		c0.063-0.354,0.125-0.712,0.188-1.07c2.225,0.196,0.535,2,1.171,2.848C33.301,84.715,32.95,85.429,32.6,86.143z"/>
	<path style="fill-rule:evenodd;clip-rule:evenodd;" d="M18.486,95.806c0.046-0.235,0.053-0.471,0.021-0.708
		c2.047,0.002,4.095,0.004,6.142,0.006c0.254,0.152,0.341,0.309,0.261,0.469c-0.08,0.161-0.162,0.242-0.245,0.242
		C22.604,95.812,20.545,95.809,18.486,95.806z"/>
	<path style="fill-rule:evenodd;clip-rule:evenodd;" d="M24.664,95.815c-0.057-0.236-0.062-0.473-0.016-0.711
		c1.973,0.006,3.946,0.013,5.919,0.019c0,0.221,0,0.44-0.001,0.661C28.599,95.794,26.632,95.804,24.664,95.815z"/>
	<path style="fill-rule:evenodd;clip-rule:evenodd;" d="M5.542,5.793c-0.077,0.388-0.154,0.775-0.23,1.164
		C4.917,7.67,5.27,8.625,4.572,9.241C4.153,9.422,3.792,9.354,3.494,9L3.527,8.99C2.457,6.715,3.759,4.817,4.5,2.829
		c0.329-0.732,0.789-1.197,1.659-0.812C5.951,3.277,5.747,4.535,5.542,5.793z"/>
	<path style="fill-rule:evenodd;clip-rule:evenodd;" d="M4.5,2.829C4.177,4.882,3.852,6.935,3.527,8.99
		C1.764,6.606,1.877,4.519,4.5,2.829z"/>
	<path style="fill-rule:evenodd;clip-rule:evenodd;" d="M3.494,9c0.298-0.033,0.597-0.042,0.896-0.026
		c0.335,0.157,0.49,0.364,0.469,0.623c-0.024,0.285-0.08,0.427-0.168,0.427c0.194,1.941,0.389,3.881,0.582,5.82
		c-0.351,0.049-0.699,0.1-1.048,0.149C2.95,13.77,3.437,11.363,3.494,9z"/>
	<path style="fill-rule:evenodd;clip-rule:evenodd;" d="M60.575,92.879c0.044,0.698,0.087,1.396,0.131,2.095
		c-1.067-0.119-2.136-0.238-3.206-0.36C57.882,92.893,59.207,92.849,60.575,92.879z"/>
	<path style="fill-rule:evenodd;clip-rule:evenodd;" d="M24.673,87.088c0.301,1.06,2.4,1.071,1.612,2.766
		c-5.143,2.717-4.509-1.073-4.581-4.066C23.05,85.408,23.662,86.704,24.673,87.088z"/>
	<path style="fill-rule:evenodd;clip-rule:evenodd;" d="M31.604,80.282c-1.17,0.601-2.273,0.841-3.067-0.574
		c0.177-1.325,0.225-2.692,1.273-3.715C30.409,77.423,31.007,78.853,31.604,80.282z"/>
	<path style="fill-rule:evenodd;clip-rule:evenodd;" d="M4.691,10.024c-0.1-0.35-0.2-0.699-0.3-1.049
		c0.307-0.674,0.613-1.347,0.92-2.019c0.411,1.44,0.823,2.881,1.235,4.324C5.929,10.864,5.311,10.444,4.691,10.024z"/>
</g>
</svg>
