<?xml version="1.0" encoding="iso-8859-1"?>
<!-- Generator: Adobe Illustrator 16.0.0, SVG Export Plug-In . SVG Version: 6.00 Build 0)  -->
<!DOCTYPE svg PUBLIC "-//W3C//DTD SVG 1.1//EN" "http://www.w3.org/Graphics/SVG/1.1/DTD/svg11.dtd">
<svg version="1.1" id="Layer_1" xmlns="http://www.w3.org/2000/svg" xmlns:xlink="http://www.w3.org/1999/xlink" x="0px" y="0px"
	 width="100px" height="85.957px" viewBox="0 0 100 85.957" style="enable-background:new 0 0 100 85.957;" xml:space="preserve">
<g>
	<path style="fill-rule:evenodd;clip-rule:evenodd;" d="M1.464,36.979c13.168,0.072,26.338,0.146,39.507,0.216
		c0.254,0.002,0.508-0.062,0.764-0.065c5.351-0.085,5.167-0.079,5.337,5.312c0.197,6.232,0.625,12.45-0.595,18.629
		c-0.771,0.269-0.195,1.224-0.804,1.575c-0.894-0.783-0.782-1.836-0.726-2.851c0.362-6.49-0.62-13.015,0.578-19.489
		c0.518-2.799-1.839-2.345-3.276-2.371c-4.855-0.092-9.714,0.059-14.571,0.068c-7.803,0.017-15.606,0.027-23.408-0.045
		c-1.025-0.01-2.327,0.682-3.1-0.683C1.269,37.177,1.366,37.078,1.464,36.979z"/>
	<path style="fill-rule:evenodd;clip-rule:evenodd;" d="M98.692,32.118c-6.122,0.164-12.244,0.397-18.368,0.457
		c-2.422,0.023-2.316-2.216-2.411-3.711c-0.206-3.215-0.809-6.285-2.088-9.232c0.063-2.636-1.075-4.699-3.032-6.375
		c-1.396-1.523-2.796-3.047-4.195-4.572c3.73-0.065,5.119,3.058,7.148,5.286c1.531,1.683,0.732,4.825,2.076,5.788
		c2.414,1.728,1.755,3.772,1.727,5.712c-0.098,6.501-0.207,6.149,6.634,5.826C90.305,31.102,94.662,29.944,98.692,32.118z"/>
	<path style="fill-rule:evenodd;clip-rule:evenodd;" d="M33.621,6.391c-3.5,3.485-7.016,6.92-9.285,11.449
		c-1.653,3.304-1.911,7.112-3.967,10.233c-0.542-0.127-0.85-0.443-0.836-1.022c1.295-6.888,4.146-12.968,9.293-17.842
		C30.201,7.906,31.443,6.343,33.621,6.391z"/>
	<path style="fill-rule:evenodd;clip-rule:evenodd;" d="M51.177,62.697c-0.03-7.638-0.065-15.274-0.086-22.912
		c-0.003-0.978-0.316-2.103,1.011-2.565c0.77,7.254,0.149,14.537,0.488,21.797c0.063,1.367-0.16,2.512-0.791,3.648
		C51.608,62.997,51.401,63.023,51.177,62.697z"/>
	<path style="fill-rule:evenodd;clip-rule:evenodd;" d="M40.22,66.833c2.419,5.221,5.903,9.979,6.88,15.827
		c-0.807,0.567-1.373,0.51-1.576-0.583c-0.882-4.762-4.099-8.598-5.276-13.224c-0.343-1.351-2.001-1.078-2.236-2.319
		C38.822,66.087,39.61,65.799,40.22,66.833z"/>
	<path style="fill-rule:evenodd;clip-rule:evenodd;" d="M52.595,76.363c1.949-2.471,3.898-4.939,5.848-7.41
		c0.624-0.183,0.946,0.153,1.159,0.676c-1.807,3.006-2.748,6.769-6.82,7.79C52.258,77.147,52.195,76.796,52.595,76.363z"/>
	<path style="fill-rule:evenodd;clip-rule:evenodd;" d="M52.595,76.363c0.062,0.352,0.122,0.703,0.185,1.056
		c-1.538,1.512-0.924,3.737-1.939,5.561c-1.553,2.789-2.247,1.923-3.261-0.116C50.531,81.681,49.882,77.726,52.595,76.363z"/>
	<path style="fill-rule:evenodd;clip-rule:evenodd;" d="M1.464,36.979c-0.091,0.105-0.188,0.204-0.292,0.296
		c-0.7-5.146-0.7-5.166,4.336-5.139c1.722,0.01,3.442,0.149,5.146,0.231c-1.369,0.076-2.758,0.394-4.063,0.181
		C2.992,31.961,1.285,33.316,1.464,36.979z"/>
	<path style="fill-rule:evenodd;clip-rule:evenodd;" d="M45.673,62.646c0.381-0.467-0.814-1.738,0.804-1.574
		c-0.342,1.642,3.362,4.837-1.774,4.637C45.318,64.779,45.874,63.831,45.673,62.646z"/>
	<path style="fill-rule:evenodd;clip-rule:evenodd;" d="M19.533,27.051c0.278,0.341,0.557,0.683,0.835,1.023
		c-1.613,1.305-0.525,5.344-4.402,4.358C19.096,31.921,17.803,28.485,19.533,27.051z"/>
	<path style="fill-rule:evenodd;clip-rule:evenodd;" d="M61.866,63.52c1.911-0.735,2.694,0.467,2.595,1.957
		c-0.113,1.698-1.514,0.692-2.404,0.669C61.493,65.307,60.982,64.463,61.866,63.52z"/>
	<path style="fill-rule:evenodd;clip-rule:evenodd;" d="M40.22,66.833c-0.736-0.099-1.472-0.199-2.208-0.299
		c-0.805-0.899-2.036-1.701-0.715-3.093c0.278-0.207,0.515-0.155,0.713,0.119C38.747,64.651,39.483,65.743,40.22,66.833z"/>
	<path style="fill-rule:evenodd;clip-rule:evenodd;" d="M61.866,63.52c0.067,0.876,0.134,1.751,0.194,2.628
		c-0.109,0.223-0.312,0.329-0.611,0.317c-0.459,0.505-0.896,0.487-1.314-0.051c-0.194-0.2-0.388-0.402-0.582-0.602
		C60.467,65.191,60.459,63.642,61.866,63.52z"/>
	<path style="fill-rule:evenodd;clip-rule:evenodd;" d="M51.177,62.697c0.208-0.008,0.415-0.019,0.622-0.031
		c0.102,1.502,0.158,3.035,2.131,3.343C51.149,66.094,51.125,66.063,51.177,62.697z"/>
	<path style="fill-rule:evenodd;clip-rule:evenodd;" d="M60.135,66.414c0.438,0.017,0.876,0.034,1.314,0.051
		c-0.271,1.256-0.705,2.418-1.849,3.164c-0.384-0.226-0.77-0.451-1.157-0.676C59.223,68.251,60.069,67.593,60.135,66.414z"/>
	<path style="fill-rule:evenodd;clip-rule:evenodd;" d="M38.01,63.561c-0.236-0.055-0.474-0.095-0.714-0.118
		c-0.243-0.538-0.804-1.249,0.177-1.477c1.144-0.265,2.003,0.197,2.041,1.56C39.012,63.537,38.51,63.549,38.01,63.561z"/>
	<path style="fill-rule:evenodd;clip-rule:evenodd;" d="M98.939,35.551c-0.116-1.142-0.167-2.288-0.247-3.433
		c-5.597-0.775-11.212,0.031-16.822-0.141c-2.941-0.09-3.674-1.353-3.372-3.671c0.401-3.086-0.588-5.755-1.887-8.406
		c-0.688-2.434-1.666-4.727-3.178-6.771c-1.387-1.729-2.618-3.623-4.838-4.445c-1.814-1.432-3.626-2.885-5.498-4.22
		c-2.178-1.55-4.975-0.369-6.044-1.604c-2.661-3.072-5.808-1.449-8.705-1.987c-2.234-0.414-2.284,2.884-4.36,2.375
		c-4.104-1.007-7.143,1.342-10.368,3.144c-3.922,2.571-6.947,5.917-9.305,10.002c-2.023,3.506-2.516,7.529-4.257,11.104
		c-1.58,1.468-0.692,4.977-4.087,4.938c-1.779-0.021-3.558-0.043-5.336-0.065c-1.633-0.079-3.268-0.077-4.903-0.073
		c-4.829,0.012-4.932,0.153-3.809,5.226c1.393,0.247,2.802,0.12,4.203,0.121c12.258,0.012,24.517,0.037,36.775-0.021
		c2.223-0.01,3.797,0.258,3.517,3.061c-0.636,6.364-0.064,12.759-0.32,19.146c-1.017,1.835,2.051,4.633-1.391,5.883
		c-2.211,0.413-3.921-0.364-5.192-2.185c-0.448-0.509-0.976-0.513-1.546-0.243c-0.652,1.888,0.885,2.715,1.853,3.816
		c2.474,5.166,4.932,10.338,7.28,15.562c0.206-0.04,0.367,0.027,0.482,0.203c1.982-0.011,2.811-1.401,3.277-2.98
		c0.363-1.229,0.799-2.313,1.892-3.048c2.838-1.849,3.838-5.216,6.174-7.48c0.729-0.721,1.463-1.437,1.641-2.517
		c-0.104-0.574-0.576-0.783-1.014-1.025c-1.875,0.065-3.75,0.132-5.625,0.198c-3.728-0.142-2.271-2.734-2.213-4.661
		c0.266-6.357,0.035-12.726,0.124-19.091c0.023-1.678-1.234-3.438,0.263-5.039c1.213-0.511,2.195,0.51,3.315,0.506
		c13.765-0.046,27.529-0.148,41.293-0.127C98.367,37.602,99.113,37.266,98.939,35.551z M74.111,31.508
		c-1.604,1.4-3.604,0.856-5.374,0.858c-13.35,0.013-26.699-0.139-40.049-0.214c-1.235-0.007-2.373,0.899-3.676,0.474
		c-0.945-1.114-1.744-2.263-0.916-3.804l0.139,0.033c1.77-1.419,2.488-3.35,3.02-5.505c1.174-4.758,4.447-8.41,6.924-12.479
		c0.895-0.454,1.671-1.018,1.933-2.064c1.231-0.934,2.99,0.36,4.124-0.979c1.303-3.646,4.383-1.272,6.533-1.68
		c2.374-0.451,4.999,0.227,7.426-0.668c1.22-0.448,2.1,0.153,2.59,1.02c0.691,1.22,1.791,1.682,2.923,2.198
		c1.339,0.552,2.604,1.291,4.036,1.614c0.381,0.174,0.763,0.348,1.145,0.521c2.03,2.061,2.989,4.886,4.973,6.979
		c0.168,0.318,0.283,0.658,0.363,1.007c-0.064,1.728,1.07,2.868,2.02,4.104c0.729,1.529-0.022,3.366,1.016,4.829
		C73.59,28.993,74.809,30.036,74.111,31.508z"/>
	<path style="fill-rule:evenodd;clip-rule:evenodd;" d="M34.18,10.871c-0.392,4.22-4.353,6.646-5.353,10.691
		c-0.33,1.334-0.662,2.866-1.173,4.259c-0.645,1.752-1.571,2.813-3.417,3.034c-0.143-0.568-0.175-1.116,0.287-1.574
		c2.204-1.825,2.051-4.548,2.662-6.98l-0.047,0.049c0.951-0.852,1.166-2.054,1.523-3.189C30.134,14.741,31.996,12.664,34.18,10.871z
		"/>
	<path style="fill-rule:evenodd;clip-rule:evenodd;" d="M72.706,28.009c-1.866-1.488-0.356-3.556-0.905-5.271
		c-1.441-0.916-1.537-2.603-2.26-3.931c-0.058-0.218-0.087-0.44-0.089-0.666c-0.228-1.488-2.657-2.228-1.435-4.21
		c2.795,2.129,3.304,5.502,4.597,8.448C73.158,24.248,73.304,26.123,72.706,28.009z"/>
	<path style="fill-rule:evenodd;clip-rule:evenodd;" d="M68.018,13.932c-0.445,1.718,1.854,2.5,1.436,4.21
		c-2.488-1.833-3.354-4.678-4.564-7.31C66.436,11.355,67.281,12.588,68.018,13.932z"/>
	<path style="fill-rule:evenodd;clip-rule:evenodd;" d="M72.706,28.009c-0.03-1.874-0.062-3.748-0.092-5.625
		c0.797,2.99,2.64,5.813,1.497,9.124C73.643,30.343,73.174,29.176,72.706,28.009z"/>
	<path style="fill-rule:evenodd;clip-rule:evenodd;" d="M72.793,13.257c3.246,1.062,3.696,3.453,3.032,6.374
		C74.814,17.507,73.804,15.382,72.793,13.257z"/>
	<path style="fill-rule:evenodd;clip-rule:evenodd;" d="M27.185,20.301c-0.205,2.587,0.884,5.665-2.661,6.979
		C25.411,24.954,26.298,22.627,27.185,20.301z"/>
	<path style="fill-rule:evenodd;clip-rule:evenodd;" d="M63.744,10.312c-1.939,0.943-2.992-0.329-4.037-1.614
		C61.772,7.438,62.606,9.256,63.744,10.312z"/>
	<path style="fill-rule:evenodd;clip-rule:evenodd;" d="M24.097,28.822c0.306,1.268,0.61,2.535,0.916,3.804
		C22.625,31.858,22.828,30.469,24.097,28.822z"/>
	<path style="fill-rule:evenodd;clip-rule:evenodd;" d="M28.661,17.16c0.368,1.481-0.361,2.438-1.523,3.189
		C27.121,19.036,27.729,18.021,28.661,17.16z"/>
	<path style="fill-rule:evenodd;clip-rule:evenodd;" d="M40.236,7.827c-1.201,1.058-2.663,1.011-4.124,0.979
		C37.228,7.389,38.886,8.259,40.236,7.827z"/>
	<path style="fill-rule:evenodd;clip-rule:evenodd;" d="M69.541,18.808c1.157,1.078,1.678,2.522,2.26,3.929
		C69.511,22.312,69.414,20.624,69.541,18.808z"/>
</g>
</svg>
