<?xml version="1.0" encoding="iso-8859-1"?>
<!-- Generator: Adobe Illustrator 16.0.0, SVG Export Plug-In . SVG Version: 6.00 Build 0)  -->
<!DOCTYPE svg PUBLIC "-//W3C//DTD SVG 1.1//EN" "http://www.w3.org/Graphics/SVG/1.1/DTD/svg11.dtd">
<svg version="1.1" id="Layer_1" xmlns="http://www.w3.org/2000/svg" xmlns:xlink="http://www.w3.org/1999/xlink" x="0px" y="0px"
	 width="94.224px" height="86.636px" viewBox="0 0 94.224 86.636" style="enable-background:new 0 0 94.224 86.636;"
	 xml:space="preserve">
<g>
	<path style="fill-rule:evenodd;clip-rule:evenodd;" d="M30.39,36.152c-0.71-0.226-1.421-0.453-2.131-0.68
		c-5.522,1.805-11.104-0.263-16.642,0.259c-1.484,0.13-2.89,0.673-4.363,0.865c-2.194-0.337-4.754-0.02-5.477-3.025l0.063-0.223
		c8.92,0.503,17.818-1.663,26.755-0.229c0.951,0.153,2.031,0.281,2.924-0.414c0.576-0.551,1.151-1.102,1.726-1.653
		c0.727-0.135,1.415-0.646,2.203-0.231c1.063,0.568,2.099,1.19,3.296,1.47c2.869,0.705,6.014-0.607,8.722,1.217
		c0.344,0.725,0.307,1.412-0.191,2.059c-4.218,1.847-8.753,0.146-13.042,1.182C32.809,37.474,31.5,37.441,30.39,36.152z"/>
	<path style="fill-rule:evenodd;clip-rule:evenodd;" d="M85.822,37.281l-0.197,0.165c-0.55,1.326-1.746,0.952-2.759,1.053
		c-1.446-1.189-2.533-3.565-4.985-1.52c-4.735,0.66-9.469,1.283-14.259,1.143c-1.861-0.055-3.824,0.101-5.127-1.684
		c-0.188-0.451-0.142-0.885,0.132-1.29c4.769-1.679,9.713-0.128,14.169-0.759c-4.227,0.397-8.854-0.566-13.45,0.26
		c-1.416,0.093-2.731-0.05-3.53-1.449c0.1-1.143,0.746-1.568,1.842-1.404c1.108,0.27,2.216,0.539,3.323,0.809
		c9.491-0.908,18.96,0.107,28.435,0.346c1.431,1.05,1.523,2.149-0.279,2.664C87.88,35.974,86.644,36.146,85.822,37.281z"/>
	<path style="fill-rule:evenodd;clip-rule:evenodd;" d="M31.519,32.707c-1.1,1.366-2.644,0.838-4.021,0.89
		c-5.435,0.203-10.885-0.488-16.305,0.766c-3.134,0.725-6.244-0.536-9.353-1.011c3.221-1.874,6.862-1.073,10.251-1.276
		C18.546,31.687,25.078,31.497,31.519,32.707z"/>
	<path style="fill-rule:evenodd;clip-rule:evenodd;" d="M26.095,79.247c-1.636,0.912-3.427,1.609-4.535,3.256
		c-1.271,0.615-1.851,2.127-3.288,2.527c-0.583-0.381-1.166-0.764-1.749-1.146c-0.727-1.631,0.075-2.855,1.073-4.027l0.048,0.029
		c1.47-0.727,1.484-2.9,3.276-3.309c1.556-0.199,2.831-1.414,4.487-1.258C26.432,76.487,25.667,77.971,26.095,79.247z"/>
	<path style="fill-rule:evenodd;clip-rule:evenodd;" d="M62.925,52.694c-0.557,0.609-1.112,1.219-1.668,1.828
		c-0.253,1.018-0.956,1.654-1.831,2.146c-0.389,0.123-0.785,0.156-1.19,0.119c-0.407-0.102-0.763-0.297-1.082-0.568
		c-0.96-1.025-1.128-2.207-0.697-3.508c0.585-1.811,2.14-2.471,3.701-3.127c2.433-0.977,4.267-3.377,7.247-3.059
		c0.44,0.516,0.53,1.113,0.417,1.758C67.086,50.749,64.853,51.551,62.925,52.694z"/>
	<path style="fill-rule:evenodd;clip-rule:evenodd;" d="M64.92,81.584c-1.07-1.955-3.754-2.031-4.75-4.074
		c0.115-0.379,0.349-0.656,0.714-0.818c0.531-0.189,1.085-0.26,1.644-0.291c0.717-0.049,1.42-0.182,2.102-0.432
		c0.355-0.111,0.718-0.158,1.09-0.16c0.379,0.047,0.734,0.158,1.071,0.338c0.645,0.436,1.183,0.98,1.656,1.598
		c0.224,0.328,0.4,0.68,0.544,1.049c0.345,1.508,1.403,2.975,0.292,4.574c-0.241,0.121-0.494,0.166-0.762,0.137
		C67.275,82.95,66.237,82.004,64.92,81.584z"/>
	<path style="fill-rule:evenodd;clip-rule:evenodd;" d="M67.281,69.436c2.173,1.975,3.29,4.334,2.705,7.328
		c-0.27,1.387,1.212,1.9,1.496,2.775c0.46,1.408,2.943,3.547-0.599,4.557c-1.061-1.924-1.533-4.111-2.688-5.992l0.006,0.074
		c-0.528-0.824-0.77-1.744-0.893-2.697c-0.055-0.936-0.469-1.662-1.294-2.145c-0.465-0.381-0.729-0.855-0.708-1.469
		C65.728,70.866,65.496,69.329,67.281,69.436z"/>
	<path style="fill-rule:evenodd;clip-rule:evenodd;" d="M89.715,33.545c-9.578-0.314-19.156-0.626-28.734-0.94
		c6.39-1.515,12.869-0.299,19.298-0.636c2.686,0.681,5.421,0.107,8.122,0.337C89.073,32.364,90.358,31.998,89.715,33.545z"/>
	<path style="fill-rule:evenodd;clip-rule:evenodd;" d="M57.657,31.796c-0.536,0.281-1.072,0.562-1.608,0.843
		c-1.495,0.527-1.945-0.57-2.458-1.574c-0.305-1.042-0.277-2.121-0.346-3.188c-0.123-1.661-0.65-3.192-1.487-4.628
		c-0.351-0.564-0.644-1.152-0.841-1.79c-0.289-1.844-0.705-3.707,0.738-5.307c1.119,3.913,3.712,7.367,3.544,11.688
		C55.129,29.644,57.178,30.261,57.657,31.796z"/>
	<path style="fill-rule:evenodd;clip-rule:evenodd;" d="M89.715,33.545c-2.825-2.445-6.52,0.311-9.438-1.576
		c3.022-0.084,6.043-0.209,9.065-0.236c1.977-0.018,3.43,0.736,3.299,3.024c-0.13,2.272-1.652,1.631-3.123,1.59
		c-1.223-0.033-2.463,0.595-3.696,0.932c0.313-1.836,1.834-1.789,3.174-2.044C90.045,35.033,90.482,34.536,89.715,33.545z"/>
	<path style="fill-rule:evenodd;clip-rule:evenodd;" d="M51.655,16.153c0.019,1.864,0.037,3.729,0.056,5.593
		c0.256,0.53,0.088,0.79-0.497,0.78c-0.437-0.109-0.763-0.366-0.976-0.762c-0.16-0.393-0.266-0.804-0.327-1.224
		c0.067-3.361-0.75-6.47-2.683-9.259c-0.968-1.519-1.61-3.141-1.629-4.97c0.069-0.705,0.295-1.333,0.887-1.778
		C50.018,7.603,49.57,12.442,51.655,16.153z"/>
	<path style="fill-rule:evenodd;clip-rule:evenodd;" d="M64.896,62.329c-0.203,0.363-0.405,0.725-0.608,1.088
		c-0.053,0.535-0.321,0.92-0.806,1.156c-3.139,0.535-3.072-1.711-3.257-3.746c0.012-1.012,0.148-1.994,0.663-2.891
		C64.834,56.526,65.366,57.108,64.896,62.329z"/>
	<path style="fill-rule:evenodd;clip-rule:evenodd;" d="M40.22,11.487c0.369-0.809,0.739-1.616,1.107-2.424
		c0.878-0.239,1.475,0.263,2.072,0.775c0.437,0.433,0.779,0.925,0.989,1.509c0.124,0.404,0.197,0.815,0.235,1.235
		c-0.231,2.088,0.039,4.408-2.486,5.449c-1.215-0.78-1.571-2.073-2.005-3.323C39.879,13.628,39.697,12.546,40.22,11.487z"/>
	<path style="fill-rule:evenodd;clip-rule:evenodd;" d="M22.843,57.819c1.038-2.688,0.991-4.941-1.937-6.588
		c-1.041-0.586-1.642-1.951-2.444-2.959c0.734-0.652,1.567-0.59,2.428-0.34c0.597,0.262,1.074,0.676,1.484,1.174
		c1.002,1.811,3.322,2.584,3.813,4.809c0.193,1.105,0.146,2.182-0.407,3.195C24.942,57.922,24.069,58.606,22.843,57.819z"/>
	<path style="fill-rule:evenodd;clip-rule:evenodd;" d="M62.925,52.694c1.174-1.783,3.636-2.328,4.368-4.539
		c1.187-0.654,2.386-1.295,3.113-2.518c0.77-0.9,1.521-1.833,2.871-1.817c0.799,0.432,1.007,1.149,0.958,1.991
		C70.405,48.006,67.521,51.756,62.925,52.694z"/>
	<path style="fill-rule:evenodd;clip-rule:evenodd;" d="M10.622,42.115c-0.369-1.183-3.213-1.629-1.558-3.146
		c1.251-1.146,2.608,0.841,3.863,1.563c1.148,0.408,1.776,1.367,2.438,2.293c0.414,0.425,0.733,0.906,0.913,1.475
		c0.104,0.615,0.008,1.171-0.495,1.599C13.997,44.729,12.835,42.704,10.622,42.115z"/>
	<path style="fill-rule:evenodd;clip-rule:evenodd;" d="M20.646,77.172c-1.3,0.574-1,2.918-3.002,2.713
		c0.173-2.34,0.345-4.68,0.519-7.021c0.14-1.301,0.956-1.395,1.985-1.115c0.55,0.477,0.792,1.111,0.928,1.799
		C20.931,74.752,22.227,76.135,20.646,77.172z"/>
	<path style="fill-rule:evenodd;clip-rule:evenodd;" d="M64.896,62.329c-0.352-2.111,0.823-5.496-3.548-4.26
		c-0.999-0.096-1.87-0.355-1.999-1.564c0.636-0.66,1.271-1.322,1.907-1.982C63.609,56.592,67.666,57.87,64.896,62.329z"/>
	<path style="fill-rule:evenodd;clip-rule:evenodd;" d="M35.715,72.905c-2.776,2.664-6.204,4.369-9.401,6.412
		c-0.061-1.652,0.822-2.877,1.829-4.045c0.81-0.971,1.561-2.021,2.925-2.281c1.198-0.176,2.384-0.439,3.592-0.582
		C35.077,72.436,35.431,72.596,35.715,72.905z"/>
	<path style="fill-rule:evenodd;clip-rule:evenodd;" d="M61.552,77.028c-0.463,0.16-0.924,0.32-1.384,0.482
		c-1.104-0.518-2.209-1.037-3.315-1.555c-0.136-1.078-1.111-1.777-1.279-2.84c0.042-0.695,0.353-1.188,1.045-1.393
		c1.29,0.064,2.453,0.436,3.352,1.428C60.743,74.342,61.614,75.495,61.552,77.028z"/>
	<path style="fill-rule:evenodd;clip-rule:evenodd;" d="M52.717,71.879c-1.152-0.518-2.305-1.037-3.457-1.557
		c-1.049-0.723-2.354-1.227-2.386-2.814c0.19-0.723,0.677-1.104,1.397-1.221c1.864,0.158,3.581,0.619,4.7,2.305
		C53.411,69.729,53.498,70.838,52.717,71.879z"/>
	<path style="fill-rule:evenodd;clip-rule:evenodd;" d="M40.995,14.55c0.374,1.117,0.747,2.232,1.121,3.348
		c0.409,1.26-0.065,2.337-0.698,3.383c-1.96,0.77-2.313-0.904-3.048-2.004c-0.142-0.381-0.169-0.772-0.068-1.167
		c0.054-0.537,0.109-1.073,0.165-1.609C38.783,15.168,39.483,14.332,40.995,14.55z"/>
	<path style="fill-rule:evenodd;clip-rule:evenodd;" d="M67.281,69.436c-0.558,0.928-1.114,1.854-1.672,2.779
		c-0.427,0.137-0.836,0.098-1.232-0.111c-1.517-1.328-1.535-3.002-1.109-4.781c0.172-0.41,0.453-0.73,0.82-0.977
		c0.872-0.381,1.689-0.24,2.467,0.266C66.797,67.553,67.039,68.495,67.281,69.436z"/>
	<path style="fill-rule:evenodd;clip-rule:evenodd;" d="M78.299,42.389c-0.272,0.893-0.699,1.615-1.769,1.653
		c-0.889,0.063-1.717-0.055-2.35-0.773c-0.332-1.191,0.182-2.156,0.824-3.09c1.075-1.063,2.279-1.494,3.719-0.74
		c0.32,0.352,0.503,0.767,0.548,1.241C79.18,41.381,79.004,42.035,78.299,42.389z"/>
	<path style="fill-rule:evenodd;clip-rule:evenodd;" d="M78.299,42.389c0.205-0.579,0.409-1.158,0.615-1.737
		c0.582-1.522,1.165-3.044,3.257-2.83c1.218,0.489,2.337,0.066,3.454-0.375C83.729,39.903,81.053,41.203,78.299,42.389z"/>
	<path style="fill-rule:evenodd;clip-rule:evenodd;" d="M35.715,72.905c-0.28-0.039-0.561-0.055-0.843-0.047
		c-0.54-0.889-0.166-1.604,0.426-2.277c1.39-1.135,2.266-3.203,4.635-2.592c0.631,0.244,1.044,0.688,1.22,1.346
		C39.965,71.477,37.233,71.266,35.715,72.905z"/>
	<path style="fill-rule:evenodd;clip-rule:evenodd;" d="M52.717,71.879c-0.223-1.217-0.445-2.432-0.668-3.648
		c2.89-0.299,4.473,0.963,4.657,3.896c-0.27,0.193-0.537,0.387-0.805,0.578c-1.359,1.473-1.961-0.475-2.955-0.654L52.717,71.879z"/>
	<path style="fill-rule:evenodd;clip-rule:evenodd;" d="M29.508,75.262c-1.055,1.352-2.111,2.703-3.18,4.055
		c-0.014,0-0.228-0.072-0.23-0.07c-2.443-0.832-0.521-2.424-0.642-3.66c0.315-0.404,0.719-0.678,1.21-0.826
		C27.683,74.536,28.65,74.594,29.508,75.262z"/>
	<path style="fill-rule:evenodd;clip-rule:evenodd;" d="M33.422,30.13c0.236-1.874-1.536-4.376,1.67-5.318
		c0.578,0.165,0.985,0.532,1.261,1.058c0.205,0.54,0.258,1.097,0.179,1.665c-0.082,0.365-0.233,0.701-0.442,1.011
		C35.234,29.126,34.749,30.339,33.422,30.13z"/>
	<path style="fill-rule:evenodd;clip-rule:evenodd;" d="M1.777,33.571c1.195,2.125,3.5,2.021,5.417,2.698
		c0.32,0.223,0.415,0.527,0.313,0.899c-0.646,0.195-1.293,0.392-1.939,0.588c-0.79-1.164-2.058-1.455-3.295-1.807
		C0.599,35.476,0.768,34.609,1.777,33.571z"/>
	<path style="fill-rule:evenodd;clip-rule:evenodd;" d="M66.555,66.612c-0.869,0.102-1.738,0.203-2.606,0.303
		c-0.919-0.959-0.77-1.953-0.089-2.961c0.102-0.221,0.248-0.4,0.433-0.539C66.803,63.233,66.638,64.952,66.555,66.612z"/>
	<path style="fill-rule:evenodd;clip-rule:evenodd;" d="M42.748,10.283c-0.474-0.407-0.948-0.814-1.421-1.221
		c0.261-2.187-0.259-4.686,2.369-5.928c0.347,0.343,0.534,0.757,0.567,1.244C43.868,6.373,44.449,8.623,42.748,10.283z"/>
	<path style="fill-rule:evenodd;clip-rule:evenodd;" d="M43.939,3.866c-0.129-0.229-0.209-0.473-0.243-0.732
		c0.732-0.568,0.915-2.21,2.128-1.682c1.263,0.55,0.43,2.036,0.662,3.083c-0.047,0.623-0.093,1.247-0.139,1.87
		C44.316,6.724,44.49,4.951,43.939,3.866z"/>
	<path style="fill-rule:evenodd;clip-rule:evenodd;" d="M35.91,25.639c-0.273-0.275-0.546-0.55-0.819-0.827
		c-0.347-2.172,0.572-4.07,1.291-6.012c1.672,0.431,1.425,1.888,1.662,3.09C37.707,23.351,37.174,24.703,35.91,25.639z"/>
	<path style="fill-rule:evenodd;clip-rule:evenodd;" d="M40.995,14.55c-0.778,0.735-1.054,2.121-2.529,1.951
		c-1.204-2.297,0.917-3.429,1.754-5.012C40.479,12.508,40.737,13.529,40.995,14.55z"/>
	<path style="fill-rule:evenodd;clip-rule:evenodd;" d="M68.195,78.104c1.494,1.73,3.366,3.289,2.688,5.992
		c-0.756,0.248-1.138-0.33-1.601-0.729C68.92,81.614,68.558,79.858,68.195,78.104z"/>
	<path style="fill-rule:evenodd;clip-rule:evenodd;" d="M37.479,22.391c-0.366-1.197-0.731-2.394-1.097-3.591
		c0.481-0.666,1.077-1.019,1.918-0.694c0.001,0.003,0.188,0.208,0.188,0.208c0.493,1.411,1.071,2.81,0.504,4.343
		C38.319,23.543,37.826,23.384,37.479,22.391z"/>
	<path style="fill-rule:evenodd;clip-rule:evenodd;" d="M22.843,57.819c0.817-0.281,1.563-0.951,2.521-0.463
		c0.952,0.627,1.443,1.436,1.015,2.604c-0.82,0.541-1.581,1.459-2.662,0.443C22.766,59.764,22.61,58.858,22.843,57.819z"/>
	<path style="fill-rule:evenodd;clip-rule:evenodd;" d="M44.571,66.85c-0.513,0.035-1.024,0.068-1.536,0.102
		c-0.127-0.158-0.253-0.314-0.381-0.471c-0.052-1.26,0.207-2.42,1.075-3.391c0.411-0.117,0.804-0.082,1.181,0.127
		c1.006,1.283,2.394,2.42,1.719,4.365C45.611,68.272,45.179,67.317,44.571,66.85z"/>
	<path style="fill-rule:evenodd;clip-rule:evenodd;" d="M15.784,45.899c-0.002-0.604-0.006-1.207-0.009-1.809
		c1.983-0.707,3.159,0.614,4.408,1.752l-0.015-0.061c0.312,0.49,0.229,0.898-0.249,1.227c-1,0.473-1.902-0.072-2.837-0.273
		C16.649,46.456,16.217,46.178,15.784,45.899z"/>
	<path style="fill-rule:evenodd;clip-rule:evenodd;" d="M20.943,69.147c0.073-1.463,0.146-2.926,0.219-4.389
		c0.554-0.707,1.148-1.207,2.008-0.406c0.539,0.971,0.497,1.982,0.202,3.012c-0.207,0.59-0.523,1.119-0.917,1.604
		c-0.292,0.301-0.641,0.5-1.052,0.588C21.25,69.418,21.097,69.282,20.943,69.147z"/>
	<path style="fill-rule:evenodd;clip-rule:evenodd;" d="M44.571,66.85c0.659,0.232,1.318,0.463,1.978,0.695l0.371,0.006
		c0.779,0.924,1.558,1.848,2.338,2.771C47.087,69.989,45.062,69.456,44.571,66.85z"/>
	<path style="fill-rule:evenodd;clip-rule:evenodd;" d="M74.235,43.202c0.764,0.28,1.527,0.561,2.294,0.841
		c-0.764,0.588-1.528,1.178-2.293,1.768c-0.266-0.535-0.53-1.072-0.795-1.608C73.088,43.378,73.457,43.129,74.235,43.202z"/>
	<path style="fill-rule:evenodd;clip-rule:evenodd;" d="M52.946,72.051c0.986,0.219,1.973,0.438,2.957,0.656
		c0.556,1.012,1.681,1.857,0.949,3.248C55.668,74.538,53.255,74.348,52.946,72.051z"/>
	<path style="fill-rule:evenodd;clip-rule:evenodd;" d="M17.596,79.856c-0.357,1.346-0.715,2.688-1.072,4.029
		C14.752,81.973,15.226,80.663,17.596,79.856z"/>
	<path style="fill-rule:evenodd;clip-rule:evenodd;" d="M20.17,72.293c-0.792-0.242-1.433,0.043-2.006,0.572
		c-1.46-2.381,0.272-2.537,1.917-2.752C20.72,70.815,20.716,71.543,20.17,72.293z"/>
	<path style="fill-rule:evenodd;clip-rule:evenodd;" d="M41.153,69.334c-0.359-0.268-0.718-0.535-1.078-0.803
		c-0.191-0.365-0.187-0.732-0.017-1.105c0.679-0.77,1.396-1.416,2.496-0.711c0.117,0.164,0.278,0.244,0.48,0.236
		C42.864,68.106,42.225,68.891,41.153,69.334z"/>
	<path style="fill-rule:evenodd;clip-rule:evenodd;" d="M23.441,62.588c0.119-0.344,0.237-0.688,0.356-1.031
		c1.055-0.318,1.651,0.25,2.109,1.092c0.29,1.182,0.205,2.215-1.108,2.754c-0.455,0.064-0.876-0.029-1.262-0.279
		C23.226,64.29,22.929,63.456,23.441,62.588z"/>
	<path style="fill-rule:evenodd;clip-rule:evenodd;" d="M22.761,64.338c-0.532,0.141-1.065,0.283-1.599,0.422
		c-0.469-0.527-1-1.148-0.609-1.826c0.548-0.953,1.404-0.498,2.162-0.18C23.362,63.264,23.278,63.795,22.761,64.338z"/>
	<path style="fill-rule:evenodd;clip-rule:evenodd;" d="M25.675,62.502c-0.626-0.316-1.252-0.631-1.877-0.947
		c-0.027-0.383-0.054-0.766-0.081-1.152c0.736-0.25,1.473-0.498,2.209-0.746C27.292,60.733,27.238,61.684,25.675,62.502z"/>
	<path style="fill-rule:evenodd;clip-rule:evenodd;" d="M17.082,46.735c0.997,0.029,1.994,0.057,2.99,0.086
		c1.06,0.271,1.483,0.906,1.135,1.984c-0.916-0.178-1.83-0.355-2.744-0.533C18.002,47.76,17.542,47.247,17.082,46.735z"/>
	<path style="fill-rule:evenodd;clip-rule:evenodd;" d="M33.422,30.13c0.846-0.497,0.91-2.079,2.377-1.715
		c0.52,1.112,0.033,1.785-0.974,2.229c-0.496,0.255-0.813,1.201-1.581,0.408C33.303,30.746,33.363,30.438,33.422,30.13z"/>
	<path style="fill-rule:evenodd;clip-rule:evenodd;" d="M22.761,64.338c-0.015-0.529-0.029-1.061-0.044-1.586
		c0.211-0.18,0.453-0.234,0.724-0.166c0.164,0.842,0.328,1.684,0.491,2.521c0.378,0.973,0.813,1.965-0.795,2.229
		C23.012,66.336,22.887,65.336,22.761,64.338z"/>
	<path style="fill-rule:evenodd;clip-rule:evenodd;" d="M64.92,81.584c1.732-0.359,2.596,0.91,3.6,1.92
		C66.5,84.403,65.982,82.483,64.92,81.584z"/>
	<path style="fill-rule:evenodd;clip-rule:evenodd;" d="M18.272,85.03c1.187-0.725,1.444-2.656,3.287-2.527
		C20.766,83.739,20.281,85.374,18.272,85.03z"/>
	<path style="fill-rule:evenodd;clip-rule:evenodd;" d="M20.17,72.293c-0.03-0.725-0.059-1.451-0.089-2.178
		c0.287-0.324,0.575-0.645,0.862-0.969l0.284,0.191c0.661,0.688,0.686,1.555,0.696,2.43c-0.028,0.66-0.181,1.285-0.542,1.846
		c-0.355,0.33-0.718,0.338-1.088,0.025C20.251,73.19,20.21,72.743,20.17,72.293z"/>
	<path style="fill-rule:evenodd;clip-rule:evenodd;" d="M10.326,35.479c5.978-0.002,11.956-0.005,17.933-0.007
		c-2.368,2.453-5.435,1.402-8.093,1.217c-3.141-0.219-6.276-0.39-9.422-0.453C10.406,36.094,10.256,35.848,10.326,35.479z"/>
	<path style="fill-rule:evenodd;clip-rule:evenodd;" d="M24.293,47.426c1.962-0.91,2.174-2.902,2.883-4.603
		c0.577-1.387,0.665-3.302,2.934-3.12c0.759,1.687-0.962,2.827-0.94,4.351c-0.031,0.994,0.372,1.927,0.391,2.916
		c-0.063,0.924-0.456,1.625-1.34,1.998c-1.396,0.389-2.639,0.172-3.657-0.928C24.473,47.836,24.383,47.631,24.293,47.426z"/>
	<path style="fill-rule:evenodd;clip-rule:evenodd;" d="M20.183,45.842c-1.469-0.584-2.938-1.168-4.408-1.752
		c-0.277-0.299-0.555-0.6-0.832-0.897c0.151-0.55,0.476-0.895,1.078-0.907C18.311,42.416,19.654,43.652,20.183,45.842z"/>
	<path style="fill-rule:evenodd;clip-rule:evenodd;" d="M21.207,48.805c-0.379-0.662-0.757-1.324-1.135-1.986
		c0.032-0.344,0.064-0.691,0.096-1.037c1.832-0.592,2.353,2.105,4.127,1.646c0.101,0.154,0.178,0.322,0.228,0.502
		c-0.435,1.52-1.655,1.27-2.78,1.23C21.568,49.038,21.39,48.917,21.207,48.805z"/>
	<path style="fill-rule:evenodd;clip-rule:evenodd;" d="M30.39,36.152c0.951,0.082,1.905,1.199,2.853-0.008
		c0.335-0.273,0.689-0.288,1.06-0.078c0.313,0.865-0.137,1.51-0.611,2.151c-0.656,0.718-1.345,1.392-2.349,1.606
		c-0.183-0.053-0.368-0.107-0.553-0.16C30.657,38.494,30.523,37.324,30.39,36.152z"/>
	<path style="fill-rule:evenodd;clip-rule:evenodd;" d="M28.039,44.154c-0.522-2.047,1.738-2.8,2.07-4.451
		c0.229,0.004,0.455-0.008,0.681-0.039c0,0,0.208,0.229,0.208,0.229c0.218,0.363,0.355,0.756,0.418,1.175
		c0.062,0.868-0.052,1.698-0.545,2.443C30.066,44.339,29.198,44.893,28.039,44.154z"/>
	<path style="fill-rule:evenodd;clip-rule:evenodd;" d="M10.326,35.479c0.116,0.265,0.254,0.517,0.418,0.757
		c-0.787,1.326-1.883,1.58-3.238,0.932c-0.104-0.3-0.208-0.601-0.312-0.899C8.16,35.694,9.121,35.104,10.326,35.479z"/>
	<path style="fill-rule:evenodd;clip-rule:evenodd;" d="M16.021,42.285c-0.36,0.302-0.719,0.604-1.078,0.907
		c-0.672-0.888-1.344-1.773-2.016-2.66C14.493,40.173,15.381,41.009,16.021,42.285z"/>
	<path style="fill-rule:evenodd;clip-rule:evenodd;" d="M33.758,36.438c-0.169-0.102-0.34-0.2-0.515-0.293
		c4.571-1.958,9.389-0.182,14.04-0.924c2.322-2.632,4.327-1.395,6.278,0.513c-0.049,0.483-0.289,0.842-0.715,1.076
		C46.456,38.18,40.075,38.915,33.758,36.438z"/>
	<path style="fill-rule:evenodd;clip-rule:evenodd;" d="M53.542,36.095c-1.953-1.245-3.96-2.109-6.259-0.874
		c-0.002-0.539-0.006-1.076-0.009-1.613c1.115-1.148,2.783,0.177,3.919-0.878c0.765-0.649,1.236-1.617,2.217-2.03
		c0.459-0.024,0.738,0.198,0.861,0.631c0.592,0.437,1.184,0.873,1.776,1.309c0.871,0.589,1.742,1.179,2.612,1.767
		c-0.283,0.546-0.628,1.041-1.146,1.396C56.216,36.223,54.958,37.253,53.542,36.095z"/>
	<path style="fill-rule:evenodd;clip-rule:evenodd;" d="M51.653,32.914c-1.318,1.123-2.922,0.442-4.379,0.694
		c-3.185-0.426-6.505,0.808-9.593-0.785c4.303-1.496,8.632-0.674,12.958-0.148C51.102,32.228,51.439,32.307,51.653,32.914z"/>
	<path style="fill-rule:evenodd;clip-rule:evenodd;" d="M57.763,35.167c0.299-0.253,0.599-0.507,0.897-0.761
		c5.864-1.439,11.697-0.884,17.531-0.375c0.001,0.455,0.001,0.91,0.003,1.366c-5.905,0-11.811,0-17.716,0
		C58.125,35.681,57.886,35.604,57.763,35.167z"/>
	<path style="fill-rule:evenodd;clip-rule:evenodd;" d="M78.269,39.662c1.12-1.113,2.869-2.166,0.354-3.633
		c0.745-0.859,1.488-1.963,2.806-1.287c1.286,0.661,0.663,2.004,0.743,3.08c-1.088,0.944-2.174,1.888-3.259,2.831
		C78.698,40.321,78.483,39.992,78.269,39.662z"/>
	<path style="fill-rule:evenodd;clip-rule:evenodd;" d="M57.763,35.167c0.22,0.135,0.459,0.211,0.716,0.23
		c0.033,0.171-0.01,0.319-0.131,0.445c-2.271,0.289-2.479,1.822-2.206,3.646c-0.097,0.146-0.192,0.289-0.29,0.436
		c-0.353,0.075-0.69,0.042-1.019-0.114c-0.447-0.304-0.806-0.691-1.072-1.165c-0.285-0.664-0.52-1.334-0.151-2.047
		c-0.116-0.155-0.139-0.323-0.069-0.503C54.948,35.786,56.355,35.476,57.763,35.167z"/>
	<path style="fill-rule:evenodd;clip-rule:evenodd;" d="M58.454,48.713c0.007,0.979,0.892,1.283,1.419,1.859
		c-1.437,0.191-1.866,1.623-2.893,2.313c-0.174-0.131-0.349-0.262-0.526-0.389c-1.983-2.977-2.979-6.221-2.651-9.824
		c0.21-0.426,0.554-0.649,1.028-0.675c0.67,0.135,1.153,0.532,1.529,1.083c0.475,0.925,0.507,1.937,0.566,2.937
		c0.142,0.787,0.037,1.705,1.078,2.021C58.345,48.137,58.493,48.364,58.454,48.713z"/>
	<path style="fill-rule:evenodd;clip-rule:evenodd;" d="M60.503,61.2c-2.888-0.764-1.685-2.828-1.456-4.582
		c0.002-0.002,0.308-0.115,0.306-0.115c0.663,0.523,1.33,1.045,1.996,1.566c-0.14,0.93-0.278,1.859-0.417,2.789
		C60.789,60.971,60.646,61.086,60.503,61.2z"/>
	<path style="fill-rule:evenodd;clip-rule:evenodd;" d="M67.339,46.436c0.738-0.525,1.477-1.051,2.215-1.578
		c1.114-0.662,1.36,0.125,1.583,0.949c-0.609,1.883-1.468,3.355-3.843,2.35C67.309,47.583,67.323,47.008,67.339,46.436z"/>
	<path style="fill-rule:evenodd;clip-rule:evenodd;" d="M57.364,56.155l-0.075,0.086c-0.972,0.707-2.016,1.047-3.206,0.645
		c-2.133-1.539,0.298-1.936,0.704-2.846c0.518-0.604,0.937-1.348,1.871-1.395l0.322,0.24C56.689,54.024,56.832,55.112,57.364,56.155
		z"/>
	<path style="fill-rule:evenodd;clip-rule:evenodd;" d="M63.817,75.627c0.11-1.176,0.22-2.352,0.33-3.527
		c0.23-0.373,0.486-0.412,0.773-0.059c0.232,0.043,0.462,0.102,0.688,0.174c0.311,0.27,0.622,0.539,0.934,0.809
		c1.129,1.662,0.205,2.627-1.168,3.441l-0.253-0.068C64.279,76.833,63.854,76.559,63.817,75.627z"/>
	<path style="fill-rule:evenodd;clip-rule:evenodd;" d="M65.375,76.465c0.994-0.943,1.229-2.143,1.167-3.443
		c1.016-0.016,1.732,0.283,1.589,1.496c-0.564,0.736-0.15,2.227-1.699,2.201C66.079,76.633,65.727,76.549,65.375,76.465z"/>
	<path style="fill-rule:evenodd;clip-rule:evenodd;" d="M59.458,73.309c0.673,0.443,1.346,0.885,2.021,1.328
		c0.592,0.723,1.766,1.104,1.412,2.387c-0.447,0-0.894,0.002-1.34,0.004C60.794,75.823,59.661,74.827,59.458,73.309z"/>
	<path style="fill-rule:evenodd;clip-rule:evenodd;" d="M62.891,77.024c-0.472-0.797-0.943-1.594-1.413-2.389
		c0.78,0.33,1.561,0.66,2.34,0.99c0.434,0.258,0.868,0.516,1.303,0.771C64.504,77.053,63.718,77.114,62.891,77.024z"/>
	<path style="fill-rule:evenodd;clip-rule:evenodd;" d="M66.432,76.719c0.566-0.732,1.133-1.465,1.699-2.199
		c0.023,1.217,0.047,2.438,0.07,3.658C67.259,78.12,66.947,77.295,66.432,76.719z"/>
	<path style="fill-rule:evenodd;clip-rule:evenodd;" d="M52.554,22.997c0.849,1.495,1.727,2.983,1.157,4.819
		c0.097,1.266-0.355,1.962-1.75,1.68c-0.586-0.411-0.646-1.014-0.604-1.656C51.612,26.189,51.176,24.369,52.554,22.997z"/>
	<path style="fill-rule:evenodd;clip-rule:evenodd;" d="M52.554,22.997c-0.335,1.774,0.548,3.704-0.69,5.361
		c-0.421-0.258-0.725-0.617-0.918-1.071c-0.385-1.675-0.58-3.333,0.508-4.854c0.163-0.199,0.25-0.426,0.259-0.684
		C51.992,22.164,52.273,22.581,52.554,22.997z"/>
	<path style="fill-rule:evenodd;clip-rule:evenodd;" d="M52.541,29.202c0.391-0.465,0.782-0.929,1.172-1.389
		c0.185,1.173,0.371,2.344,0.558,3.516c-0.309-0.101-0.618-0.205-0.929-0.309C52.614,30.618,52.003,30.164,52.541,29.202z"/>
	<path style="fill-rule:evenodd;clip-rule:evenodd;" d="M43.939,3.866c1.372,0.307,1.469,1.824,2.409,2.539
		c0.458,1.51,0.916,3.02,1.375,4.529c0.771,0.222,0.84,0.798,0.741,1.462c-0.753,0.836-1.459,0.3-2.17-0.068
		c-0.897-0.679-1.634-1.678-2.968-1.507c-0.296-0.066-0.488-0.246-0.579-0.536C43.631,8.235,42.115,5.739,43.939,3.866z"/>
	<path style="fill-rule:evenodd;clip-rule:evenodd;" d="M47.927,12.747c-0.066-0.603-0.134-1.207-0.202-1.811
		c3.05,3.006,3.334,6.757,2.878,10.708c-1.25,0.063-2.17-0.486-2.828-1.522c-0.2-1.582-0.59-3.139-0.609-4.744
		C47.175,14.428,47.284,13.509,47.927,12.747z"/>
	<path style="fill-rule:evenodd;clip-rule:evenodd;" d="M48.255,20.458c0.782,0.394,1.565,0.79,2.348,1.185
		c-0.033,0.177-0.004,0.342,0.089,0.498c1.091,1.679-0.116,3.563,0.474,5.289c0,0.439-0.193,0.765-0.575,0.979
		c-2.216-1.859-2.521-4.376-2.413-7.032c-0.271-0.229-0.351-0.441-0.237-0.636C48.048,20.552,48.152,20.458,48.255,20.458z"/>
	<path style="fill-rule:evenodd;clip-rule:evenodd;" d="M50.785,27.415c-0.698-1.746-0.159-3.514-0.094-5.274
		c0.252,0.102,0.507,0.199,0.762,0.292c0.084,1.868,0.17,3.736,0.254,5.604C51.318,27.949,51.011,27.742,50.785,27.415z"/>
	<path style="fill-rule:evenodd;clip-rule:evenodd;" d="M60.503,61.2c0.076-0.207,0.22-0.324,0.43-0.344
		c0.192,1.775,0.067,3.848,2.927,3.1c0.03,0.984,0.059,1.971,0.089,2.959l-0.123-0.096c-0.365,0.365-0.537,0.926-1.109,1.076
		c-0.604-0.037-0.955-0.383-1.142-0.93C61.149,65.055,59.813,63.315,60.503,61.2z"/>
	<path style="fill-rule:evenodd;clip-rule:evenodd;" d="M43.327,10.82c1.515-1.563,2.221-0.091,3.075,0.819
		c0.471,0.583,0.535,1.207,0.189,1.873c-0.406,0.338-0.796,0.319-1.169-0.055c-0.465-0.618-0.486-1.632-1.541-1.72
		C43.697,11.432,43.513,11.127,43.327,10.82z"/>
	<path style="fill-rule:evenodd;clip-rule:evenodd;" d="M29.668,56.127c-1.358,3.176-3.126,6.205-3.35,9.775
		c-0.042,0.686-0.171,1.693-1.178,1.166c-0.45-0.234-0.498-1.238-0.728-1.893c1.238-0.504,1.183-1.621,1.261-2.674
		c0.878-0.879,0.863-1.836,0.253-2.846c-0.189-0.77-0.376-1.537-0.563-2.303c0.078-1.178,0.155-2.357,0.232-3.535
		c0.155-0.369,0.425-0.58,0.829-0.615c0.973,0.061,1.809,0.484,2.617,0.984C29.583,54.727,30.147,55.26,29.668,56.127z"/>
	<path style="fill-rule:evenodd;clip-rule:evenodd;" d="M26.2,53.563c-0.183,0.129-0.385,0.213-0.604,0.254
		c-0.572-2.139-4.219-1.736-3.852-4.656c0.925-0.41,1.853-0.82,2.779-1.23c1.239,0.361,2.478,0.723,3.717,1.086
		c0.406,0.508,0.55,1.1,0.577,1.734C28.923,52.596,27.774,53.278,26.2,53.563z"/>
	<path style="fill-rule:evenodd;clip-rule:evenodd;" d="M71.137,45.807c-0.526-0.316-1.054-0.633-1.581-0.949
		c1.728-1.797,3.766-3.177,5.938-4.38c-0.417,0.908-0.837,1.815-1.258,2.725c-0.266,0.333-0.53,0.666-0.794,0.999
		C72.674,44.737,71.905,45.272,71.137,45.807z"/>
	<path style="fill-rule:evenodd;clip-rule:evenodd;" d="M31.555,71.833c0.504-0.994,1.243-1.643,2.42-1.65
		c1.021-0.438,1.955-0.699,1.902,0.971c-0.334,0.566-0.669,1.135-1.005,1.703c-1.019,0.826-2.092,1.305-3.365,0.541
		C31.017,72.86,31.174,72.344,31.555,71.833z"/>
	<path style="fill-rule:evenodd;clip-rule:evenodd;" d="M31.555,71.833c-0.016,0.521-0.031,1.043-0.047,1.564
		c-1.281-0.027-1.555,1.02-2.005,1.871c-1.139,0.064-2.283,0.135-3.43,0.207C27.898,74.26,29.727,73.047,31.555,71.833z"/>
	<path style="fill-rule:evenodd;clip-rule:evenodd;" d="M49.858,61.62c-0.933,1.506-1.52,3.127-1.657,4.9
		c-0.427,0.344-0.853,0.689-1.28,1.033c-0.001-0.002-0.373-0.008-0.373-0.008c0.074-1.688-2.178-2.525-1.604-4.395
		c0.89-1.781,2.335-2.729,4.314-2.879C49.823,60.557,50.369,60.854,49.858,61.62z"/>
	<path style="fill-rule:evenodd;clip-rule:evenodd;" d="M40.986,21.177c0.129,1.519-0.634,2.002-2.032,1.748
		c-0.136-0.064-0.271-0.129-0.407-0.193c-0.02-1.471-0.039-2.943-0.058-4.415C39.388,19.21,39.461,20.828,40.986,21.177z"/>
	<path style="fill-rule:evenodd;clip-rule:evenodd;" d="M63.035,67.366c0.263-0.182,0.526-0.363,0.79-0.547
		c0.224,1.77-0.345,3.705,1.094,5.221c0.002,0.002-0.381,0.098-0.381,0.098s-0.394-0.039-0.393-0.039
		c-0.854-0.254-1.153-0.914-1.259-1.719C62.419,69.35,62.166,68.329,63.035,67.366z"/>
	<path style="fill-rule:evenodd;clip-rule:evenodd;" d="M35.877,71.153c-0.353-0.873-1.22-0.74-1.901-0.973
		c1.344-1.938,3.444-2.668,5.513-3.449c0.435,0.178,0.708,0.48,0.742,0.967c-0.047,0.277-0.097,0.553-0.153,0.83
		C37.675,67.801,37.699,70.956,35.877,71.153z"/>
	<path style="fill-rule:evenodd;clip-rule:evenodd;" d="M38.547,22.731c0.073,0.2,0.21,0.266,0.409,0.196
		c0.251,2.268,1.315,5.017-2.788,4.714c-0.086-0.667-0.173-1.333-0.258-2.001c0.154-1.263,0.628-2.368,1.569-3.249
		C37.835,22.505,38.191,22.618,38.547,22.731z"/>
	<path style="fill-rule:evenodd;clip-rule:evenodd;" d="M41.543,61.508c1.338-0.115,1.164,1.533,2.142,1.836
		c0.208,1.32-0.279,2.406-1.129,3.371c-0.774,0.328-1.549,0.656-2.324,0.982c-0.249-0.322-0.498-0.643-0.744-0.967
		c0.809-0.883,1.306-1.854,0.891-3.086c-0.359-0.316-0.492-0.707-0.399-1.176C40.31,61.838,40.8,61.467,41.543,61.508z"/>
	<path style="fill-rule:evenodd;clip-rule:evenodd;" d="M22.051,68.245c2.046,1.156,2.396,2.611,0.769,4.408
		c-1.282,0.842-1.319-0.322-1.647-1.021c0.018-0.764,0.036-1.529,0.054-2.295C21.501,68.973,21.776,68.608,22.051,68.245z"/>
	<path style="fill-rule:evenodd;clip-rule:evenodd;" d="M21.173,71.631c0.548,0.342,1.097,0.684,1.646,1.023
		c0,0.762,0.431,1.768-0.395,2.172c-0.755,0.371-1.06-0.551-1.397-1.107C21.076,73.022,21.124,72.327,21.173,71.631z"/>
	<path style="fill-rule:evenodd;clip-rule:evenodd;" d="M31.566,47.432c-1.918,2.182-0.192,3.777,0.878,5.479
		c-2.826,1.021-3.681-0.777-4.257-2.975c0.016-0.309,0.033-0.617,0.05-0.924c0.21-0.734,0.42-1.471,0.629-2.209
		c0.813-0.799,1.772-0.416,2.697-0.33c0.223,0.213,0.297,0.426,0.223,0.639C31.714,47.327,31.641,47.432,31.566,47.432z"/>
	<path style="fill-rule:evenodd;clip-rule:evenodd;" d="M31.396,46.584c-0.782,0.773-1.641,0.66-2.528,0.219
		c-0.276-0.883-0.553-1.768-0.829-2.651c0.897-0.313,1.794-0.629,2.692-0.945C32.269,44.074,32.417,45.213,31.396,46.584z"/>
	<path style="fill-rule:evenodd;clip-rule:evenodd;" d="M33.065,37.861c0.087,0.333,0.174,0.667,0.261,1
		c0.565,0.925,0.889,1.909-0.173,2.639c-0.884,0.608-1.602,0.228-1.967-0.773c-0.111-0.267-0.173-0.545-0.188-0.832
		C31.687,39.216,32.376,38.538,33.065,37.861z"/>
	<path style="fill-rule:evenodd;clip-rule:evenodd;" d="M31.186,40.726c2.464,1.387,2.068-0.507,2.14-1.865
		c1.407,0.646,1.823,1.597,1.053,3.035c-0.977,1.825-1.879,3.691-2.814,5.539c-0.042-0.289-0.098-0.572-0.169-0.852
		c0.449-1.256-0.038-2.33-0.666-3.375C30.882,42.38,31.034,41.553,31.186,40.726z"/>
	<path style="fill-rule:evenodd;clip-rule:evenodd;" d="M45.423,13.457c0.294,0.052,0.587,0.104,0.88,0.157
		c0.879,0.331,1.31,1.076,1.712,1.849c0.079,1.664,0.159,3.328,0.239,4.993c-0.025,0.307-0.052,0.613-0.077,0.919
		C46.409,19.031,45.997,16.216,45.423,13.457z"/>
	<path style="fill-rule:evenodd;clip-rule:evenodd;" d="M50.785,27.415c0.307,0.205,0.615,0.409,0.922,0.618
		c0,0.003,0.156,0.324,0.156,0.324c-0.186,0.612,0.219,0.75,0.678,0.845c0.268,0.606,0.534,1.212,0.801,1.818
		c-0.563,0.631-1.125,1.262-1.688,1.893c-0.339-0.079-0.677-0.159-1.015-0.238c1.156-1.435,0.605-2.851-0.049-4.266
		C50.654,28.077,50.72,27.746,50.785,27.415z"/>
	<path style="fill-rule:evenodd;clip-rule:evenodd;" d="M56.273,46.799c-0.069-1.291-0.14-2.58-0.208-3.869
		c-0.881-1.004-0.963-2.042-0.128-3.114l0.204-0.326c0.221,0.05,0.429,0.136,0.621,0.254c2.522,2.022,3.92,4.416,2.551,7.723
		c-0.286,0.414-0.572,0.828-0.858,1.244c-0.214-0.115-0.431-0.225-0.65-0.326C57.14,48.004,56.762,47.348,56.273,46.799z"/>
	<path style="fill-rule:evenodd;clip-rule:evenodd;" d="M59.313,47.467c0.953-3.169-1.469-5.225-2.55-7.723
		C60.185,41.14,61.103,43.919,59.313,47.467z"/>
	<path style="fill-rule:evenodd;clip-rule:evenodd;" d="M54.122,42.423c-1.326-1.327-1.2-2.552,0.262-3.682
		c0.283,0.322,0.567,0.645,0.851,0.967c-0.157,0.886,0.826,1.852-0.186,2.679C54.74,42.398,54.432,42.411,54.122,42.423z"/>
	<path style="fill-rule:evenodd;clip-rule:evenodd;" d="M55.049,42.387c0.418-0.868-1.007-1.863,0.185-2.68
		c0.237,0.023,0.472,0.06,0.704,0.109c0.238,1.031,0.563,2.059,0.127,3.116C55.727,42.75,55.388,42.568,55.049,42.387z"/>
	<path style="fill-rule:evenodd;clip-rule:evenodd;" d="M35.002,59.702c-1.125-0.66-2.115-1.455-2.642-2.699
		c-0.024-0.738,0.403-0.979,1.062-0.969c1.332,0.322,2.429,1.066,3.452,1.941l-0.047-0.027c0.354,0.467,1.025,0.672,1.124,1.352
		c-0.073,0.424-0.292,0.738-0.682,0.932C36.421,60.45,35.65,60.342,35.002,59.702z"/>
	<path style="fill-rule:evenodd;clip-rule:evenodd;" d="M35.002,59.702c0.905,0.096,1.81,0.189,2.715,0.283
		c1.671-0.111,2.348,0.871,2.576,2.344c0.028,0.438,0.057,0.877,0.086,1.316C38.423,62.555,36.349,61.625,35.002,59.702z"/>
	<path style="fill-rule:evenodd;clip-rule:evenodd;" d="M33.095,56.297c-0.245,0.236-0.489,0.471-0.734,0.705
		c-0.896-0.291-1.793-0.582-2.691-0.873c-0.333-0.482-0.663-0.961-0.993-1.443c1.409-2.475,2.734-0.592,4.086,0.076
		C33.201,55.202,33.661,55.639,33.095,56.297z"/>
	<path style="fill-rule:evenodd;clip-rule:evenodd;" d="M48.629,60.637c0.398-0.572,0.797-1.145,1.194-1.717
		c1.025-0.975,1.928-2.129,3.471-2.334c1.283-0.662,2.634-0.57,3.995-0.346c-0.658,1.1-0.984,2.531-2.633,2.643
		c-1.204,0.289-1.982,1.281-3.03,1.828c-0.589,0.303-1.177,0.605-1.766,0.908C49.685,60.997,49.248,60.704,48.629,60.637z"/>
	<path style="fill-rule:evenodd;clip-rule:evenodd;" d="M63.035,67.366c-0.049,1.004-0.098,2.008-0.148,3.014
		c-1.079-0.893-2.121-1.803-1.314-3.418C62.062,67.098,62.549,67.233,63.035,67.366z"/>
	<path style="fill-rule:evenodd;clip-rule:evenodd;" d="M51.626,60.711c0.524-1.414,1.622-1.875,3.029-1.826
		C53.859,59.846,53.403,61.375,51.626,60.711z"/>
	<path style="fill-rule:evenodd;clip-rule:evenodd;" d="M56.273,46.799c1.069-0.012,1.402,0.689,1.531,1.586
		C55.892,49.209,56.314,47.782,56.273,46.799z"/>
	<path style="fill-rule:evenodd;clip-rule:evenodd;" d="M53.294,56.586c-0.927,1.121-1.865,2.225-3.471,2.334
		c1.384-3.465,2.134-4.021,5.932-4.396C55.467,55.848,53.257,54.877,53.294,56.586z"/>
	<path style="fill-rule:evenodd;clip-rule:evenodd;" d="M48.015,15.463c-0.981-0.237-1.687-0.73-1.711-1.851
		c0.032-0.656,0.066-1.313,0.099-1.972c0.508,0.368,1.016,0.736,1.524,1.105C48.232,13.643,48.458,14.542,48.015,15.463z"/>
	<path style="fill-rule:evenodd;clip-rule:evenodd;" d="M32.526,55.2c-1.251-0.402-2.364-1.85-3.849-0.514
		c-0.825-0.373-1.65-0.748-2.477-1.123c1.314-0.852,2.048-2.021,1.988-3.627c1.02,1.561,2.177,2.928,4.256,2.975
		c0,0-0.024,0.383-0.024,0.383C32.943,53.903,32.965,54.538,32.526,55.2z"/>
	<path style="fill-rule:evenodd;clip-rule:evenodd;" d="M32.526,55.2c-0.034-0.635-0.069-1.27-0.104-1.906
		c1.59,1.459,4.51,1.654,4.452,4.682c-1.541,0.074-2.719-0.668-3.778-1.678C32.906,55.932,32.715,55.567,32.526,55.2z"/>
	<path style="fill-rule:evenodd;clip-rule:evenodd;" d="M40.293,62.329c-0.86-0.781-1.721-1.563-2.579-2.344
		c-0.115-0.4-0.233-0.801-0.351-1.201c1.333-0.326,2.185,0.42,2.964,1.326c0.404,0.467,0.809,0.932,1.214,1.398
		C41.127,61.782,40.71,62.055,40.293,62.329z"/>
	<path style="fill-rule:evenodd;clip-rule:evenodd;" d="M40.328,60.11c-0.986-0.439-1.972-0.881-2.961-1.324
		c-0.183-0.281-0.362-0.561-0.541-0.838C38.491,57.862,40.11,57.852,40.328,60.11z"/>
</g>
</svg>
