<?xml version="1.0" encoding="iso-8859-1"?>
<!-- Generator: Adobe Illustrator 16.0.0, SVG Export Plug-In . SVG Version: 6.00 Build 0)  -->
<!DOCTYPE svg PUBLIC "-//W3C//DTD SVG 1.1//EN" "http://www.w3.org/Graphics/SVG/1.1/DTD/svg11.dtd">
<svg version="1.1" id="Layer_1" xmlns="http://www.w3.org/2000/svg" xmlns:xlink="http://www.w3.org/1999/xlink" x="0px" y="0px"
	 width="82.22px" height="83.012px" viewBox="0 0 82.22 83.012" style="enable-background:new 0 0 82.22 83.012;"
	 xml:space="preserve">
<g>
	<path style="fill-rule:evenodd;clip-rule:evenodd;" d="M79.05,52.192c1.049-7.342,1.352-14.686,0.033-22.033
		C82.457,37.509,82.357,44.853,79.05,52.192z"/>
	<path style="fill-rule:evenodd;clip-rule:evenodd;" d="M2.04,36.452c-0.37,5.221,0.816,10.334,1.085,15.512
		c-0.572,0.053-0.96-0.191-1.161-0.729C0.888,46.5,0.616,41.721,1.172,36.896C1.301,36.436,1.59,36.288,2.04,36.452z"/>
	<path style="fill-rule:evenodd;clip-rule:evenodd;" d="M1.963,51.235c0.387,0.24,0.772,0.48,1.16,0.725
		c0.785,2.303,2.135,4.453,1.854,7.035C2.792,56.868,2.656,53.943,1.963,51.235z"/>
	<path style="fill-rule:evenodd;clip-rule:evenodd;" d="M2.04,36.452c-0.275,0.174-0.564,0.321-0.867,0.443
		c0.114-2.923-1.588-6.339,2.23-8.265c-0.095,0.564-0.189,1.128-0.284,1.692c-1.191,1.775-0.029,3.956-0.998,5.77L2.04,36.452z"/>
	<path style="fill-rule:evenodd;clip-rule:evenodd;" d="M18.469,8.472c-1.958,1.417-2.937,4.187-5.875,4.249
		C14.259,10.897,15.683,8.743,18.469,8.472z"/>
	<path style="fill-rule:evenodd;clip-rule:evenodd;" d="M79.085,30.171c-0.822-1.837-1.645-3.675-2.469-5.512
		C79.763,25.456,79.197,27.915,79.085,30.171z"/>
	<path style="fill-rule:evenodd;clip-rule:evenodd;" d="M74.591,61.711c0.834-1.514,1.668-3.028,2.502-4.543
		C77.384,59.302,77.412,61.292,74.591,61.711z"/>
	<path style="fill-rule:evenodd;clip-rule:evenodd;" d="M79.083,30.158l0.002,0.013c-0.869-1.817-0.281-4.286-2.469-5.512
		c-2.182-6.826-7.088-11.428-12.574-15.621c-5.334-4.076-11.395-7.121-17.795-8.121C36.158-0.658,26.716,2.219,18.469,8.472
		c-2.208,1.072-3.467,3.455-5.875,4.249c-3.203,5.223-8.359,9.318-9.191,15.911c-0.763,0.425-0.927,1.208-1.163,1.947
		c-0.303,1.798,0.083,3.669-0.586,5.424c-0.045,0.527-0.064,1.058-0.056,1.587c-0.061,4.612-0.126,9.227,0.978,13.759
		c0.81,2.547,1.406,5.16,2.402,7.648c6.849,11.07,16.449,18.805,28.992,22.146c4.495,1.197,9.946,1.457,14.288,0.057
		c10.771-3.479,20.088-9.576,26.334-19.488c1.734-1.018,1.777-2.969,2.502-4.543c0.713-1.635,2.039-3.029,1.957-4.977
		C81.146,44.851,81.089,37.506,79.083,30.158z M38.545,53.534c0.307,3.832-0.649,7.607-0.524,11.432
		c-0.676,2.715,1.003,5.727-1.025,8.277c-12.006-0.682-23.751-9.688-27.264-20.906c-2.728-8.709-2.728-8.721,6.64-8.686
		c6.994,0.025,13.988,0.088,20.981,0.134C39.885,46.774,37.955,50.308,38.545,53.534z M37.248,38.505
		c-6.959,0.048-13.923-0.019-20.877,0.194c-3.449,0.105-5.504-2.799-8.596-3.449c-0.959-0.202-0.49-1.579-0.102-2.566
		c3.404-8.652,7.896-16.676,16.729-20.564c3.744-1.647,7.002-6.446,12.185-3.521c2.006,3.163,0.668,6.798,1.406,10.159
		c0.377,1.716-0.077,3.585,0.511,5.331c0.163,3.491-0.177,6.991,0.189,10.471C38.861,36.156,38.686,37.538,37.248,38.505z
		 M73.013,51.168c-0.297,1.009-0.592,2.018-0.889,3.025c-1.436,2.631-2.768,5.317-4.207,7.947
		c-5.318,3.855-9.807,8.811-16.385,10.996c-2.705,0.899-4.879,1.546-7.346,0.007c-1.166-2.717-0.34-5.575-0.594-8.355
		C43.306,58.912,44.197,53,43.082,47.147c-0.205-2.122,0.316-3.551,2.873-3.531c7.627,0.063,15.252,0.035,22.879,0.053
		c1.582,0.003,2.92,0.52,3.793,1.932C74.636,47.327,73.833,49.247,73.013,51.168z M73.142,36.762
		c-0.629,1.743-2.068,1.917-3.631,1.914c-7.777-0.017-15.555-0.129-23.328,0.033c-2.785,0.058-3.375-1.186-3.119-3.507
		c1.156-4.435,0.232-8.953,0.529-13.421c0.238-2.374-0.547-4.819,0.496-7.136l-0.021,0.066c1.516-1.827-1.582-3.717,0.074-5.542
		c7.166-2.896,12.156,1.894,17.09,5.442c3.912,2.811,7.414,6.454,9.824,10.854c1.869,2.374,1.412,5.687,3.256,8.072
		C74.882,34.961,74.126,35.904,73.142,36.762z"/>
	<path style="fill-rule:evenodd;clip-rule:evenodd;" d="M37.248,38.505c2.45-4.748-0.26-9.757,0.739-14.579
		c-0.529-3.118-0.88-6.231,0.243-9.306c1.543,7.086,0.609,14.335,1.374,21.478C39.743,37.387,39.089,38.736,37.248,38.505z"/>
	<path style="fill-rule:evenodd;clip-rule:evenodd;" d="M38.23,14.62c-0.081,3.101-0.162,6.202-0.243,9.305
		c-1.631-5.002-0.902-10.22-1.4-15.327C40.807,9.603,37.508,12.661,38.23,14.62z"/>
	<path style="fill-rule:evenodd;clip-rule:evenodd;" d="M43.082,47.147c1.426,5.795,0.938,11.699,1.004,17.571
		c-0.32,0.392-0.604,0.366-0.855-0.071C42.933,58.815,42.589,52.985,43.082,47.147z"/>
	<path style="fill-rule:evenodd;clip-rule:evenodd;" d="M37.01,65.767c0.326-4.012,0.651-8.023,0.977-12.035
		c0.266-0.401,0.58-0.444,0.945-0.132c0.003,2.666,0.007,5.331,0.01,7.996c-0.812,1.271-0.053,2.793-0.65,4.1
		C37.88,65.998,37.452,66.021,37.01,65.767z"/>
	<path style="fill-rule:evenodd;clip-rule:evenodd;" d="M44.093,21.615c0.098,4.563,0.576,9.154-1.029,13.588
		c0.055-4.492,0.109-8.983,0.164-13.475C43.462,21.272,43.746,21.213,44.093,21.615z"/>
	<path style="fill-rule:evenodd;clip-rule:evenodd;" d="M74.025,34.172c-2.787-2.289-1.813-5.86-2.969-8.706
		c2.506,1.19,2.037,3.875,2.945,5.867C74.666,32.274,74.628,33.221,74.025,34.172z"/>
	<path style="fill-rule:evenodd;clip-rule:evenodd;" d="M38.932,53.6c-0.314,0.048-0.629,0.091-0.945,0.131
		c-0.341-3.307,1.022-6.724-0.637-9.947c3.14,0.377,2.03,2.701,1.987,4.461C39.293,50.032,39.074,51.815,38.932,53.6z"/>
	<path style="fill-rule:evenodd;clip-rule:evenodd;" d="M37.919,65.684c0.341-1.361,0.682-2.725,1.022-4.088
		c-0.346,3.726,0.932,7.563-0.757,11.197C37.186,70.458,37.411,68.077,37.919,65.684z"/>
	<path style="fill-rule:evenodd;clip-rule:evenodd;" d="M67.917,62.141c0.871-2.93,1.939-5.756,4.207-7.947
		C71.648,57.333,70.244,59.981,67.917,62.141z"/>
	<path style="fill-rule:evenodd;clip-rule:evenodd;" d="M37.919,65.684c0.088,2.37,0.177,4.739,0.266,7.109
		c-0.284,0.449-0.613,0.775-1.19,0.449c0.506-2.491-0.945-4.986,0.017-7.477C37.312,65.722,37.614,65.694,37.919,65.684z"/>
	<path style="fill-rule:evenodd;clip-rule:evenodd;" d="M43.23,64.647c0.285,0.029,0.57,0.052,0.855,0.07
		c0.033,2.81,0.066,5.618,0.102,8.427C41.833,70.542,43.671,67.465,43.23,64.647z"/>
	<path style="fill-rule:evenodd;clip-rule:evenodd;" d="M73.013,51.168c-0.357-1.84,0.563-3.769-0.387-5.568
		C76.164,47.22,75.246,49.149,73.013,51.168z"/>
	<path style="fill-rule:evenodd;clip-rule:evenodd;" d="M44.093,21.615c-0.291,0.026-0.578,0.063-0.865,0.113
		c0.184-2.374-1.125-4.929,0.861-7.083C44.091,16.968,44.091,19.291,44.093,21.615z"/>
	<path style="fill-rule:evenodd;clip-rule:evenodd;" d="M44.142,9.169c-0.313,1.843,1.928,3.721-0.076,5.542
		C44.113,12.864,41.849,10.986,44.142,9.169z"/>
	<path style="fill-rule:evenodd;clip-rule:evenodd;" d="M74.025,34.172c-0.006-0.943-0.014-1.886-0.021-2.834
		c1.164,2.036,2.598,4.118-0.861,5.424C73.437,35.898,73.73,35.035,74.025,34.172z"/>
	<path style="fill-rule:evenodd;clip-rule:evenodd;" d="M2.121,36.092c-0.21-2.014-0.384-4.022,0.997-5.766
		C3.217,32.32,3.443,34.339,2.121,36.092z"/>
</g>
</svg>
