<?xml version="1.0" encoding="iso-8859-1"?>
<!-- Generator: Adobe Illustrator 16.0.0, SVG Export Plug-In . SVG Version: 6.00 Build 0)  -->
<!DOCTYPE svg PUBLIC "-//W3C//DTD SVG 1.1//EN" "http://www.w3.org/Graphics/SVG/1.1/DTD/svg11.dtd">
<svg version="1.1" id="Layer_1" xmlns="http://www.w3.org/2000/svg" xmlns:xlink="http://www.w3.org/1999/xlink" x="0px" y="0px"
	 width="77.123px" height="74.858px" viewBox="0 0 77.123 74.858" style="enable-background:new 0 0 77.123 74.858;"
	 xml:space="preserve">
<g>
	<path style="fill-rule:evenodd;clip-rule:evenodd;" d="M3.241,31.071c-1.402,8.413,1.066,16.264,3.501,24.122
		c-3.132-2.904-3.241-7.057-4.435-10.762c-0.832-4.135-0.689-8.274-0.059-12.416c-0.033-0.239,0.016-0.459,0.145-0.662
		C2.558,30.901,2.833,30.79,3.241,31.071z"/>
	<path style="fill-rule:evenodd;clip-rule:evenodd;" d="M74.282,30.854c-0.66-2.127-1.318-4.254-1.979-6.381
		c-0.58-0.837-0.629-1.671,0.021-2.499c4.1,5.404,5.429,16.628,2.535,21.426C74.478,39.226,75.438,34.991,74.282,30.854z"/>
	<path style="fill-rule:evenodd;clip-rule:evenodd;" d="M3.241,31.071c-0.279,0.106-0.561,0.199-0.846,0.281
		c-0.369-3.487,0.521-6.597,2.789-9.295C5.778,25.329,3.647,28.014,3.241,31.071z"/>
	<path style="fill-rule:evenodd;clip-rule:evenodd;" d="M74.282,30.854c1.929,4.098,0.905,8.334,0.582,12.542
		c-0.352-0.049-0.697-0.102-1.045-0.154C73.974,39.112,74.128,34.983,74.282,30.854z"/>
	<path style="fill-rule:evenodd;clip-rule:evenodd;" d="M2.249,32.016c0.02,4.137,0.037,8.274,0.057,12.414
		C0.425,40.302,0.459,36.163,2.249,32.016z"/>
	<path style="fill-rule:evenodd;clip-rule:evenodd;" d="M72.325,21.974c-0.008,0.832-0.016,1.664-0.021,2.498
		c-1.574-1.418-1.654-3.547-2.514-5.307C72.171,18.715,71.61,20.92,72.325,21.974z"/>
	<path style="fill-rule:evenodd;clip-rule:evenodd;" d="M64.259,62.388c1.012-1.139,2.023-2.277,3.034-3.416
		c-0.03,2.066-1.339,3.238-2.944,4.199c-0.314-0.141-0.432-0.303-0.354-0.488C64.075,62.486,64.163,62.388,64.259,62.388z"/>
	<path style="fill-rule:evenodd;clip-rule:evenodd;" d="M64.259,62.388c0.014,0.264,0.045,0.523,0.09,0.785
		c-0.861,1.008-1.481,2.402-3.218,2.016C62.174,64.255,63.216,63.322,64.259,62.388z"/>
	<path style="fill-rule:evenodd;clip-rule:evenodd;" d="M75.245,32.188c-0.374-2.747-1.791-5.191-2.252-7.91
		c-1.545-1.408-1.307-3.928-3.203-5.113c-2.855-4.369-5.857-8.482-10.26-11.618C49.001,0.042,37.606-0.488,25.817,3.062
		C16.023,6.011,9.685,13.137,5.185,22.057c-0.714,3.248-2.504,6.23-2.385,9.681c-1.781,8.338,0.566,15.985,3.944,23.456
		c10.022,19.613,37.657,25.633,54.387,9.996c1.386-0.621,2.296-1.82,3.397-2.789c1.076-1.018,2.129-2.053,2.765-3.428
		c3.899-4.527,5.647-9.949,6.526-15.73C76.741,39.875,74.658,35.86,75.245,32.188z M7.841,31.378
		c0.356-0.689,0.352-1.558,0.569-2.329c1.065-3.783,2.554-8.165,5.971-9.438c2.778-1.035,5.38,2.846,7.759,5.004
		c3.047,2.764,5.589,6.07,9.136,8.305c1.071,0.676,2.392,1.569,1.851,3.158c-0.602,1.769-2.291,0.635-4.168,1.336
		c-5.711-3.179-12.607-2.778-19.402-3.14C7.682,34.176,6.819,33.354,7.841,31.378z M12.741,53.916
		c-0.274-0.389-0.308-0.941-0.527-1.379C6.928,42,6.926,42.001,18.669,41.777c3.494-0.518,7.701,1.43,11.018-2.142
		c0.756-0.813,2.26-0.484,2.947,0.749c0.752,1.35-0.65,1.608-1.287,2.206c-4.316,4.043-8.719,7.998-12.959,12.119
		C16.005,57.025,14.326,56.154,12.741,53.916z M35.396,67.214c-5.03-0.326-9.42-2.682-13.914-4.592
		c-1.41-0.6-1.374-1.992-0.288-3.66c3.433-5.273,8.686-8.879,12.31-13.959c0.639-0.895,2.572-2.324,2.864,0.68
		c0.854,4.904,0.188,9.852,0.401,14.771C36.397,62.724,37.77,65.351,35.396,67.214z M36.129,30.903
		c-1.718,0.799-2.808-0.165-3.808-1.364c-3.659-4.383-7.23-8.844-11.009-13.121c-1.847-2.089-1.208-4.068,0.634-4.884
		c4.191-1.858,8.458-4.225,13.383-2.486c2.452,2.054,1.082,4.857,1.438,7.323c0,3.187,0.003,6.373,0.001,9.559
		C36.505,27.582,37.755,29.428,36.129,30.903z M64.308,22.931c1.166,1.996,2.67,3.838,2.867,6.276
		c2.163,3.603,1.407,5.636-3.057,5.414c-5.809-0.29-11.517-0.057-17,2.196c-1.068,0.439-2.584,0.587-3.253-0.391
		c-0.987-1.443,0.483-2.625,1.397-3.311c4.83-3.621,9.2-7.741,13.647-11.797C61.083,19.337,63.44,19.274,64.308,22.931z
		 M40.817,23.192c0-2.693-0.004-5.385,0-8.077c0.133-1.787-0.354-3.627,0.475-5.352c6.048-3.485,10.606,0.299,15.297,3.21
		c0.965,0.599,1.811,1.707,0.66,2.893c-4.881,5.039-9.801,10.039-14.734,15.025c-0.172,0.173-0.639,0.055-0.967,0.073
		C40.048,28.491,41.175,25.772,40.817,23.192z M47.97,65.273c-1.868,0.496-3.704,1.115-5.555,1.68
		c-2.367-4.346-1.359-9.084-1.598-13.676c0.434-2.816-0.984-5.83,0.9-8.492c4.597,1.617,6.488,6.145,9.71,9.221
		C58.546,60.81,57.841,62.652,47.97,65.273z M67.32,47.24l-0.011-0.072c-0.922,1.676-1.215,3.697-2.756,5.033
		c-0.791,3.402-2.712,3.754-5.499,2.127c-5.311-3.104-8.729-8.396-13.821-11.799c-1.971-1.318-0.61-3.003,1.124-2.865
		c4.14,0.331,8.522-1.828,12.438,1.601c2.404,2.105,5.869-1.071,8.604,0.871C69.49,43.871,67.642,45.542,67.32,47.24z"/>
	<path style="fill-rule:evenodd;clip-rule:evenodd;" d="M41.288,53.279c0.375,4.557,0.752,9.115,1.127,13.674
		c-3.311-1.238-1.506-4.223-1.963-6.336c-0.512-2.357-0.057-4.926-0.023-7.402C40.749,52.787,41.032,52.828,41.288,53.279z"/>
	<path style="fill-rule:evenodd;clip-rule:evenodd;" d="M36.405,61.369c-0.333-5.227-0.504-10.453-0.038-15.684
		c2.026,5.092,1.103,10.336,0.791,15.547C36.967,61.607,36.713,61.636,36.405,61.369z"/>
	<path style="fill-rule:evenodd;clip-rule:evenodd;" d="M41.288,53.279c-0.287-0.025-0.572-0.047-0.859-0.064
		c-0.039-2.898-0.881-5.838,0.439-8.664c0.033-0.068,0.303-0.074,0.439-0.035c0.15,0.045,0.277,0.176,0.412,0.27
		C41.575,47.617,41.431,50.447,41.288,53.279z"/>
	<path style="fill-rule:evenodd;clip-rule:evenodd;" d="M36.431,26.193c-0.028-3.375-0.057-6.75-0.085-10.125
		c0.365-0.302,0.634-0.232,0.806,0.21C37.196,19.639,37.24,23,37.284,26.36C36.929,26.668,36.645,26.612,36.431,26.193z"/>
	<path style="fill-rule:evenodd;clip-rule:evenodd;" d="M37.151,16.278c-0.273-0.049-0.542-0.118-0.806-0.208
		c-0.983-2.248,0.619-4.868-1.017-7.021C39.123,10.655,36.589,13.857,37.151,16.278z"/>
	<path style="fill-rule:evenodd;clip-rule:evenodd;" d="M41.319,15.147c0.385,2.665,0.402,5.327-0.039,7.988
		c-0.25,0.458-0.531,0.48-0.848,0.063c0.01-2.651,0.02-5.301,0.029-7.952C40.696,14.784,40.985,14.771,41.319,15.147z"/>
	<path style="fill-rule:evenodd;clip-rule:evenodd;" d="M67.175,29.207c-0.955-2.091-1.91-4.183-2.867-6.275
		C66.583,24.42,67.935,26.332,67.175,29.207z"/>
	<path style="fill-rule:evenodd;clip-rule:evenodd;" d="M40.433,23.199c0.283-0.019,0.566-0.039,0.848-0.063
		c0.09,2.608,0.18,5.218,0.268,7.828C38.848,28.71,40.772,25.792,40.433,23.199z"/>
	<path style="fill-rule:evenodd;clip-rule:evenodd;" d="M36.431,26.193c0.289,0.029,0.574,0.083,0.854,0.165
		c0.226,1.671,2.078,3.755-1.155,4.545C36.229,29.333,36.33,27.763,36.431,26.193z"/>
	<path style="fill-rule:evenodd;clip-rule:evenodd;" d="M64.554,52.201c0.473-1.922,1.285-3.658,2.756-5.033
		C67.316,49.353,66.865,51.287,64.554,52.201z"/>
	<path style="fill-rule:evenodd;clip-rule:evenodd;" d="M36.405,61.369c0.245-0.078,0.496-0.123,0.753-0.137
		c-0.587,1.994,2.014,4.93-1.763,5.982C35.731,65.267,36.068,63.318,36.405,61.369z"/>
	<path style="fill-rule:evenodd;clip-rule:evenodd;" d="M67.32,47.24c-0.454-1.709,1.26-3.385,0.08-5.104
		C71.147,43.896,68.286,45.552,67.32,47.24z"/>
	<path style="fill-rule:evenodd;clip-rule:evenodd;" d="M41.319,15.147c-0.287,0.032-0.572,0.065-0.857,0.1
		c0.047-1.862-0.949-3.883,0.83-5.483C41.302,11.558,41.31,13.353,41.319,15.147z"/>
</g>
</svg>
