<?xml version="1.0" encoding="iso-8859-1"?>
<!-- Generator: Adobe Illustrator 16.0.0, SVG Export Plug-In . SVG Version: 6.00 Build 0)  -->
<!DOCTYPE svg PUBLIC "-//W3C//DTD SVG 1.1//EN" "http://www.w3.org/Graphics/SVG/1.1/DTD/svg11.dtd">
<svg version="1.1" id="Layer_1" xmlns="http://www.w3.org/2000/svg" xmlns:xlink="http://www.w3.org/1999/xlink" x="0px" y="0px"
	 width="82.786px" height="69.988px" viewBox="0 0 82.786 69.988" style="enable-background:new 0 0 82.786 69.988;"
	 xml:space="preserve">
<g>
	<path style="fill-rule:evenodd;clip-rule:evenodd;" d="M2.557,63.535c0.282,1.396-0.531,2.894,0.384,4.23
		C-0.241,66.624-0.259,66.419,2.557,63.535z"/>
	<path style="fill-rule:evenodd;clip-rule:evenodd;" d="M30.346,18.961c-0.21,1.996-0.853,3.721-2.877,4.577
		C28.045,21.773,28.372,19.849,30.346,18.961z"/>
	<path style="fill-rule:evenodd;clip-rule:evenodd;" d="M80.24,68.019c-0.388-1.008-0.774-2.016-1.164-3.023
		c1.985,0.027,1.671,2.17,2.762,3.059c0.386,0.315-0.088,0.949-0.606,0.843C80.856,68.82,80.567,68.327,80.24,68.019z"/>
	<path style="fill-rule:evenodd;clip-rule:evenodd;" d="M79.074,64.994c-6.576-9.426-12.814-19.065-18.466-29.078
		c-1.923-0.735-1.96,3.664-4.36,1.616c-11.067,0.078-22.15,0.738-33.209-0.396c-1.24-0.12-2.409,0.018-3.381,0.905
		c-5.791,8.438-9.759,18.098-17.101,25.494c-0.75,1.489-1.123,2.942,0.379,4.229c7.181-0.455,13.951-2.944,21.369-2.947
		c18.734-0.005,37.376,0.59,55.935,3.201C79.968,66.966,80.323,65.671,79.074,64.994z M68.095,60.003
		c-17.313,0.042-34.625,0.096-51.938,0.117c-3.173,0.004-4.143-1.403-2.503-4.275c0.081-0.143,0.203-0.271,0.244-0.424
		c2.675-9.82,8.882-12.98,18.96-11.729c8.191,1.018,16.625,0.152,24.949-0.008c2.642-0.051,4.806,0.87,5.521,3.266
		c0.937,3.135,3.007,5.619,4.136,8.597C68.183,56.96,70.219,58.188,68.095,60.003z"/>
	<path style="fill-rule:evenodd;clip-rule:evenodd;" d="M55.978,27.941c-4.664-8.4-9.446-16.736-14.017-25.187
		c-1.395-2.578-2.346-3.256-3.799-0.183c-2.587,5.472-5.209,10.927-7.816,16.389c-0.715,1.679-1.612,3.244-2.877,4.578
		c-2.604,4.834-5.208,9.668-7.812,14.502c1.002-0.048,2.004-0.095,3.007-0.142C27.848,29.933,33,21.945,38.25,14.022
		c0.875-1.321,2.605-1.384,3.455-0.218c5.603,7.684,11.645,15.086,15.819,23.724c0.069,0.144,0.061,0.325,0.089,0.488l0,0
		c2.6,1.584,1.542-2.049,2.995-2.101C60.006,32.713,57.471,30.631,55.978,27.941z"/>
	<path style="fill-rule:evenodd;clip-rule:evenodd;" d="M68.095,60.003c0.77-1.624-0.258-2.993-0.63-4.455
		C69.901,56.718,70.848,58.099,68.095,60.003z"/>
</g>
</svg>
