<?xml version="1.0" encoding="iso-8859-1"?>
<!-- Generator: Adobe Illustrator 16.0.0, SVG Export Plug-In . SVG Version: 6.00 Build 0)  -->
<!DOCTYPE svg PUBLIC "-//W3C//DTD SVG 1.1//EN" "http://www.w3.org/Graphics/SVG/1.1/DTD/svg11.dtd">
<svg version="1.1" id="Layer_1" xmlns="http://www.w3.org/2000/svg" xmlns:xlink="http://www.w3.org/1999/xlink" x="0px" y="0px"
	 width="58.777px" height="75.765px" viewBox="0 0 58.777 75.765" style="enable-background:new 0 0 58.777 75.765;"
	 xml:space="preserve">
<g>
	<path style="fill-rule:evenodd;clip-rule:evenodd;" d="M11.895,15.853C6.883,14.281,6.033,9.135,3.182,5.709
		c-1.55-1.206-1.345-2.571-0.363-4.006c17.428,13.421,34.863,11.669,52.691,0.274c-1.857,4.938-4.538,9.35-8.726,12.796
		c-1.188,0.535-1.809-0.701-2.771-0.868c-0.629-0.126-1.26-0.135-1.896-0.064c-1.709,0.202-3.016,1.439-4.665,1.792
		c-5.232,0.585-10.472,0.283-15.705,0.234c-1.529-0.095-2.991-0.515-4.431-1.008c-1.588-0.698-3.057-0.78-4.205,0.813
		C12.74,15.957,12.333,16.015,11.895,15.853z"/>
	<path style="fill-rule:evenodd;clip-rule:evenodd;" d="M11.895,15.853c0.202-0.21,0.444-0.274,0.724-0.193
		c1.065-1.284,2.884-1.009,4.099-1.981c1.382,0.362,2.765,0.724,4.147,1.086c-0.167,1.294,0.062,2.596-0.076,3.89
		c-0.463,1.122,0.765,2.67-0.877,3.483c-0.422-1.916-1.903-2.513-3.569-2.828C14.255,18.915,12.902,17.616,11.895,15.853z"/>
	<path style="fill-rule:evenodd;clip-rule:evenodd;" d="M44.49,12.842c0.765,0.644,1.53,1.287,2.294,1.931
		c-1.69,3.1-4.576,4.313-7.819,4.958c-0.118-0.44-0.238-0.878-0.357-1.317c-0.086-1.148,0.945-1.637,1.432-2.449
		c0.233-0.319,0.524-0.579,0.856-0.792c0.547-0.264,1.133-0.417,1.711-0.602C43.456,14.229,43.961,13.523,44.49,12.842z"/>
	<path style="fill-rule:evenodd;clip-rule:evenodd;" d="M55.823,52.855c0.934-4.121,1.311-8.244,0.016-12.367
		C58.643,43.873,58.635,49.338,55.823,52.855z"/>
	<path style="fill-rule:evenodd;clip-rule:evenodd;" d="M3.711,38.126c-0.022,4.712-1.516,9.343-0.799,14.097
		c-0.65-0.07-1.059-0.424-1.226-1.055C1.016,46.611,1.301,42.203,3.711,38.126z"/>
	<path style="fill-rule:evenodd;clip-rule:evenodd;" d="M2.818,1.703c0.121,1.335,0.242,2.671,0.363,4.006
		C1.52,5.287,0.941,3.81,0.786,2.494C0.575,0.712,1.371,0.013,2.818,1.703z"/>
	<path style="fill-rule:evenodd;clip-rule:evenodd;" d="M1.687,51.168c0.407,0.346,0.813,0.691,1.223,1.045
		c0.319,1.096,0.635,2.182,0.95,3.268c0.331,0.58,0.257,1.105-0.222,1.572C2.452,55.268,1.586,53.377,1.687,51.168z"/>
	<path style="fill-rule:evenodd;clip-rule:evenodd;" d="M3.638,57.053c0.074-0.523,0.148-1.049,0.222-1.572
		c1.316,1.555,2.083,3.299,1.845,5.387C5.017,59.596,4.327,58.324,3.638,57.053z"/>
	<path style="fill-rule:evenodd;clip-rule:evenodd;" d="M55.838,40.486c-2.122-8.818-7.354-14.911-15.94-17.957
		c-1.756-0.623-0.856-1.796-0.933-2.8c0.157-0.627-0.017-1.142-0.522-1.543c-0.767-0.473-1.613-0.679-2.501-0.747
		c-4.859,0.048-9.738-0.602-14.563,0.484c-2.098,0.846-0.793,2.869-1.461,4.205C11.641,24.548,6.257,29.9,3.711,38.126
		c-1.342,4.103-1.747,8.315-1.48,12.612c-0.193,1.676,1.119,2.996,1.081,4.635c1.235,1.645,1.661,3.637,2.394,5.494
		c1.765,1.947,3.432,3.99,5.31,5.82c9.168,8.939,22.336,11.531,33.032,2.91c5.41-4.359,11-8.957,11.775-16.742
		C57.862,48.734,57.879,44.613,55.838,40.486z M52.236,54.123c-0.12,2.037-1.591,3.43-2.444,5.119
		C39.631,75.75,16.288,71.594,8.457,57.648c-0.453-0.807-0.521-1.832-0.769-2.754c-1.78-4.141-1.958-8.4-0.955-12.748
		c0.828-6.54,5.143-10.69,10.252-13.903c10.334-6.498,20.308-4.036,28.431,3.487c1.684,0.431,2.422,2.044,3.711,2.968
		c1.867,1.344,0.855,4.03,2.547,5.457C54.07,44.723,53.5,49.408,52.236,54.123z"/>
	<path style="fill-rule:evenodd;clip-rule:evenodd;" d="M51.713,54.879c0.713-4.91,1.582-9.82-0.039-14.725
		c3.752,4.643,2.094,9.641,0.956,14.604C52.365,55.102,52.059,55.141,51.713,54.879z"/>
	<path style="fill-rule:evenodd;clip-rule:evenodd;" d="M6.733,42.146c0.318,4.248,0.637,8.498,0.955,12.748
		C4.692,50.846,4.927,46.555,6.733,42.146z"/>
	<path style="fill-rule:evenodd;clip-rule:evenodd;" d="M51.713,54.879c0.301-0.082,0.606-0.123,0.918-0.123
		c-0.608,1.711-0.418,3.926-2.84,4.484C49.629,57.434,51.372,56.465,51.713,54.879z"/>
	<path style="fill-rule:evenodd;clip-rule:evenodd;" d="M49.127,34.698c-1.97-0.073-2.562-1.868-3.71-2.968
		C47.622,31.508,48.28,33.22,49.127,34.698z"/>
	<path style="fill-rule:evenodd;clip-rule:evenodd;" d="M36.722,18.307c0.875-1.458,2.349-1.794,3.86-2.06
		c0.092,1.402-1.385,1.38-1.976,2.167C37.979,18.378,37.35,18.343,36.722,18.307z"/>
	<path style="fill-rule:evenodd;clip-rule:evenodd;" d="M40.844,15.716c-0.928-0.072-1.797-0.257-2.289-1.176
		c0.904-1.773,2.443-2.049,4.213-1.785c0.6,1.065,1.033,2.102-0.488,2.797C41.801,15.606,41.323,15.661,40.844,15.716z"/>
	<path style="fill-rule:evenodd;clip-rule:evenodd;" d="M16.717,13.678c-0.093,3.293-2.758,1.269-4.098,1.982
		C12.84,12.629,14.16,11.875,16.717,13.678z"/>
	<path style="fill-rule:evenodd;clip-rule:evenodd;" d="M42.28,15.552c0.162-0.933,0.324-1.865,0.486-2.797
		c0.574,0.029,1.148,0.058,1.724,0.087C45.122,14.863,44.193,15.609,42.28,15.552z"/>
</g>
</svg>
