<?xml version="1.0" encoding="iso-8859-1"?>
<!-- Generator: Adobe Illustrator 16.0.0, SVG Export Plug-In . SVG Version: 6.00 Build 0)  -->
<!DOCTYPE svg PUBLIC "-//W3C//DTD SVG 1.1//EN" "http://www.w3.org/Graphics/SVG/1.1/DTD/svg11.dtd">
<svg version="1.1" id="Layer_1" xmlns="http://www.w3.org/2000/svg" xmlns:xlink="http://www.w3.org/1999/xlink" x="0px" y="0px"
	 width="89.921px" height="58.777px" viewBox="0 0 89.921 58.777" style="enable-background:new 0 0 89.921 58.777;"
	 xml:space="preserve">
<g>
	<path style="fill-rule:evenodd;clip-rule:evenodd;" d="M12.868,35.572c3.933,7.678,10.958,11.427,18.482,14.541
		c4.272,1.095,8.632,0.195,12.937,0.558c8.923-1.45,16.039-5.688,20.829-13.511c1.087-0.882,1.584-2.24,2.583-3.192
		c0.09-0.599,0.18-1.197,0.27-1.796c0.336-2.424,3.902-4.102,1.65-7.125c-1.35-1.265-2.545-0.55-3.729,0.291
		c-0.701,0.539-1.289,1.557-2.355,0.558c-0.577-1.675,0.504-2.646,1.544-3.634c1.028-1.07,2.057-2.141,3.084-3.211
		c2.273-2.362,3.057-5.561,4.654-8.306c1.518-2.114,0.481-5.495,3.434-6.894c2.308,2.097,1.434,5.282,2.656,7.75
		c1.161,6.199,3.887,11.746,7.107,17.09c0.456,1.2,2.161,2.112,0.854,3.719c-1.733-0.6-3.192-1.59-4.364-3.014
		c-1.178-1.434-1.782-3.858-4.357-3.146c-2.623,0.727-2.922,3.117-3.297,5.354c-0.503,1.728-1.204,3.373-2.063,4.952
		c-12.9,25.127-45.075,28.852-62.822,6.257c-1.171-1.449-1.033-3.759-3.055-4.649c-0.072-0.225-0.127-0.453-0.164-0.687
		c-1.999-4.992-2.565-10.354-4.002-15.49c-0.399-1.425-1-2.814,0.38-4.047c1.548-1.146,3.135-1.023,4.746-0.144
		c2.486,3.316,1.351,7.438,2.44,11.071c0.221,0.734-0.094,1.625,0.642,2.224l-0.034-0.062
		C11.871,32.413,12.318,34.014,12.868,35.572z"/>
	<path style="fill-rule:evenodd;clip-rule:evenodd;" d="M3.122,17.94c0.042,6.727,3.047,12.904,3.622,19.535
		c-4.183-5.157-3.111-11.954-5.449-17.704C0.976,18.986,1.821,17.88,3.122,17.94z"/>
	<path style="fill-rule:evenodd;clip-rule:evenodd;" d="M78.905,11.601c-2.064-2.114-1.021-5.471-3.035-7.606
		c-0.777-0.45-0.494-1.334-0.809-1.974c1.285-1.776,2.438-0.987,2.635,0.537C78.089,5.573,79.868,8.417,78.905,11.601z"/>
	<path style="fill-rule:evenodd;clip-rule:evenodd;" d="M10.949,31.091c-2.737-4.035-1.325-9.031-3.081-13.295
		c3.786,1.292,1.794,4.688,2.52,7.081C10.994,26.872,11.341,28.968,10.949,31.091z"/>
	<path style="fill-rule:evenodd;clip-rule:evenodd;" d="M44.287,50.67c-4.31-0.234-8.689,1.136-12.936-0.558
		C35.663,50.298,39.975,50.485,44.287,50.67z"/>
	<path style="fill-rule:evenodd;clip-rule:evenodd;" d="M73.022,10.975c-1.22,2.934-1.971,6.149-4.861,8.075
		c1.199-3.186,2.562-6.286,4.642-9.019c0.296,0.152,0.428,0.343,0.394,0.571C73.16,10.851,73.103,10.975,73.022,10.975z"/>
	<path style="fill-rule:evenodd;clip-rule:evenodd;" d="M63.483,25.891c0.803-0.185,1.604-0.369,2.406-0.554
		c-0.396,2.98-2.869,3.159-5.043,3.741c-0.711-1.055-0.939-2.064,0.275-2.938c0.236-0.012,0.473-0.014,0.709-0.009
		C62.306,25.53,62.867,25.523,63.483,25.891z"/>
	<path style="fill-rule:evenodd;clip-rule:evenodd;" d="M73.022,10.975c-0.069-0.315-0.143-0.63-0.22-0.943
		c0.485-2.746,0.776-5.547,2.259-8.012c0.27,0.659,0.539,1.316,0.809,1.975C74.404,6.111,74.905,9.029,73.022,10.975z"/>
	<path style="fill-rule:evenodd;clip-rule:evenodd;" d="M69.618,25.046c1.757,2.972,1.757,2.972-1.65,7.125
		C66.808,29.401,71.024,27.875,69.618,25.046z"/>
	<path style="fill-rule:evenodd;clip-rule:evenodd;" d="M86.867,32.41c-0.285-1.238-0.57-2.476-0.854-3.717
		c1.595,0.623,3.046,1.478,2.627,3.476C88.465,33.001,87.608,33.381,86.867,32.41z"/>
	<path style="fill-rule:evenodd;clip-rule:evenodd;" d="M6.909,38.164c2.447,0.611,2.953,2.499,3.055,4.65
		C8.454,41.586,7.496,39.998,6.909,38.164z"/>
	<path style="fill-rule:evenodd;clip-rule:evenodd;" d="M63.483,25.891c-0.551,0.08-1.102,0.16-1.652,0.241
		c0.23-2.004,1.589-3.063,3.246-3.871C65.238,23.775,64.094,24.715,63.483,25.891z"/>
	<path style="fill-rule:evenodd;clip-rule:evenodd;" d="M61.122,26.141c-0.092,0.979-0.184,1.958-0.275,2.938
		c-0.758-0.111-1.738-0.066-1.646-1.178C59.288,26.837,60.142,26.362,61.122,26.141z"/>
	<path style="fill-rule:evenodd;clip-rule:evenodd;" d="M12.868,35.572c-1.205-1.275-1.869-2.784-1.952-4.542
		C12.735,32.042,13.382,33.557,12.868,35.572z"/>
	<path style="fill-rule:evenodd;clip-rule:evenodd;" d="M72.786,36.556c-0.06-1.962,1.001-3.457,2.063-4.952
		C75.399,33.771,74.499,35.333,72.786,36.556z"/>
	<path style="fill-rule:evenodd;clip-rule:evenodd;" d="M67.698,33.967c-0.164,1.628-0.959,2.746-2.583,3.192
		C65.359,35.596,65.996,34.351,67.698,33.967z"/>
</g>
</svg>
