<?xml version="1.0" encoding="iso-8859-1"?>
<!-- Generator: Adobe Illustrator 16.0.0, SVG Export Plug-In . SVG Version: 6.00 Build 0)  -->
<!DOCTYPE svg PUBLIC "-//W3C//DTD SVG 1.1//EN" "http://www.w3.org/Graphics/SVG/1.1/DTD/svg11.dtd">
<svg version="1.1" id="Layer_1" xmlns="http://www.w3.org/2000/svg" xmlns:xlink="http://www.w3.org/1999/xlink" x="0px" y="0px"
	 width="61.495px" height="86.977px" viewBox="0 0 61.495 86.977" style="enable-background:new 0 0 61.495 86.977;"
	 xml:space="preserve">
<g>
	<path style="fill-rule:evenodd;clip-rule:evenodd;" d="M31.559,26.902c-1.989-0.425-2.11-1.19-1.718-3.36
		c0.865-4.783,1.202-9.745-0.379-14.556c3.225,2.61,2.77,6.228,2.337,9.638C31.447,21.403,31.013,24.121,31.559,26.902z"/>
	<path style="fill-rule:evenodd;clip-rule:evenodd;" d="M48.417,7.121c0.336,0.382,0.673,0.764,1.011,1.145
		c-0.478,2.489-1.153,4.783-4.332,4.924c-1.156,0.051-2.088-0.604-2.375-1.436c-0.223-0.646,0.667-1.49,1.561-1.535
		C46.395,10.115,47.35,8.565,48.417,7.121z"/>
	<path style="fill-rule:evenodd;clip-rule:evenodd;" d="M26.24,24.642c-0.374,0.272-0.748,0.544-1.122,0.819
		c0.082-5.146,0.164-10.296,0.247-15.445c1.731,1.008,0.397,2.83,1.093,4.113C26.8,17.642,27.137,21.154,26.24,24.642z"/>
	<path style="fill-rule:evenodd;clip-rule:evenodd;" d="M3.118,46.336c-0.325,4.316-0.65,8.632-0.975,12.947
		c-0.324,0.246-0.572,0.199-0.734-0.188C1.113,54.727,0.675,50.338,3.118,46.336z"/>
	<path style="fill-rule:evenodd;clip-rule:evenodd;" d="M34.032,20.25c-1.23-2.725-1.307-5.439,0.078-8.141
		c0.181,0.162,0.361,0.324,0.543,0.485c0.168,2.175,0.055,4.354,0.072,6.53C34.728,19.645,34.509,20.026,34.032,20.25z"/>
	<path style="fill-rule:evenodd;clip-rule:evenodd;" d="M38.1,20.191c-1.383-2.712-1.306-5.417,0.049-8.113
		c0.788,0.719,0.581,1.527,0.211,2.35c-0.006,1.152-0.011,2.304-0.017,3.456C38.766,18.706,38.943,19.503,38.1,20.191z"/>
	<path style="fill-rule:evenodd;clip-rule:evenodd;" d="M38.1,20.191c0.081-0.769,0.162-1.537,0.243-2.307
		c1.351,2.315,0.982,4.853,0.944,7.349C37.274,23.934,38.409,21.893,38.1,20.191z"/>
	<path style="fill-rule:evenodd;clip-rule:evenodd;" d="M1.409,59.096c0.25,0.045,0.494,0.106,0.734,0.187
		c-0.479,1.986,1.748,3.502,0.961,5.54C1.462,63.23,0.94,61.31,1.409,59.096z"/>
	<path style="fill-rule:evenodd;clip-rule:evenodd;" d="M36.137,7.148c0.563,1.839-0.546,3.342-0.999,4.978
		c-0.208-0.015-0.416-0.029-0.624-0.044L34.11,12.11C34.773,10.45,33.99,8.201,36.137,7.148z"/>
	<path style="fill-rule:evenodd;clip-rule:evenodd;" d="M60.385,52.605c-1.73-1.87-0.945-4.366-1.619-6.5
		C61.638,47.69,60.189,50.353,60.385,52.605z"/>
	<path style="fill-rule:evenodd;clip-rule:evenodd;" d="M35.1,20.119c-0.23,1.995,1.504,4.205-0.653,5.989
		c-0.138-1.954-0.276-3.908-0.414-5.86c0,0.002,0.411-0.125,0.411-0.125C34.662,20.122,34.881,20.12,35.1,20.119z"/>
	<path style="fill-rule:evenodd;clip-rule:evenodd;" d="M38.359,14.428c-0.07-0.783-0.141-1.567-0.211-2.351
		c0.216-1.191-0.258-2.614,1.144-3.41C39.701,10.703,39.361,12.619,38.359,14.428z"/>
	<path style="fill-rule:evenodd;clip-rule:evenodd;" d="M60.385,52.605c-1.685-1.882,0.616-4.756-1.62-6.501
		c-1.563-7.633-8.139-11.746-12.364-17.506c-0.854-1.164-2.349-1.719-3.955-1.553c-1.46,0.15-2.485-0.545-3.158-1.813
		c-1.139-1.57-0.183-3.429-0.7-5.085c-1.169-2.627-1.233-5.262-0.052-7.904c0.345-1.174,0.01-2.49,0.757-3.578
		c2.699-6.199,4.761-6.548,9.125-1.545c0.23,0.475,0.329,1.068,1.012,1.144c2.473-1.387,2.665-2.896,0.66-5.042
		C46.072-1.078,38.84,0.896,36.137,7.148c-0.519,1.799-1.359,3.498-1.637,5.369c-0.329,2.428-0.354,4.854,0.028,7.281
		c0.333,2.108,0.515,4.214-0.082,6.31c-0.687,1.271-1.777,1.071-2.888,0.794c-2.172-2.494-0.635-5.302-0.545-7.934
		c0.117-3.467,0.602-6.902-1.552-9.983c0.171-3.774-2.79-5.541-5.228-7.228c-3.738-2.587-6.777,0.648-9.7,2.311
		c-2.578,1.465-1.179,4.448-1.242,6.732c-0.101,3.657,3.388,1.578,4.723,3.271c0.472-1.378,0.39-2.171-0.194-2.845
		c-1.084-1.254-2.572-2.587-1.319-4.289c1.088-1.479,3.058-0.889,4.646-0.85c2.467,0.06,3.885,1.464,4.218,3.927
		c0.835,1.317,0.126,2.856,0.611,4.225c0.509,3.1,0.402,6.204,0.09,9.312c-0.246,0.673-0.505,1.34-0.95,1.913
		c-0.9,1.441-2.282,1.958-3.843,1.62c-3.016-0.651-5.685,1.028-6.854,2.893c-2.07,3.302-5.558,5.186-7.365,8.692
		c-1.313,2.548-3.555,4.617-3.937,7.666c-1.383,3.98-1.488,8.1-1.328,12.249c-0.338,2.243,0.586,4.219,1.314,6.235
		c4.284,8.477,8.714,16.841,18.584,20.139c5.705,1.906,11.345,1.271,17.217,0.213c7.854-1.414,11.143-7.566,15.41-12.861
		C58.95,66.558,61.222,60.055,60.385,52.605z M53.224,62.4l-0.061,0.288c-0.516,1.546-0.688,3.257-2.123,4.354
		c-1.65,6.934-6.833,10.745-13.075,11.832c-8.116,1.414-16.383,0.591-23.178-5.11c-6.076-5.098-7.985-17.965-4.232-26.267
		c5.054-11.178,12.331-14.893,23.398-13.037c7.343,1.23,15.122,4.322,16.867,13.625c1.869,1.175,1.306,3.526,2.444,5.056
		l0.043-0.074C53.958,56.185,54.07,59.297,53.224,62.4z"/>
	<path style="fill-rule:evenodd;clip-rule:evenodd;" d="M26.24,24.642c0.072-3.504,0.145-7.009,0.218-10.513
		C27.684,17.66,27.983,21.172,26.24,24.642z"/>
	<path style="fill-rule:evenodd;clip-rule:evenodd;" d="M53.224,62.4c0.028-3.111,0.056-6.222,0.084-9.334
		C55.145,56.195,54.724,59.303,53.224,62.4z"/>
	<path style="fill-rule:evenodd;clip-rule:evenodd;" d="M35.1,20.119c-0.219,0.003-0.438,0.004-0.656,0.004
		c0.023-2.681,0.047-5.361,0.07-8.041c0.208,0.018,0.416,0.032,0.624,0.044C35.125,14.79,35.112,17.455,35.1,20.119z"/>
	<path style="fill-rule:evenodd;clip-rule:evenodd;" d="M53.265,53.141c-1.892-1.165-1.743-3.314-2.443-5.056
		C53.417,48.909,53.284,51.052,53.265,53.141z"/>
	<path style="fill-rule:evenodd;clip-rule:evenodd;" d="M51.04,67.042c0.563-1.52,0.627-3.284,2.123-4.352
		C53.263,64.534,53.563,66.477,51.04,67.042z"/>
</g>
</svg>
