<?xml version="1.0" encoding="iso-8859-1"?>
<!-- Generator: Adobe Illustrator 16.0.0, SVG Export Plug-In . SVG Version: 6.00 Build 0)  -->
<!DOCTYPE svg PUBLIC "-//W3C//DTD SVG 1.1//EN" "http://www.w3.org/Graphics/SVG/1.1/DTD/svg11.dtd">
<svg version="1.1" id="Layer_1" xmlns="http://www.w3.org/2000/svg" xmlns:xlink="http://www.w3.org/1999/xlink" x="0px" y="0px"
	 width="43.488px" height="82.333px" viewBox="0 0 43.488 82.333" style="enable-background:new 0 0 43.488 82.333;"
	 xml:space="preserve">
<g>
	<path style="fill-rule:evenodd;clip-rule:evenodd;" d="M28.407,78.068c-4.47-2.932-8.939-5.861-13.41-8.793
		c-3.014-2.391-4.557-5.996-7.184-8.709c-1.807-1.814-3.59-3.641-3.224-6.527c0.094-1.943-1.401-3.311-1.835-5.068
		c-0.093-0.424-0.139-0.85-0.147-1.283c0.431-3.502,0.396-7.002,0.02-10.504c-0.041-0.452-0.082-0.904-0.124-1.357
		c0.068-1.004,0.408-1.944,0.685-2.9c0.132-2.451,1.332-4.637,1.736-7.02c0.006-0.229,0.069-0.441,0.19-0.636
		c1.008-1.282,1.665-2.792,2.659-4.082c0.968-1.574,1.936-3.148,2.904-4.722c1.252-1.029,2.615-1.961,3.112-3.636
		c2.946-2.531,5.643-5.423,9.551-6.55c1.578-2.803,5.027-1.536,7.1-3.264c1.555-0.37,3.166-0.146,4.744-0.533
		c1.248-0.306,2.688-0.463,3.662,0.763c0.316,0.399,0.359,1.074-0.018,1.504c-1.014,1.163-2.279,1.138-3.604,0.592
		c-1.305-0.011-2.658-0.544-3.875,0.371c-0.652,2.164-3.158,2.994-3.744,5.204c-0.791,1.362-1.324,2.972-3.172,3.322
		c-0.803-0.285-0.916-1.294-1.696-1.597c-0.636-0.146-1.223,0.038-1.808,0.249c-0.938,0.319-1.917,0.531-2.729,1.147
		c-1.333,1.455-2.671,2.897-3.788,4.525c-1.236,1.561-1.606,3.585-2.761,5.188c-1.247,0.979-2.574,1.898-2.734,3.689
		c-0.604,2.251-1.887,4.283-2.089,6.659c-0.278,6.967-0.425,13.914,2.42,20.5c0.369,1.281,1.084,2.313,2.231,3.025
		c1,0.854,1.615,1.926,1.845,3.217c0.29,1.941,2.142,2.643,3.184,3.982c1.123,1.311,2.566,2.221,3.973,3.172
		c1.213,1.014,2.485,0.387,3.743,0.125c0.917-0.027,1.711,0.324,2.475,0.777c0.885,0.635,1.313,1.611,1.861,2.5
		c0.531,1.084,1.287,2.006,2.082,2.908c0.215,0.297,0.369,0.619,0.477,0.967c0.154,0.754,0.105,1.479-0.281,2.162
		C30.147,78.095,29.459,78.785,28.407,78.068z"/>
	<path style="fill-rule:evenodd;clip-rule:evenodd;" d="M27.823,71.603c-0.427-0.707-0.854-1.412-1.278-2.117
		c-1.469-1.896-2.31-4.254-4.275-5.785c-0.195-0.342-0.332-0.703-0.425-1.084c-0.264-1.531-0.03-3.16-0.924-4.568
		c-1.454-3.326-1.898-6.891-2.485-10.424c0.005-1.541-0.186-3.107,0.585-4.549c0.314-0.422,0.695-0.49,1.138-0.209
		c0.659,12.859,5.539,23.979,13.878,33.672c-1.887,1.494-2.09,1.396-3.383-1.635l0.008-0.133
		C29.698,73.732,28.991,72.46,27.823,71.603z"/>
	<path style="fill-rule:evenodd;clip-rule:evenodd;" d="M30.655,74.904c1.209,0.373,1.121,3.424,3.379,1.635
		c1.75-0.244,3.756-1.334,5.053,0.572c1.037,1.523,0.488,3.045-1.266,3.93c-2.875-0.35-6.346,0.412-7.146-3.82
		C30.668,76.449,30.661,75.675,30.655,74.904z"/>
	<path style="fill-rule:evenodd;clip-rule:evenodd;" d="M24.239,14.133c1.601-0.55,1.512-2.481,2.73-3.342
		c0.396-0.315,0.826-0.38,1.297-0.195c0.441,2.552-1.667,4.112-2.748,5.849c-1.75,2.809-1.457,6.347-3.715,8.831
		c-0.911,1.305-0.304,2.774-0.423,4.163c-0.091,1.054-0.341,1.783-1.572,1.697c-1.546-1.858-0.234-3.889-0.357-5.832
		c0.083-0.385,0.225-0.752,0.402-1.104c1.507-1.557,2.05-3.461,1.962-5.588C22.208,16.894,22.963,15.372,24.239,14.133z"/>
	<path style="fill-rule:evenodd;clip-rule:evenodd;" d="M19.458,30.89c3.179-0.872,0.355-4.249,2.345-5.617
		c0.108,5.926-0.558,11.779-1.643,17.593c-0.222-0.033-0.442-0.076-0.66-0.127c-2.104-3.126-0.848-6.603-1.038-9.93
		C18.58,32.059,18.827,31.374,19.458,30.89z"/>
	<path style="fill-rule:evenodd;clip-rule:evenodd;" d="M35.225,5.342c1.07-0.528,2.521-0.164,3.596-1.477
		c-2.9-1.527-5.738,0.284-8.393-0.497c-0.301-0.489-0.26-0.925,0.203-1.293c2.617-0.24,5.232-0.48,7.85-0.721
		c1.912,0.784,2.09,2.349,1.373,3.895c-0.885,1.905-2.686,1.032-4.18,0.944C35.524,5.91,35.374,5.626,35.225,5.342z"/>
	<path style="fill-rule:evenodd;clip-rule:evenodd;" d="M35.674,6.194c4.486-0.568,4.674-0.891,2.805-4.839
		c2.201-0.378,3.893,0.552,3.914,2.705c0.02,2.078-2.105,2.449-3.789,2.664C37.647,6.845,36.491,7.213,35.674,6.194z"/>
	<path style="fill-rule:evenodd;clip-rule:evenodd;" d="M8.053,60.203c2.623,2.787,5.05,5.725,6.943,9.072
		c-3.257-1.805-5.294-4.682-6.956-7.893C7.8,60.986,7.805,60.593,8.053,60.203z"/>
	<path style="fill-rule:evenodd;clip-rule:evenodd;" d="M30.674,77.22c1.369,3.172,4.439,3.166,7.15,3.822
		c-3.795,1.068-6.654-0.811-9.422-2.975C29.163,77.785,29.918,77.503,30.674,77.22z"/>
	<path style="fill-rule:evenodd;clip-rule:evenodd;" d="M8.053,60.203c-0.004,0.393-0.009,0.785-0.013,1.18
		c-3.001-1.564-4.303-4.012-3.838-7.381c0.38-0.215,0.631-0.127,0.733,0.313C4.901,56.845,7.024,58.234,8.053,60.203z"/>
	<path style="fill-rule:evenodd;clip-rule:evenodd;" d="M2.627,37.183c1.444,3.732,0.414,7.637,0.804,11.442
		c-2.141-0.658-1.089-2.213-0.979-3.502C2.435,42.474,1.084,39.797,2.627,37.183z"/>
	<path style="fill-rule:evenodd;clip-rule:evenodd;" d="M30.631,2.075c-0.068,0.432-0.137,0.863-0.205,1.294
		c-2.031,1.77-5.174,0.84-7.086,2.909c-0.201-1.729,0.753-2.086,2.281-2.371C27.346,3.586,28.967,2.71,30.631,2.075z"/>
	<path style="fill-rule:evenodd;clip-rule:evenodd;" d="M4.924,25.905c0.427,2.644-0.653,4.988-1.464,7.387
		c-0.852-0.582-0.281-1.491-0.51-2.216C3.233,29.21,3.823,27.459,4.924,25.905z"/>
	<path style="fill-rule:evenodd;clip-rule:evenodd;" d="M28.266,10.595c-0.432,0.064-0.862,0.129-1.295,0.194
		c1.01-2.078,2.971-3.337,4.379-5.076C31.932,8.356,29.03,8.801,28.266,10.595z"/>
	<path style="fill-rule:evenodd;clip-rule:evenodd;" d="M2.451,45.123c0.326,1.166-0.188,2.566,0.979,3.5
		c0.024,0.279,0.048,0.557,0.073,0.834c0.178,0.715,0.555,1.57-0.832,1.201C1.541,48.853,1.113,47.025,2.451,45.123z"/>
	<path style="fill-rule:evenodd;clip-rule:evenodd;" d="M7.774,21.188c-0.045,1.909-0.863,3.313-2.659,4.082
		C5.158,23.359,6.338,22.19,7.774,21.188z"/>
	<path style="fill-rule:evenodd;clip-rule:evenodd;" d="M2.951,31.076c0.17,0.739,0.339,1.479,0.51,2.217
		c-0.039,0.949,0.19,2.001-0.957,2.532C1.658,34.149,2.415,32.623,2.951,31.076z"/>
	<path style="fill-rule:evenodd;clip-rule:evenodd;" d="M2.671,50.658c0.682-0.125,0.646-0.742,0.831-1.205
		c0.869,1.506,1.601,3.047,1.434,4.857c-0.236-0.119-0.48-0.223-0.733-0.307C3.692,52.888,3.181,51.773,2.671,50.658z"/>
	<path style="fill-rule:evenodd;clip-rule:evenodd;" d="M13.79,12.83c-0.234,1.899-1.007,3.338-3.112,3.636
		C11.283,14.883,12.643,13.948,13.79,12.83z"/>
	<path style="fill-rule:evenodd;clip-rule:evenodd;" d="M24.239,14.133c0.529,1.85-1.406,2.778-1.626,4.346
		c-0.545,2.097-0.931,4.257-2.408,5.978l-0.003-0.063c-1.259,1.736,0.767,4.794-2.328,5.793c-1.047-0.855-1.032-2.165-1.421-3.304
		c-0.2-1.396,0.152-2.709,0.613-4.004c0.683-1.299,1.257-2.656,1.952-3.952c0.418-0.993,0.796-2.008,1.509-2.843
		c1.053-1.409,1.705-3.073,2.812-4.449C24.43,12.182,24.122,13.234,24.239,14.133z"/>
	<path style="fill-rule:evenodd;clip-rule:evenodd;" d="M6.718,34.237C6.13,40.96,7.535,47.449,9.021,53.927
		c0.232,0.383,0.382,0.789,0.383,1.244c-0.094,0.297-0.292,0.488-0.592,0.574c-3.742-7.141-3.233-14.817-2.834-22.48
		C6.737,33.2,7.009,33.504,6.718,34.237z"/>
	<path style="fill-rule:evenodd;clip-rule:evenodd;" d="M14.641,18.287c0.033,4.371-2.885,7.431-4.843,10.918
		c-1.924-2.613,0.374-4.059,1.604-5.8c0.309-2.052,1.291-3.791,2.529-5.408C14.32,17.72,14.549,17.834,14.641,18.287z"/>
	<path style="fill-rule:evenodd;clip-rule:evenodd;" d="M6.718,34.237c-0.247-0.323-0.494-0.647-0.74-0.971
		c0.038-2.413,1.718-4.236,2.311-6.448c1.869,0.645,1.026,1.907,0.695,3.052C8.614,31.525,7.772,32.938,6.718,34.237z"/>
	<path style="fill-rule:evenodd;clip-rule:evenodd;" d="M22.711,63.509c2.717,1.068,3.116,3.625,3.833,5.975
		c-0.748-0.361-1.498-0.727-2.248-1.09c-0.326-0.191-0.579-0.453-0.764-0.781C23.198,66.259,21.807,65.111,22.711,63.509z"/>
	<path style="fill-rule:evenodd;clip-rule:evenodd;" d="M23.338,11.635c0.241,2.164-1.482,3.391-2.392,5.005
		c-0.661-0.55-0.341-1.423-0.682-2.078c0.215-0.719,0.43-1.438,0.645-2.159C21.425,11.218,22.424,11.561,23.338,11.635z"/>
	<path style="fill-rule:evenodd;clip-rule:evenodd;" d="M8.984,29.87c-0.367-0.986,0.55-2.265-0.695-3.052
		c-0.123-2.195,1.379-2.909,3.112-3.412c-0.034,2.07-2.336,3.515-1.604,5.798C9.527,29.427,9.255,29.648,8.984,29.87z"/>
	<path style="fill-rule:evenodd;clip-rule:evenodd;" d="M24.074,67.652c0.099,0.24,0.173,0.486,0.222,0.742
		c-1.157,0.717-2.262,2.027-3.625,0.314c0.839-0.463,0.875-1.336,1.093-2.115C22.942,66.054,23.582,66.691,24.074,67.652z"/>
	<path style="fill-rule:evenodd;clip-rule:evenodd;" d="M14.641,18.287c-0.201-0.185-0.437-0.281-0.71-0.29
		c1.349-1.535,2.696-3.072,4.045-4.608C18.087,15.854,15.908,16.759,14.641,18.287z"/>
	<path style="fill-rule:evenodd;clip-rule:evenodd;" d="M12.908,61.041c1.36,1.199,3.139,2.082,3.221,4.248
		C14.969,63.939,12.553,63.541,12.908,61.041z"/>
	<path style="fill-rule:evenodd;clip-rule:evenodd;" d="M27.823,71.603c1.443,0.611,2.744,1.35,2.84,3.168
		C29.325,74.066,28.403,72.988,27.823,71.603z"/>
	<path style="fill-rule:evenodd;clip-rule:evenodd;" d="M11.294,57.367c0.002,0.352,0.004,0.701,0.007,1.053
		c-1.177-0.566-2.135-1.34-2.489-2.674c0.116-0.08,0.232-0.158,0.351-0.236C10.542,55.361,10.791,56.509,11.294,57.367z"/>
	<path style="fill-rule:evenodd;clip-rule:evenodd;" d="M24.074,67.652c-0.77-0.354-1.54-0.703-2.311-1.057
		c-0.004-1.203-1.163-1.729-1.574-2.691c-0.946-3.131-3.002-5.877-3.229-9.262c-0.202-2.008-0.49-4.025,0.466-5.941
		c2.363-0.703,1.607,1.451,1.8,2.268c0.683,2.885,0.761,5.924,2.418,8.535c0.261,1.193,0.303,2.447,0.971,3.533
		c0.033,0.156,0.064,0.314,0.096,0.473C23.019,64.939,24.586,65.953,24.074,67.652z"/>
	<path style="fill-rule:evenodd;clip-rule:evenodd;" d="M21.233,60.425c-2.225-3.691-1.905-8.109-3.434-12
		c-0.218-0.365-0.171-0.701,0.104-1.016c0.578-0.203,1.117-0.289,1.384,0.455c0.997,3.311,0.758,6.938,2.546,10.047
		C22.095,58.861,22.76,59.906,21.233,60.425z"/>
	<path style="fill-rule:evenodd;clip-rule:evenodd;" d="M19.288,47.865c-0.467-0.182-0.936-0.361-1.403-0.543
		c-0.189-0.383-0.282-0.789-0.287-1.219c0.076-2.727,0.021-5.454-0.002-8.184c0.082-1.746-0.217-3.533,0.575-5.2
		c0.273-0.42,0.654-0.57,1.141-0.451c0.063,3.49,0.125,6.981,0.188,10.472C19.43,44.447,19.358,46.156,19.288,47.865z"/>
	<path style="fill-rule:evenodd;clip-rule:evenodd;" d="M21.233,60.425c0.798-0.693,0.435-1.666,0.601-2.512
		c0.941,1.604,1.135,3.32,0.781,5.121C21.708,62.402,21.481,61.408,21.233,60.425z"/>
	<path style="fill-rule:evenodd;clip-rule:evenodd;" d="M19.311,32.268c-0.213,0.104-0.419,0.221-0.619,0.349
		c-0.593-0.144-0.988-0.521-1.251-1.057c-0.15-0.585-0.085-1.115,0.404-1.533c2.043-1.351,0.828-4.066,2.357-5.633
		c0.249,2.222-0.02,4.385-0.744,6.497C19.409,31.349,19.36,31.808,19.311,32.268z"/>
	<path style="fill-rule:evenodd;clip-rule:evenodd;" d="M20.205,24.457c0.221-2.225,1.446-4.045,2.407-5.975
		C22.542,20.767,22.904,23.228,20.205,24.457z"/>
	<path style="fill-rule:evenodd;clip-rule:evenodd;" d="M17.851,22.682c-0.497,1.294-1.182,2.552-0.793,4.021
		c0.883,3.32-1.001,6.345-1.013,9.572c-0.65,1.592-0.163,3.519-1.437,4.929c-1.613-2.352-0.717-4.837-0.359-7.277
		c0.623-4.252,1.321-8.491,2.715-12.577C17.601,21.566,17.916,21.998,17.851,22.682z"/>
	<path style="fill-rule:evenodd;clip-rule:evenodd;" d="M17.665,55.052c0.724,2.982,2.294,5.723,2.524,8.85
		c-1.314-1.104-1.866-2.662-2.473-4.188c-0.365-1.045-0.629-2.133-1.271-3.061c-0.112-0.584-0.223-1.168-0.335-1.75
		c-0.341-1-0.796-2.027,0.594-2.639C17.878,52.9,17.024,54.234,17.665,55.052z"/>
	<path style="fill-rule:evenodd;clip-rule:evenodd;" d="M14.608,41.203c0.255-1.59-0.595-3.334,0.672-4.782
		c2.198,3.445,0.74,7.256,1.097,10.887c-0.085,1.018-0.223,2.014-1.127,2.688C13.984,47.142,14.365,44.167,14.608,41.203z"/>
	<path style="fill-rule:evenodd;clip-rule:evenodd;" d="M15.249,49.996c0.084-0.863,0.167-1.723,0.25-2.586
		c0.432-0.078,0.791,0.051,1.079,0.381c0.729,1.475,1.187,2.979,0.426,4.592c-0.976,0.602-0.752,1.627-0.894,2.521
		C14.907,53.429,15.709,51.601,15.249,49.996z"/>
	<path style="fill-rule:evenodd;clip-rule:evenodd;" d="M20.265,14.562c0.724,0.527,0.567,1.346,0.683,2.076
		c-0.532,0.767-1.063,1.531-1.593,2.296c-0.276,0.185-0.507,0.14-0.692-0.138C18.222,17.016,19.807,16.002,20.265,14.562z"/>
	<path style="fill-rule:evenodd;clip-rule:evenodd;" d="M18.662,18.796c0.237,0.012,0.469,0.057,0.692,0.137
		c-0.502,1.251-1.004,2.501-1.505,3.75c-0.295-0.446-0.59-0.89-0.886-1.334C17.53,20.498,18.096,19.647,18.662,18.796z"/>
	<path style="fill-rule:evenodd;clip-rule:evenodd;" d="M11.294,57.367c-0.711-0.619-1.421-1.238-2.131-1.857
		c-0.047-0.527-0.095-1.053-0.142-1.58C10.375,54.681,11.878,55.333,11.294,57.367z"/>
	<path style="fill-rule:evenodd;clip-rule:evenodd;" d="M16.445,56.654c1.131,0.725,1.493,1.771,1.271,3.061
		C16.898,58.857,16.055,58.011,16.445,56.654z"/>
	<path style="fill-rule:evenodd;clip-rule:evenodd;" d="M16.073,47.876c-0.223-0.115-0.415-0.271-0.574-0.465
		c-0.073-3.664-0.146-7.327-0.22-10.991c-0.27-3.396,1.578-6.406,1.778-9.717c1.055,0.919,0.626,2.191,0.787,3.323
		c0.054,0.557,0.107,1.114,0.161,1.671c0.169,0.526,0.172,1.051-0.01,1.575c-0.514,0.751-0.885,1.555-0.881,2.495
		c-0.031,1.608,0.034,3.211,0.053,4.817c0.02,0.885,0.03,1.766,0.032,2.651C17.083,44.847,17.487,46.585,16.073,47.876z"/>
	<path style="fill-rule:evenodd;clip-rule:evenodd;" d="M16.073,47.876c0.041-1.691,0.082-3.383,0.123-5.074
		c2.158,0.326,1.255,2.131,1.606,3.328c0.039,0.352,0.074,0.705,0.107,1.059c0,0-0.024,0.139-0.024,0.135
		c-0.029,0.365-0.057,0.732-0.085,1.1c-0.045,2.211-0.09,4.42-0.135,6.629c-0.832-0.738-0.432-1.779-0.66-2.668
		C17.705,50.673,16.31,49.394,16.073,47.876z"/>
	<path style="fill-rule:evenodd;clip-rule:evenodd;" d="M18.479,38c-0.294,3.056,0.955,6.207-0.569,9.187
		c-0.092-0.105-0.171-0.223-0.237-0.348c-0.45-1.936-0.242-3.945-0.667-5.883c0.014-0.882-0.058-1.776,0.36-2.604
		C17.635,37.916,18.007,37.799,18.479,38z"/>
	<path style="fill-rule:evenodd;clip-rule:evenodd;" d="M18.479,38c-0.186,0.021-0.373,0.039-0.56,0.052
		c-1.408-1.593-1.075-3.241-0.16-4.909c0.082-0.482,0.164-0.964,0.246-1.445c0.229,0.306,0.458,0.612,0.687,0.919
		C18.621,34.412,18.55,36.206,18.479,38z"/>
	<path style="fill-rule:evenodd;clip-rule:evenodd;" d="M17.432,40.423c0.08,2.139,0.16,4.278,0.241,6.417
		c-1.372-1.023-0.032-3.041-1.478-4.037c0.004-0.783,0.008-1.567,0.012-2.35c0.211-0.287,0.496-0.395,0.844-0.35
		C17.178,40.209,17.305,40.316,17.432,40.423z"/>
	<path style="fill-rule:evenodd;clip-rule:evenodd;" d="M17.432,40.423c-0.21-0.026-0.42-0.054-0.628-0.083
		c-0.602-1.777,0.259-3.697-0.53-5.456c-0.159-1.139,0.417-1.649,1.486-1.74c0.053,1.636,0.106,3.271,0.16,4.908
		C17.757,38.843,17.594,39.633,17.432,40.423z"/>
	<path style="fill-rule:evenodd;clip-rule:evenodd;" d="M16.273,34.884c1.416,1.697,0.485,3.626,0.532,5.457
		c-0.196,0.063-0.395,0.101-0.599,0.111C16.229,38.596,16.251,36.74,16.273,34.884z"/>
</g>
</svg>
