<?xml version="1.0" encoding="iso-8859-1"?>
<!-- Generator: Adobe Illustrator 16.0.0, SVG Export Plug-In . SVG Version: 6.00 Build 0)  -->
<!DOCTYPE svg PUBLIC "-//W3C//DTD SVG 1.1//EN" "http://www.w3.org/Graphics/SVG/1.1/DTD/svg11.dtd">
<svg version="1.1" id="Layer_1" xmlns="http://www.w3.org/2000/svg" xmlns:xlink="http://www.w3.org/1999/xlink" x="0px" y="0px"
	 width="83.578px" height="58.55px" viewBox="0 0 83.578 58.55" style="enable-background:new 0 0 83.578 58.55;"
	 xml:space="preserve">
<g>
	<path style="fill-rule:evenodd;clip-rule:evenodd;" d="M43.124,49.272c0.832-0.037,1.674-0.188,2.49-0.094
		c11.605,1.35,18.607-5.519,24.803-13.843c0.691-1.495,1.59-2.907,1.855-4.574c0.078-0.308,0.205-0.594,0.383-0.857
		c2.293-1.635,1.492-4.354,2.285-6.519c0.217-1.438-0.477-2.987,0.537-4.325c2.332,0.771,6.123-2.785,6.988,2.351
		c-0.816,2.289-0.887,4.796-2.035,6.988c-2.883,8.995-7.145,16.886-15.35,22.403c-7.75,5.21-16.412,8.198-25.036,5.699
		c-9.77-2.831-19.578-7.328-22.58-18.938c-0.529-2.049-1.909-3.579-2.583-5.59c-1.731-5.161-5.855-5.846-9.921-2.053
		c-0.604,0.563-1.111,1.24-1.764,1.729c-0.543,0.406-0.949,1.485-1.976,0.486c-1.046-1.02,0.01-1.455,0.474-1.913
		c2.697-2.655,4.852-5.632,5.885-9.327c1.23-1.496,1.307-3.385,1.742-5.15c0.057-0.231,0.129-0.457,0.217-0.678
		c0.758-1.011,1.293-2.139,1.744-3.312c-0.24-0.604-0.48-1.208-0.719-1.813c2.086-1.395,1.357-3.938,2.357-5.78
		c0.283-0.385,0.656-0.573,1.137-0.541c1.947,1.303,1.472,3.67,2.386,5.426c2.61,6.1,3.944,12.791,8.451,18.05
		c-1.729,1.763-3.276,0.133-4.763-0.188c-0.162,8.803,4.967,14.214,11.602,18.877c2.262,1.59,5.623,0.187,7.176,3.09
		c1.296,0.826,2.836,0.255,4.206,0.74c0.617,0.218,0.854,0.188,0.197,0.083C43.229,49.687,43.187,49.42,43.124,49.272z"/>
	<path style="fill-rule:evenodd;clip-rule:evenodd;" d="M75.22,23.863c0.182,2.453,0.85,5.114-2.564,6.042
		c0.523-2.043,1.047-4.086,1.572-6.128C74.595,23.385,74.925,23.415,75.22,23.863z"/>
	<path style="fill-rule:evenodd;clip-rule:evenodd;" d="M16.445,9.048c-0.944-1.817-1.888-3.635-2.831-5.452
		c-0.274-0.27-0.363-0.536-0.266-0.799c0.097-0.262,0.192-0.393,0.286-0.393C16.871,3.647,16.298,6.5,16.445,9.048z"/>
	<path style="fill-rule:evenodd;clip-rule:evenodd;" d="M80.431,28.399c0.219-2.462,0.307-4.964,2.035-6.988
		C82.497,23.947,83.124,26.657,80.431,28.399z"/>
	<path style="fill-rule:evenodd;clip-rule:evenodd;" d="M13.634,2.405c-0.007,0.397-0.014,0.795-0.021,1.191L13.31,3.879
		c-0.679,0.679-0.089,2.318-1.724,2.273c-0.01-1.417-0.438-3.007,0.064-4.21C12.499-0.092,13.151,1.369,13.634,2.405z"/>
	<path style="fill-rule:evenodd;clip-rule:evenodd;" d="M11.586,6.153c0.576-0.758,1.15-1.516,1.724-2.273
		c-0.622,2.153,0.535,5.114-2.745,6.064C10.905,8.68,11.247,7.417,11.586,6.153z"/>
	<path style="fill-rule:evenodd;clip-rule:evenodd;" d="M9.323,15.746c0.248,1.997,0.381,3.956-1.742,5.15
		C7.689,19.02,8.304,17.314,9.323,15.746z"/>
	<path style="fill-rule:evenodd;clip-rule:evenodd;" d="M75.22,23.863c-0.332-0.009-0.664-0.037-0.992-0.086
		c0.525-1.544-1.041-3.642,1.25-4.717C75.392,20.661,75.306,22.261,75.22,23.863z"/>
	<path style="fill-rule:evenodd;clip-rule:evenodd;" d="M11.284,11.756c0.154,1.49,0.305,2.979-1.744,3.311
		C9.442,13.607,9.731,12.349,11.284,11.756z"/>
	<path style="fill-rule:evenodd;clip-rule:evenodd;" d="M72.272,30.761c0.379,1.929-0.191,3.474-1.855,4.574
		C70.286,33.506,70.892,31.977,72.272,30.761z"/>
	<path style="fill-rule:evenodd;clip-rule:evenodd;" d="M43.124,49.272c-1.43,0.139-2.942,1.16-4.213-0.396
		C40.315,49.008,41.719,49.14,43.124,49.272z"/>
</g>
</svg>
