<?xml version="1.0" encoding="iso-8859-1"?>
<!-- Generator: Adobe Illustrator 16.0.0, SVG Export Plug-In . SVG Version: 6.00 Build 0)  -->
<!DOCTYPE svg PUBLIC "-//W3C//DTD SVG 1.1//EN" "http://www.w3.org/Graphics/SVG/1.1/DTD/svg11.dtd">
<svg version="1.1" id="Layer_1" xmlns="http://www.w3.org/2000/svg" xmlns:xlink="http://www.w3.org/1999/xlink" x="0px" y="0px"
	 width="100px" height="85.73px" viewBox="0 0 100 85.73" style="enable-background:new 0 0 100 85.73;" xml:space="preserve">
<g>
	<path style="fill-rule:evenodd;clip-rule:evenodd;" d="M98.345,48.562c-13.169-0.072-26.338-0.146-39.508-0.216
		c-0.254-0.002-0.508,0.062-0.764,0.065c-5.351,0.085-5.166,0.079-5.337-5.312c-0.197-6.232-0.625-12.45,0.595-18.629
		c0.771-0.269,0.195-1.224,0.804-1.575c0.895,0.783,0.782,1.836,0.726,2.851c-0.361,6.49,0.62,13.015-0.578,19.489
		c-0.518,2.799,1.839,2.345,3.276,2.371c4.854,0.092,9.714-0.059,14.57-0.068c7.803-0.017,15.606-0.027,23.408,0.045
		c1.025,0.01,2.327-0.682,3.1,0.683C98.539,48.364,98.442,48.463,98.345,48.562z"/>
	<path style="fill-rule:evenodd;clip-rule:evenodd;" d="M1.116,53.423c6.122-0.164,12.244-0.397,18.368-0.457
		c2.422-0.023,2.316,2.216,2.411,3.711c0.206,3.215,0.809,6.285,2.088,9.232c-0.063,2.636,1.075,4.699,3.032,6.375
		c1.396,1.523,2.796,3.047,4.195,4.572c-3.73,0.065-5.119-3.058-7.148-5.286c-1.531-1.683-0.732-4.825-2.076-5.788
		c-2.414-1.728-1.755-3.772-1.727-5.712c0.098-6.501,0.207-6.149-6.634-5.826C9.504,54.439,5.146,55.597,1.116,53.423z"/>
	<path style="fill-rule:evenodd;clip-rule:evenodd;" d="M66.188,79.15c3.501-3.485,7.017-6.92,9.285-11.449
		c1.653-3.304,1.911-7.112,3.967-10.233c0.542,0.127,0.85,0.443,0.836,1.022c-1.295,6.888-4.146,12.968-9.293,17.842
		C69.607,77.635,68.365,79.198,66.188,79.15z"/>
	<path style="fill-rule:evenodd;clip-rule:evenodd;" d="M48.632,22.844c0.03,7.638,0.065,15.274,0.086,22.912
		c0.003,0.978,0.316,2.103-1.011,2.565c-0.77-7.254-0.149-14.537-0.488-21.797c-0.063-1.367,0.16-2.512,0.791-3.648
		C48.2,22.544,48.407,22.518,48.632,22.844z"/>
	<path style="fill-rule:evenodd;clip-rule:evenodd;" d="M59.588,18.708c-2.419-5.221-5.903-9.979-6.88-15.827
		c0.808-0.567,1.373-0.51,1.576,0.583c0.882,4.762,4.099,8.598,5.276,13.224c0.343,1.351,2.001,1.078,2.236,2.319
		C60.986,19.454,60.198,19.742,59.588,18.708z"/>
	<path style="fill-rule:evenodd;clip-rule:evenodd;" d="M47.214,9.178c-1.949,2.471-3.898,4.939-5.848,7.41
		c-0.624,0.183-0.946-0.153-1.159-0.676c1.807-3.006,2.748-6.769,6.82-7.79C47.551,8.394,47.613,8.745,47.214,9.178z"/>
	<path style="fill-rule:evenodd;clip-rule:evenodd;" d="M47.214,9.178c-0.062-0.352-0.122-0.703-0.185-1.056
		c1.538-1.512,0.924-3.737,1.939-5.561c1.553-2.789,2.246-1.923,3.26,0.116C49.277,3.86,49.926,7.815,47.214,9.178z"/>
	<path style="fill-rule:evenodd;clip-rule:evenodd;" d="M98.345,48.562c0.091-0.105,0.188-0.204,0.292-0.296
		c0.7,5.146,0.7,5.166-4.336,5.139c-1.722-0.01-3.442-0.149-5.146-0.231c1.369-0.076,2.759-0.394,4.063-0.181
		C96.816,53.58,98.523,52.225,98.345,48.562z"/>
	<path style="fill-rule:evenodd;clip-rule:evenodd;" d="M54.135,22.896c-0.381,0.467,0.814,1.738-0.804,1.574
		c0.342-1.642-3.361-4.837,1.774-4.637C54.49,20.762,53.935,21.71,54.135,22.896z"/>
	<path style="fill-rule:evenodd;clip-rule:evenodd;" d="M80.275,58.49c-0.278-0.341-0.557-0.683-0.835-1.023
		c1.613-1.305,0.524-5.344,4.401-4.358C80.713,53.62,82.006,57.056,80.275,58.49z"/>
	<path style="fill-rule:evenodd;clip-rule:evenodd;" d="M37.942,22.021c-1.911,0.735-2.694-0.467-2.595-1.957
		c0.113-1.698,1.514-0.692,2.404-0.669C38.315,20.234,38.826,21.078,37.942,22.021z"/>
	<path style="fill-rule:evenodd;clip-rule:evenodd;" d="M59.588,18.708c0.736,0.099,1.473,0.199,2.209,0.299
		c0.805,0.899,2.035,1.701,0.715,3.093c-0.278,0.207-0.515,0.155-0.713-0.119C61.062,20.89,60.325,19.798,59.588,18.708z"/>
	<path style="fill-rule:evenodd;clip-rule:evenodd;" d="M37.942,22.021c-0.067-0.876-0.134-1.751-0.194-2.628
		c0.109-0.223,0.312-0.329,0.611-0.317c0.459-0.505,0.896-0.487,1.314,0.051c0.194,0.2,0.388,0.402,0.582,0.602
		C39.342,20.35,39.35,21.899,37.942,22.021z"/>
	<path style="fill-rule:evenodd;clip-rule:evenodd;" d="M48.632,22.844c-0.208,0.008-0.415,0.019-0.622,0.031
		c-0.102-1.502-0.158-3.035-2.131-3.343C48.659,19.447,48.684,19.478,48.632,22.844z"/>
	<path style="fill-rule:evenodd;clip-rule:evenodd;" d="M39.674,19.127c-0.438-0.017-0.876-0.034-1.314-0.051
		c0.271-1.256,0.705-2.418,1.849-3.164c0.384,0.226,0.77,0.451,1.157,0.676C40.586,17.29,39.739,17.948,39.674,19.127z"/>
	<path style="fill-rule:evenodd;clip-rule:evenodd;" d="M61.799,21.98c0.235,0.055,0.474,0.095,0.714,0.118
		c0.243,0.538,0.804,1.249-0.178,1.477c-1.144,0.265-2.003-0.197-2.04-1.56C60.797,22.004,61.298,21.992,61.799,21.98z"/>
	<path style="fill-rule:evenodd;clip-rule:evenodd;" d="M0.869,49.99c0.116,1.142,0.167,2.288,0.247,3.433
		c5.597,0.775,11.212-0.031,16.822,0.141c2.941,0.09,3.674,1.353,3.372,3.671c-0.401,3.086,0.588,5.755,1.887,8.406
		c0.688,2.434,1.666,4.727,3.178,6.771c1.387,1.729,2.618,3.623,4.838,4.445c1.814,1.432,3.626,2.885,5.498,4.22
		c2.178,1.55,4.975,0.369,6.044,1.604c2.661,3.072,5.808,1.449,8.704,1.987c2.234,0.414,2.284-2.884,4.36-2.375
		c4.104,1.007,7.143-1.342,10.368-3.144c3.923-2.571,6.947-5.917,9.306-10.002c2.022-3.506,2.516-7.529,4.257-11.104
		c1.58-1.468,0.692-4.977,4.087-4.938c1.779,0.021,3.559,0.043,5.337,0.065c1.633,0.079,3.268,0.077,4.903,0.073
		c4.828-0.012,4.932-0.153,3.809-5.226c-1.394-0.247-2.802-0.12-4.203-0.121c-12.258-0.012-24.517-0.037-36.774,0.021
		c-2.223,0.01-3.798-0.258-3.517-3.061c0.636-6.364,0.063-12.759,0.32-19.146c1.017-1.835-2.052-4.633,1.391-5.883
		c2.211-0.413,3.921,0.364,5.192,2.185c0.448,0.509,0.976,0.513,1.546,0.243c0.652-1.888-0.885-2.715-1.853-3.816
		c-2.475-5.166-4.932-10.338-7.28-15.562c-0.206,0.04-0.366-0.027-0.482-0.203c-1.981,0.011-2.811,1.401-3.276,2.98
		c-0.363,1.229-0.8,2.313-1.893,3.048c-2.838,1.849-3.838,5.216-6.174,7.48c-0.729,0.721-1.463,1.437-1.641,2.517
		c0.104,0.574,0.576,0.783,1.014,1.025c1.875-0.065,3.75-0.132,5.625-0.198c3.729,0.142,2.271,2.734,2.213,4.661
		c-0.266,6.357-0.035,12.726-0.124,19.091c-0.023,1.678,1.234,3.438-0.263,5.039c-1.213,0.511-2.195-0.51-3.315-0.506
		c-13.765,0.046-27.529,0.148-41.293,0.127C1.441,47.939,0.695,48.275,0.869,49.99z M25.697,54.033
		c1.604-1.4,3.604-0.856,5.374-0.858c13.35-0.013,26.699,0.139,40.049,0.214c1.234,0.007,2.372-0.899,3.676-0.474
		c0.944,1.114,1.744,2.263,0.915,3.804l-0.139-0.033c-1.77,1.419-2.488,3.35-3.02,5.505c-1.175,4.758-4.447,8.41-6.924,12.479
		c-0.895,0.454-1.671,1.018-1.933,2.064c-1.231,0.934-2.99-0.36-4.124,0.979c-1.304,3.646-4.384,1.272-6.533,1.68
		c-2.373,0.451-4.998-0.227-7.426,0.668c-1.22,0.448-2.1-0.153-2.59-1.02c-0.691-1.22-1.791-1.682-2.923-2.198
		c-1.339-0.552-2.604-1.291-4.036-1.614c-0.381-0.174-0.763-0.348-1.145-0.521c-2.03-2.061-2.989-4.886-4.973-6.979
		c-0.168-0.318-0.283-0.658-0.363-1.007c0.064-1.728-1.07-2.868-2.02-4.104c-0.729-1.529,0.022-3.366-1.016-4.829
		C26.219,56.548,25,55.505,25.697,54.033z"/>
	<path style="fill-rule:evenodd;clip-rule:evenodd;" d="M65.629,74.67c0.392-4.22,4.353-6.646,5.353-10.691
		c0.33-1.334,0.662-2.866,1.174-4.259c0.645-1.752,1.57-2.813,3.417-3.034c0.143,0.568,0.175,1.116-0.287,1.574
		c-2.204,1.825-2.051,4.548-2.662,6.98l0.048-0.049c-0.951,0.852-1.166,2.054-1.523,3.189C69.675,70.8,67.813,72.877,65.629,74.67z"
		/>
	<path style="fill-rule:evenodd;clip-rule:evenodd;" d="M27.103,57.532c1.866,1.488,0.356,3.556,0.905,5.271
		c1.441,0.916,1.537,2.603,2.26,3.931c0.058,0.218,0.087,0.44,0.089,0.666c0.228,1.488,2.657,2.228,1.435,4.21
		c-2.795-2.129-3.304-5.502-4.597-8.448C26.65,61.293,26.505,59.418,27.103,57.532z"/>
	<path style="fill-rule:evenodd;clip-rule:evenodd;" d="M31.791,71.609c0.445-1.718-1.854-2.5-1.436-4.21
		c2.488,1.833,3.354,4.678,4.564,7.31C33.373,74.186,32.527,72.953,31.791,71.609z"/>
	<path style="fill-rule:evenodd;clip-rule:evenodd;" d="M27.103,57.532c0.03,1.874,0.062,3.748,0.092,5.625
		c-0.797-2.99-2.64-5.813-1.497-9.124C26.166,55.198,26.635,56.365,27.103,57.532z"/>
	<path style="fill-rule:evenodd;clip-rule:evenodd;" d="M27.016,72.284c-3.246-1.062-3.696-3.453-3.032-6.374
		C24.994,68.034,26.005,70.159,27.016,72.284z"/>
	<path style="fill-rule:evenodd;clip-rule:evenodd;" d="M72.623,65.24c0.205-2.587-0.884-5.665,2.661-6.979
		C74.397,60.587,73.51,62.914,72.623,65.24z"/>
	<path style="fill-rule:evenodd;clip-rule:evenodd;" d="M36.064,75.229c1.939-0.943,2.992,0.329,4.037,1.614
		C38.036,78.104,37.202,76.285,36.064,75.229z"/>
	<path style="fill-rule:evenodd;clip-rule:evenodd;" d="M75.711,56.719c-0.306-1.268-0.609-2.535-0.915-3.804
		C77.184,53.683,76.98,55.072,75.711,56.719z"/>
	<path style="fill-rule:evenodd;clip-rule:evenodd;" d="M71.147,68.381c-0.368-1.481,0.36-2.438,1.523-3.189
		C72.688,66.505,72.08,67.521,71.147,68.381z"/>
	<path style="fill-rule:evenodd;clip-rule:evenodd;" d="M59.572,77.714c1.201-1.058,2.663-1.011,4.123-0.979
		C62.58,78.152,60.922,77.282,59.572,77.714z"/>
	<path style="fill-rule:evenodd;clip-rule:evenodd;" d="M30.268,66.733c-1.157-1.078-1.678-2.522-2.26-3.929
		C30.298,63.229,30.395,64.917,30.268,66.733z"/>
</g>
</svg>
