<?xml version="1.0" encoding="iso-8859-1"?>
<!-- Generator: Adobe Illustrator 16.0.0, SVG Export Plug-In . SVG Version: 6.00 Build 0)  -->
<!DOCTYPE svg PUBLIC "-//W3C//DTD SVG 1.1//EN" "http://www.w3.org/Graphics/SVG/1.1/DTD/svg11.dtd">
<svg version="1.1" id="Layer_1" xmlns="http://www.w3.org/2000/svg" xmlns:xlink="http://www.w3.org/1999/xlink" x="0px" y="0px"
	 width="95.583px" height="54.927px" viewBox="0 0 95.583 54.927" style="enable-background:new 0 0 95.583 54.927;"
	 xml:space="preserve">
<g>
	<path style="fill-rule:evenodd;clip-rule:evenodd;" d="M6.723,49.481c1.188-1.35,2.377-2.697,3.565-4.047
		c2.453-2.404,2.627-5.758,3.654-8.758c0.405-1.117,0.092-2.428,0.936-3.424c0.628-0.061,0.967,0.305,1.207,0.816
		c0.413,1.379,0.331,2.768,0.087,4.16c-0.199,0.777-0.485,1.529-0.75,2.285c-0.113,0.824-1.236,1.469-0.418,2.439
		c1.884-1.08,3.118-2.805,4.54-4.336c0.658-0.709,1.203-2.066,2.489-0.723c-0.006,0.813,0.171,1.684-0.726,2.195
		c-3.559,5.166-8.004,9.16-14.24,10.791C6.448,50.538,6.523,50.024,6.723,49.481z"/>
	<path style="fill-rule:evenodd;clip-rule:evenodd;" d="M88.015,50.933c-6.391-2.006-11.604-5.631-15.396-11.203
		c-0.51-1.119-0.805-2.336-1.525-3.357c-0.262-0.527-0.863-0.949-0.518-1.664l0.041-0.029c0.848-0.623,1.52-0.154,2.188,0.35
		c2.129,2.523,3.441,5.811,6.76,7.211c1.037,0.502,0.965-0.506,1.297-0.965c0.148-0.271,0.369-0.443,0.662-0.52
		c1.102,3.865,4.084,6.389,6.607,9.238C88.345,50.337,88.308,50.651,88.015,50.933z"/>
	<path style="fill-rule:evenodd;clip-rule:evenodd;" d="M84.585,3.211c0.242-0.026,0.484-0.052,0.727-0.079
		c1.004-0.479,1.684-0.144,2.102,0.841C83.21,7.318,81.037,11.819,80,16.969c-0.506,1.188-0.508,2.471-0.717,3.716
		c-0.029,0.654-0.299,1.251-0.436,1.88c-0.25,0.232-0.545,0.3-0.875,0.226c-0.379-0.332-0.541-0.771-0.621-1.25
		c-0.084-0.601-0.078-1.209-0.137-1.813c-0.08-0.575-0.221-1.146-0.189-1.735c0.244-0.971,0.27-1.978,0.449-2.96
		c0.076-0.278,0.191-0.541,0.332-0.791c0.738-0.936,0.822-2.082,1.01-3.194c0.195-0.723,0.514-1.386,0.922-2.009
		c0.957-0.955,0.102-2.352,0.814-3.365c0.436-0.361,0.871-0.722,1.309-1.083C82.746,4.085,83.865,4.042,84.585,3.211z"/>
	<path style="fill-rule:evenodd;clip-rule:evenodd;" d="M15.667,34.149c-0.204-0.256-0.408-0.51-0.612-0.766
		c-0.892-0.865-0.273-1.963-0.449-2.936c0.789-2.19,1.295-4.392,0.275-6.658c-0.021-0.367-0.043-0.735-0.064-1.103
		c-0.229-0.938-0.536-1.883,0.218-2.742c1.053-1.412,0.328-3.04,0.554-4.552c0.344-0.314,0.66-0.288,0.95,0.076
		c1.11,2.313,0.102,4.906,0.97,7.25c0.42,2.217,0.219,4.456,0.248,6.688c0.002,0.535-0.025,1.07-0.071,1.603
		c-0.037,0.52-0.135,1.027-0.303,1.523C17.006,33.276,16.734,34.138,15.667,34.149z"/>
	<path style="fill-rule:evenodd;clip-rule:evenodd;" d="M78.011,22.657c0.176-0.006,0.35-0.014,0.523-0.024
		c1.133,2.615-0.328,5.553,1.014,8.142c0.094,1.195,0.211,2.391-0.146,3.566c0.221,0.752,0.441,1.506,0.662,2.258
		c0.227,0.443,0.258,0.906,0.133,1.385c-0.242,0.236-0.529,0.322-0.863,0.262c-0.697-0.465-1.09-1.186-1.549-1.854
		c-0.17-0.293-0.289-0.605-0.379-0.932c-0.201-1.021-0.182-2.061-0.234-3.096c-0.035-0.555-0.047-1.107-0.053-1.664
		C77.439,28.02,76.291,25.177,78.011,22.657z"/>
	<path style="fill-rule:evenodd;clip-rule:evenodd;" d="M87.414,3.974c-0.701-0.28-1.402-0.561-2.102-0.841
		c1.574-0.697,3.1-1.57,4.74-2.029c1.074-0.3,2.859-0.471,2.963,1.126c0.104,1.612-1.578,1.572-2.748,1.385
		C89.236,3.449,88.316,3.457,87.414,3.974z"/>
	<path style="fill-rule:evenodd;clip-rule:evenodd;" d="M4.777,3.698C3.407,3.373,1.575,4.126,1.47,2.216
		C1.376,0.507,3.051,1.188,3.998,1.087c1.291-0.137,2.663,0.489,2.776,1.668C6.944,4.54,5.281,3.166,4.777,3.698z"/>
	<path style="fill-rule:evenodd;clip-rule:evenodd;" d="M73.263,12.284c1.246-1.462,1.834-3.577,4.049-4.08
		c0.67-1.028,1.383-0.888,2.119-0.075c-1.486,2.443-2.924,4.94-5.871,5.943C72.814,13.583,72.757,12.98,73.263,12.284z"/>
	<path style="fill-rule:evenodd;clip-rule:evenodd;" d="M6.723,49.481c0.114,0.467,0.227,0.934,0.342,1.402
		c-1.136,0.752-2.054,1.971-3.584,1.91c-0.854-0.035-1.943-0.203-1.976-1.268c-0.03-0.98,0.83-1.42,1.813-1.4
		C4.5,50.151,5.705,50.313,6.723,49.481z"/>
	<path style="fill-rule:evenodd;clip-rule:evenodd;" d="M88.015,50.933c0.037-0.313,0.076-0.627,0.115-0.939
		c0.891,0.033,1.783,0.1,2.674,0.092c0.938-0.006,1.846,0.072,2.246,1.061c0.168,0.416-0.146,0.746-0.545,1.064
		c-0.789,0.635-1.514,0.795-2.441,0.342C89.25,52.157,88.5,51.724,88.015,50.933z"/>
	<path style="fill-rule:evenodd;clip-rule:evenodd;" d="M14.162,36.769c-0.998,3.02-0.859,6.547-3.874,8.666
		c1.616-2.641,1.992-5.762,3.303-8.521C13.697,36.534,13.887,36.487,14.162,36.769z"/>
	<path style="fill-rule:evenodd;clip-rule:evenodd;" d="M15.035,19.946c-0.073,0.914-0.146,1.828-0.218,2.743
		c-1.308-2.814-0.903-5.994-1.893-8.876C15.245,15.3,14.325,17.903,15.035,19.946z"/>
	<path style="fill-rule:evenodd;clip-rule:evenodd;" d="M79.236,8.472c-0.553-0.724-1.221-0.633-1.924-0.268
		c0.135-2.054,2-1.892,3.24-2.53c-0.33,1.177,2.125,2.673-0.412,3.597C79.642,9.227,79.351,8.948,79.236,8.472z"/>
	<path style="fill-rule:evenodd;clip-rule:evenodd;" d="M14.162,36.769c-0.198,0.018-0.388,0.064-0.571,0.143
		c0.418-2.809,0.836-5.621,1.255-8.434c0.458,0.437,0.398,0.96,0.251,1.499c-0.015,1.137-0.029,2.271-0.043,3.408
		C14.898,34.548,14.9,35.757,14.162,36.769z"/>
	<path style="fill-rule:evenodd;clip-rule:evenodd;" d="M79.195,30.769c-1.17-2.635-0.191-5.445-0.66-8.136
		c0.109-0.648,0.217-1.295,0.324-1.943c1.201,0.13,0.633,0.901,0.543,1.498c-0.006,2.306-0.012,4.611-0.018,6.918
		C79.619,29.692,79.779,30.272,79.195,30.769z"/>
	<path style="fill-rule:evenodd;clip-rule:evenodd;" d="M70.435,22.716c-0.189-1.804,0.949-3.872-1.055-5.313
		c0.455-0.097,0.904-0.195,1.355-0.293c0.234-0.42,0.504-0.799,1.035-0.866c0.51,0.021,0.945,0.148,1.053,0.743
		c-0.814,1.883-0.225,4.226-1.908,5.823C70.755,22.78,70.595,22.748,70.435,22.716z"/>
	<path style="fill-rule:evenodd;clip-rule:evenodd;" d="M23.535,32.722c0.028,0.613,0.057,1.225,0.086,1.838
		c-0.189,0.41-0.379,0.82-0.57,1.229c-0.109,0.797-0.601,1.174-1.368,1.248c-2.456-2.033,0.054-2.984,0.933-4.293
		C22.916,32.521,23.223,32.515,23.535,32.722z"/>
	<path style="fill-rule:evenodd;clip-rule:evenodd;" d="M21.486,37.19c0.522-0.467,1.043-0.934,1.565-1.4
		c0.931,2.047-0.017,3.332-1.744,4.301c0.238-0.947,0.684-1.869,0.341-2.885L21.486,37.19z"/>
	<path style="fill-rule:evenodd;clip-rule:evenodd;" d="M15.098,29.976c-0.084-0.5-0.168-0.998-0.251-1.498
		c0.012-1.563,0.023-3.124,0.035-4.687C16.565,25.795,15.911,27.882,15.098,29.976z"/>
	<path style="fill-rule:evenodd;clip-rule:evenodd;" d="M72.654,15.978c-0.365,0.22-0.729,0.439-1.094,0.658
		c-1.385-1.832,0.688-2.729,1.102-4.075c0.215-0.058,0.416-0.15,0.602-0.277c-0.016,0.766,0.08,1.499,0.637,2.092
		C73.853,15.198,73.414,15.712,72.654,15.978z"/>
	<path style="fill-rule:evenodd;clip-rule:evenodd;" d="M28.454,12.039c-0.369,1.883-1.417,3.368-2.754,4.684
		C25.884,14.729,26.913,13.234,28.454,12.039z"/>
	<path style="fill-rule:evenodd;clip-rule:evenodd;" d="M72.662,12.562c-0.346,1.363-1.301,2.563-1.102,4.075
		c-0.275,0.158-0.551,0.316-0.824,0.475C70.349,15.159,70.912,13.609,72.662,12.562z"/>
	<path style="fill-rule:evenodd;clip-rule:evenodd;" d="M79.402,22.187c-0.18-0.499-0.361-0.999-0.543-1.498
		c-0.215-1.422,0.424-2.583,1.141-3.72C80.201,18.754,80.511,20.552,79.402,22.187z"/>
	<path style="fill-rule:evenodd;clip-rule:evenodd;" d="M79.919,38.206c0.049-0.535,0.096-1.072,0.145-1.607
		c1.021,1.195,0.809,2.824,1.457,4.154c-0.092,0.289-0.186,0.576-0.281,0.865c-0.338,0.055-0.637-0.033-0.895-0.26
		C79.667,40.38,79.082,39.39,79.919,38.206z"/>
	<path style="fill-rule:evenodd;clip-rule:evenodd;" d="M35.102,6.246c-0.688,1.392-1.898,2.052-3.341,2.389
		C32.388,7.158,33.936,6.969,35.102,6.246z"/>
	<path style="fill-rule:evenodd;clip-rule:evenodd;" d="M71.042,35.546c1.023,1.207,1.688,2.547,1.576,4.182
		c-0.469-0.682-1.342-1.096-1.371-2.068C70.878,36.985,70.898,36.271,71.042,35.546z"/>
	<path style="fill-rule:evenodd;clip-rule:evenodd;" d="M79.195,30.769c0.063-0.555,0.127-1.107,0.189-1.662
		c0.711,1.74,1.559,3.482,0.018,5.232C79.333,33.149,79.263,31.96,79.195,30.769z"/>
	<path style="fill-rule:evenodd;clip-rule:evenodd;" d="M67.105,39.36c0.227-1.34,0.48-2.666,1.586-3.621
		C68.779,37.216,68.447,38.509,67.105,39.36z"/>
	<path style="fill-rule:evenodd;clip-rule:evenodd;" d="M71.042,35.546c0.068,0.703,0.135,1.406,0.205,2.111
		c-0.896-0.725-1.063-1.799-1.354-2.816c0.229-0.045,0.455-0.088,0.682-0.133C70.732,34.987,70.888,35.267,71.042,35.546z"/>
	<path style="fill-rule:evenodd;clip-rule:evenodd;" d="M84.585,3.211c-0.604,1.058-1.535,1.466-2.723,1.378
		C82.687,3.97,83.466,3.255,84.585,3.211z"/>
	<path style="fill-rule:evenodd;clip-rule:evenodd;" d="M71.138,22.489c0.105-1.933,1.076-4.16-1.754-5.083
		c-1.041-0.399-1.346-1.395-1.777-2.258C64.23,8.377,58.009,5.015,51.312,3.295C45.879,1.9,40.127,3.152,35.102,6.246
		c-0.794,1.243-2.391,1.363-3.341,2.389c-1.102,1.135-2.204,2.27-3.307,3.404c-0.878,1.585-1.925,3.071-2.754,4.684
		c-2.399,1.852-2.667-1.001-3.063-1.8c-2.759-5.547-7.521-8.784-12.67-11.648C9.14,2.814,8.102,2.753,7.587,3.559
		C7.198,4.168,7.61,4.889,8.296,5.518c2.433,2.234,3.707,5.181,4.628,8.294c1.699,1.754,0.463,4.577,2.288,6.285
		c1.747-1.139,1.037-2.875,1.069-4.43c-0.169-0.993-0.508-1.946-0.64-2.947c-0.003-0.878-0.696-1.636-0.738-2.732
		c2.998,2.355,4.708,5.292,6.415,8.231c1.151,1.381,1.6,3.04,1.89,4.762c0.447,2.151,0.459,4.299-0.108,6.434
		c-0.232,1.043-0.271,2.104-0.219,3.168c0.064,0.727,0.15,1.445,0.741,1.977c1.164,0.188,1.602,1.193,1.988,2.043
		c1.89,4.164,4.653,7.674,8.077,10.619c7.158,6.154,17.299,7.012,25.083,1.119c3.334-2.525,6.314-5.283,8.336-8.98
		c0.855-1.064,0.871-2.496,1.586-3.621c0.48-0.195,0.484-1.027,1.203-0.898c0.344,0.16,0.654,0.107,0.928-0.156
		c0.195-0.285,0.332-0.598,0.398-0.939c0.195-1.541,0.16-3.072-0.182-4.592C70.576,26.924,70.566,24.701,71.138,22.489z
		 M66.548,32.19c-0.004,0.504-0.008,1.008-0.012,1.512c-0.631,2.029-1.662,3.924-2.055,6.033c-2.973,2.791-5.35,6.17-9.387,7.83
		c-6.445,2.648-12.444,2.129-18.278-1.523c-4.662-2.918-7.821-6.945-9.168-12.324c-1.269-4.174-1.036-8.345,0.016-12.515
		c2.237-5.593,5.343-10.53,11.01-13.185c8.137-3.812,15.167-1.187,21.604,4.133c1.021,0.843,1.896,1.859,2.84,2.796
		c1.686,2.187,2.707,4.681,3.393,7.332c0.004,0.281,0.01,0.563,0.014,0.845C67.123,26.144,67.093,29.167,66.548,32.19z"/>
	<path style="fill-rule:evenodd;clip-rule:evenodd;" d="M22.989,32.683c0.219-5.066,0.633-10.15-1.43-15
		c1.768,1.14,1.926,3.011,2.19,4.833c0.368,2.265,0.252,4.534,0.075,6.805c-0.097,1.134-0.193,2.267-0.289,3.402
		C23.353,32.71,23.171,32.696,22.989,32.683z"/>
	<path style="fill-rule:evenodd;clip-rule:evenodd;" d="M27.665,21.203c-0.252,4.171-0.343,8.343-0.016,12.513
		C25.601,29.544,25.921,25.372,27.665,21.203z"/>
	<path style="fill-rule:evenodd;clip-rule:evenodd;" d="M66.511,22.279c-1.131-2.444-2.262-4.888-3.393-7.332
		C65.322,16.895,66.457,19.336,66.511,22.279z"/>
	<path style="fill-rule:evenodd;clip-rule:evenodd;" d="M66.548,32.19c-0.008-3.022-0.016-6.044-0.023-9.067
		C67.804,26.143,67.916,29.165,66.548,32.19z"/>
	<path style="fill-rule:evenodd;clip-rule:evenodd;" d="M72.562,35.493c-0.648-0.271-1.297-0.543-1.945-0.814
		c-0.025-1.768-0.051-3.535-0.076-5.303c0.17-0.031,0.342-0.063,0.516-0.094C72.214,31.192,72.765,33.251,72.562,35.493z"/>
	<path style="fill-rule:evenodd;clip-rule:evenodd;" d="M23.824,29.32c-0.025-2.268-0.05-4.536-0.075-6.805
		C24.622,24.774,24.676,27.042,23.824,29.32z"/>
	<path style="fill-rule:evenodd;clip-rule:evenodd;" d="M70.541,29.375c-1.068-2.204-0.887-4.429-0.105-6.661
		c0,0.002,0.281-0.006,0.281-0.006c1.107,2.193,1.074,4.394,0.039,6.6L70.541,29.375z"/>
	<path style="fill-rule:evenodd;clip-rule:evenodd;" d="M64.482,39.735c-0.131-2.289,0.9-4.18,2.055-6.033
		C66.492,35.933,65.671,37.897,64.482,39.735z"/>
	<path style="fill-rule:evenodd;clip-rule:evenodd;" d="M14.881,12.258c0.998,0.388,0.745,1.558,1.364,2.183
		c0.327,0.4,0.301,0.775-0.077,1.127c-0.188-0.073-0.382-0.132-0.58-0.175C15.121,14.401,14.603,13.419,14.881,12.258z"/>
	<path style="fill-rule:evenodd;clip-rule:evenodd;" d="M16.961,32.509c-0.49,2.107,0.637,4.652-1.702,6.256
		c0.135-1.537,0.271-3.076,0.407-4.615C16.098,33.603,16.529,33.056,16.961,32.509z"/>
	<path style="fill-rule:evenodd;clip-rule:evenodd;" d="M14.928,40.464c0.406,1.293-0.679,2.344-0.584,3.586
		C12.344,42.497,14.554,41.63,14.928,40.464z"/>
	<path style="fill-rule:evenodd;clip-rule:evenodd;" d="M79.978,42.745c-0.012-0.48-0.025-0.961-0.039-1.441
		c0.309-0.221,0.57-0.166,0.795,0.127c0.164,0.076,0.334,0.139,0.506,0.188C81.212,42.435,81.343,43.427,79.978,42.745z"/>
	<path style="fill-rule:evenodd;clip-rule:evenodd;" d="M77.222,32.427c-0.498-4.451-1.516-8.926,0.639-13.248
		c-0.016,0.715-0.033,1.431-0.049,2.146c-0.303,3.346-0.355,6.691,0.033,10.036c0.012,0.438,0.02,0.877,0.029,1.316
		C77.556,32.856,77.343,32.761,77.222,32.427z"/>
	<path style="fill-rule:evenodd;clip-rule:evenodd;" d="M77.845,31.36c-0.896-3.343-0.873-6.688-0.033-10.036
		c0.066,0.443,0.133,0.888,0.199,1.331C77.957,25.558,77.9,28.458,77.845,31.36z"/>
	<path style="fill-rule:evenodd;clip-rule:evenodd;" d="M77.96,14.628c-0.004-1.283,0.557-2.358,1.248-3.384
		C79.179,12.515,79.509,13.918,77.96,14.628z"/>
	<path style="fill-rule:evenodd;clip-rule:evenodd;" d="M77.298,18.105c-0.035-1.229-0.254-2.496,0.719-3.519
		C77.71,15.746,78.679,17.165,77.298,18.105z"/>
	<path style="fill-rule:evenodd;clip-rule:evenodd;" d="M16.168,15.568c0.026-0.375,0.052-0.749,0.078-1.125
		c1.906,2.429,1.004,5.381,1.5,8.075c-0.098,0.12-0.196,0.24-0.294,0.36c-0.318,0.028-0.61-0.046-0.876-0.222
		C15.629,20.34,16.594,17.915,16.168,15.568z"/>
	<path style="fill-rule:evenodd;clip-rule:evenodd;" d="M17.746,22.518c0.544,3.039,1.6,6.117-0.701,8.934
		c-0.014-0.488-0.029-0.977-0.043-1.465c0.695-2.361-0.06-4.808,0.427-7.181C17.533,22.709,17.639,22.613,17.746,22.518z"/>
	<path style="fill-rule:evenodd;clip-rule:evenodd;" d="M17.429,22.806c-0.09,2.397,0.78,4.852-0.427,7.181
		c-0.301-2.434,0.295-4.919-0.426-7.33C16.859,22.707,17.144,22.756,17.429,22.806z"/>
	<path style="fill-rule:evenodd;clip-rule:evenodd;" d="M80.734,41.431c-0.264-0.041-0.529-0.084-0.793-0.127
		c-0.252-0.656-0.502-1.314-0.752-1.971c-0.217-0.473-0.279-0.924,0.184-1.301c0.18,0.064,0.363,0.123,0.547,0.174
		C80.193,39.282,80.464,40.356,80.734,41.431z"/>
	<path style="fill-rule:evenodd;clip-rule:evenodd;" d="M79.373,38.032c-0.063,0.436-0.123,0.871-0.182,1.303
		c-0.773-0.965-1.018-2.111-1.164-3.295C78.941,36.39,79.373,37.065,79.373,38.032z"/>
	<path style="fill-rule:evenodd;clip-rule:evenodd;" d="M77.222,32.427c0.217,0.082,0.436,0.166,0.652,0.25
		c0.029,1.137,0.061,2.273,0.09,3.412C76.806,35.052,77.183,33.704,77.222,32.427z"/>
</g>
</svg>
