<?xml version="1.0" encoding="iso-8859-1"?>
<!-- Generator: Adobe Illustrator 16.0.0, SVG Export Plug-In . SVG Version: 6.00 Build 0)  -->
<!DOCTYPE svg PUBLIC "-//W3C//DTD SVG 1.1//EN" "http://www.w3.org/Graphics/SVG/1.1/DTD/svg11.dtd">
<svg version="1.1" id="Layer_1" xmlns="http://www.w3.org/2000/svg" xmlns:xlink="http://www.w3.org/1999/xlink" x="0px" y="0px"
	 width="39.638px" height="80.748px" viewBox="0 0 39.638 80.748" style="enable-background:new 0 0 39.638 80.748;"
	 xml:space="preserve">
<g>
	<path style="fill-rule:evenodd;clip-rule:evenodd;" d="M37.155,7.143c-2.331,8.027-5.674,15.662-9.075,23.271
		c-1.299,2.904-2.618,5.8-3.929,8.699c0.291,2.758-1.227,4.909-2.401,7.169c-0.793,1.542-1.644,3.1,0.854,3.934
		c2.398,0.452,5.059-0.502,7.198,1.341c0.971,0.874,0.714,1.677-0.142,2.446c-0.583,0.457-1.169,0.908-1.894,1.129
		c-1.282,0.27-2.422-0.234-3.577-0.656c-4.008-0.923-7.923-2.215-11.973-2.979c-1.291-0.357-2.27-1.064-2.675-2.405
		c-0.017-1.172,0.344-1.993,1.733-1.848c3.649,1.185,5.889-0.229,7.141-3.731c1.175-3.289,3.284-6.222,3.754-9.785
		c1.543-2.139,1.7-4.79,2.642-7.15c-0.102-1.75,3.006-1.689,2.172-3.851c1.345-5.621,4.22-10.688,5.845-16.208
		c1.08-1.672,2.214-3.312,3.225-5.025c0.968-1.639,1.574-1.116,2.155,0.232C39.75,3.9,38.042,5.442,37.155,7.143z"/>
	<path style="fill-rule:evenodd;clip-rule:evenodd;" d="M4.981,67.597c-0.016-0.272-0.025-0.545-0.031-0.816
		c0.057-1.139,0.063-2.294,1.014-3.145c0.546-2.86,4.766-4.335,3.039-8.054c0.504-0.571,1.125-0.593,1.796-0.386
		c0.775,0.463,1.179,1.253,1.709,1.932c0.892,1.17,2.114,2.093,2.673,3.517c0.352,0.949-0.097,2.11,0.778,2.923
		c-1.192,1.893-0.77,4.043-1.048,6.092c-0.262,1.924-0.892,4.166-2.895,0.844c0.177-0.848,0.962-1.691,0.05-2.526
		c-0.069-0.063-0.49,0.339-0.702,0.603c-0.483,0.404-1.013,0.642-1.648,0.574c-0.404-0.104-0.733-0.32-0.991-0.633
		c-0.277-0.818-0.677-1.144-1.354-0.29C6.243,69.239,5.614,68.409,4.981,67.597z"/>
	<path style="fill-rule:evenodd;clip-rule:evenodd;" d="M27.583,54.652c0.322-0.296,0.646-0.591,0.969-0.886
		c0.601,0.138,1.28,0.158,1.435,0.961c-2.874,4.273-6.49,7.246-12.021,6.864c-0.211-0.245-0.294-0.501-0.25-0.766
		c0.046-0.27,0.101-0.404,0.159-0.404c1.638-0.886,3.494-1.438,4.659-3.052c0.688-0.517,1.443-0.925,2.157-1.403
		C25.481,55.143,26.777,55.442,27.583,54.652z"/>
	<path style="fill-rule:evenodd;clip-rule:evenodd;" d="M5.042,73.589c0.6,0.618,1.199,1.236,1.799,1.854
		c0.119,0.184,0.236,0.367,0.357,0.551c-0.404,1.22-0.608,2.519-1.409,3.583c-2.44-1.321-5.053-2.506-4.784-5.991
		c0.538-0.67,0.956-1.564,2.089-1.125C3.58,73.112,4.006,73.874,5.042,73.589z"/>
	<path style="fill-rule:evenodd;clip-rule:evenodd;" d="M4.981,67.597c0.679,0.06,1.374,1.188,2.03-0.033
		c1.006-0.465,1.495,0.178,1.943,0.907l0.049,0.175c1.705,1.43-0.308,3.582,0.991,5.09c0.036,0.189,0.045,0.379,0.025,0.57
		c-0.073,1.041-0.766,1.511-1.658,1.797c-0.451,0.053-0.869-0.047-1.259-0.275c0,0-0.261-0.383-0.263-0.385
		c1.072-1.85,2.35-3.723-0.725-4.977C4.754,69.911,5.053,68.675,4.981,67.597z"/>
	<path style="fill-rule:evenodd;clip-rule:evenodd;" d="M21.048,46.276c1.034-2.387,2.067-4.773,3.103-7.162
		c2.075,1.714,0.046,3.175-0.312,4.726c-0.456,1.978-2.651,3.401-1.851,5.787C19.358,49.16,20.614,47.603,21.048,46.276z"/>
	<path style="fill-rule:evenodd;clip-rule:evenodd;" d="M11.039,68.466c0.145-1.065-0.396-2.455,1.27-2.811
		c0.723-0.154,1.356,0.131,1.566,0.843c0.543,1.845-0.005,3.243-1.858,4.005c-0.29-0.364-0.58-0.729-0.869-1.092
		c-0.375-0.17-0.516-0.367-0.423-0.591C10.822,68.584,10.926,68.466,11.039,68.466z"/>
	<path style="fill-rule:evenodd;clip-rule:evenodd;" d="M29.987,54.728c-0.477-0.32-0.954-0.641-1.433-0.961
		c0.771-0.535,1.435-1.132,1.248-2.21c0.21-0.777,0.284-1.78,1.391-1.673c0.927,0.09,1.431,0.719,1.117,1.738
		C31.907,52.935,31.102,53.948,29.987,54.728z"/>
	<path style="fill-rule:evenodd;clip-rule:evenodd;" d="M7.916,76.032c0.701-0.576,1.402-1.151,2.104-1.727
		c1.522,3.108-0.605,4.221-2.874,5.256C6.225,78.128,7.184,77.104,7.916,76.032z"/>
	<path style="fill-rule:evenodd;clip-rule:evenodd;" d="M7.739,52.783c-1.957-1.54-3.289-3.37-2.795-6.044
		c1.128-0.773,1.76,0.061,2.439,0.748c0.671,1.306,1.139,2.67,1.148,4.162C8.433,52.142,8.167,52.52,7.739,52.783z"/>
	<path style="fill-rule:evenodd;clip-rule:evenodd;" d="M4.816,42.728c1.71-2.109,2.261-0.084,3.112,0.872
		c0.617,0.582,0.66,1.257,0.32,1.993c-0.385,0.324-0.829,0.5-1.33,0.531C5.136,45.663,4.854,44.271,4.816,42.728z"/>
	<path style="fill-rule:evenodd;clip-rule:evenodd;" d="M7.13,46.058c0.274-0.193,0.575-0.324,0.904-0.39
		c1.206-0.778,1.814,0.487,2.705,0.79c0.181,0.262,0.362,0.524,0.539,0.787c-0.46,0.408-0.916,0.816-1.372,1.226
		c-1.878,1.599-2.071-0.38-2.764-1.3c-0.238-0.244-0.32-0.49-0.244-0.74C6.975,46.183,7.052,46.058,7.13,46.058z"/>
	<path style="fill-rule:evenodd;clip-rule:evenodd;" d="M7.739,52.783c0.097-0.411,0.193-0.823,0.289-1.233
		c0.992-0.416,1.671,0.17,2.36,0.733c0.622,0.665,1.097,1.4,1.077,2.359c-0.084,0.472-0.366,0.765-0.817,0.905
		c-0.549,0.012-1.097,0.022-1.646,0.034C8.582,54.649,8.161,53.716,7.739,52.783z"/>
	<path style="fill-rule:evenodd;clip-rule:evenodd;" d="M7.13,46.058c-0.027,0.264,0.018,0.514,0.134,0.75
		c0.147,0.447,0.01,0.793-0.375,1.048c-0.648-0.372-1.297-0.745-1.945-1.118c0.078-1.339-2.073-2.609-0.128-4.01
		C5.588,43.837,6.36,44.947,7.13,46.058z"/>
	<path style="fill-rule:evenodd;clip-rule:evenodd;" d="M7.916,76.032c0.196,1.275-0.065,2.451-0.771,3.529
		c-0.45,0.006-0.901,0.011-1.354,0.016c-1.441-1.91-0.772-3.078,1.313-3.75C7.351,75.987,7.622,76.056,7.916,76.032z"/>
	<path style="fill-rule:evenodd;clip-rule:evenodd;" d="M17.978,60.851c0.004,0.248-0.001,0.494-0.012,0.741
		c-0.97,0.354-1.608,1.043-2.008,1.976c-2.391-0.088-1.869-1.324-1.054-2.676c0.14-0.213,0.278-0.426,0.418-0.639
		C16.35,59.82,17.297,59.745,17.978,60.851z"/>
	<path style="fill-rule:evenodd;clip-rule:evenodd;" d="M11.039,68.466c-0.015,0.32,0.021,0.637,0.107,0.946
		c-0.384,1.44-0.768,2.882-1.151,4.323c-1.896-1.391-0.854-3.355-0.991-5.09C9.682,68.585,10.36,68.525,11.039,68.466z"/>
	<path style="fill-rule:evenodd;clip-rule:evenodd;" d="M2.855,72.597c-0.616,0.33-1.233,0.66-1.851,0.988
		c0.202-1.197-0.75-2.972,0.87-3.436c1.293-0.369,1.41,1.465,2.104,2.273C3.67,72.909,3.293,72.946,2.855,72.597z"/>
	<path style="fill-rule:evenodd;clip-rule:evenodd;" d="M5.963,63.636c-0.045,1.143,0.27,2.398-1.014,3.143
		C3.23,65.068,3.683,64.058,5.963,63.636z"/>
	<path style="fill-rule:evenodd;clip-rule:evenodd;" d="M2.855,72.597c0.375-0.059,0.749-0.116,1.123-0.174
		c0.354,0.389,0.709,0.777,1.063,1.166c-0.209,0.727-0.176,1.889-1.214,1.713C2.214,75.028,2.911,73.61,2.855,72.597z"/>
	<path style="fill-rule:evenodd;clip-rule:evenodd;" d="M21.048,46.276c-0.003,1.205-0.956,2.677,0.939,3.351
		c0.405,0.036,0.611,0.235,0.618,0.591C19.361,50.177,19.144,49.627,21.048,46.276z"/>
	<path style="fill-rule:evenodd;clip-rule:evenodd;" d="M10.74,46.458c-0.901-0.264-1.804-0.527-2.705-0.791
		C8,44.979,7.964,44.29,7.928,43.601C8.865,44.552,9.802,45.505,10.74,46.458z"/>
	<path style="fill-rule:evenodd;clip-rule:evenodd;" d="M11.055,54.519c-0.354-0.579-0.71-1.159-1.064-1.739
		c-0.796-2.134,1.341-1.456,2.055-2.142c4.477,0.035,8.416,2.213,12.657,3.182c1.192,0.941,0.891,1.986,0.217,3.06
		c-0.569,0.23-1.138,0.461-1.707,0.691c-2.573,1.319-5.146-0.016-7.721,0.007C13.546,57.237,12.236,55.972,11.055,54.519z"/>
	<path style="fill-rule:evenodd;clip-rule:evenodd;" d="M12.045,50.638c-0.686,0.713-1.37,1.426-2.055,2.14
		c-0.654-0.407-1.31-0.817-1.963-1.228c-0.738-1.123-1.234-2.318-1.139-3.696c0.124-0.349,0.249-0.698,0.375-1.048
		c0.882,0.557,1.114,2.14,2.643,1.666C10.62,49.193,11.333,49.915,12.045,50.638z"/>
	<path style="fill-rule:evenodd;clip-rule:evenodd;" d="M24.919,56.879c-0.073-1.021-0.146-2.041-0.218-3.06
		c0.962,0.277,1.923,0.554,2.883,0.832C26.695,55.395,25.807,56.137,24.919,56.879z"/>
	<path style="fill-rule:evenodd;clip-rule:evenodd;" d="M11.055,54.519c1.92-0.293,2.593,1.395,3.727,2.348
		c0.242,0.786-0.257,1.088-0.859,1.326c-0.629,0.104-1.222-0.105-1.826-0.221c-1.209-0.373-1.37-1.373-1.448-2.424
		C10.784,55.204,10.919,54.862,11.055,54.519z"/>
	<path style="fill-rule:evenodd;clip-rule:evenodd;" d="M8.955,68.471c-0.647-0.302-1.296-0.604-1.943-0.907
		c0.104-1.368,0.691-2.424,2.148-1.621C10.445,66.648,9.209,67.625,8.955,68.471z"/>
	<path style="fill-rule:evenodd;clip-rule:evenodd;" d="M12.096,57.972c0.61-0.029,1.221-0.059,1.83-0.088
		c1.445,0.393,1.922,1.281,1.38,2.693c-0.128,0.111-0.262,0.215-0.401,0.314C13.969,59.919,13.033,58.944,12.096,57.972z"/>
	<path style="fill-rule:evenodd;clip-rule:evenodd;" d="M15.306,60.577c-0.461-0.898-0.921-1.799-1.381-2.695
		c0.288-0.336,0.574-0.676,0.858-1.015c2.809,0.235,5.684-0.306,8.429,0.703c-0.741,2.694-2.688,3.464-5.233,3.28
		C17.087,60.76,16.197,60.669,15.306,60.577z"/>
</g>
</svg>
