<?xml version="1.0" encoding="iso-8859-1"?>
<!-- Generator: Adobe Illustrator 16.0.0, SVG Export Plug-In . SVG Version: 6.00 Build 0)  -->
<!DOCTYPE svg PUBLIC "-//W3C//DTD SVG 1.1//EN" "http://www.w3.org/Graphics/SVG/1.1/DTD/svg11.dtd">
<svg version="1.1" id="Layer_1" xmlns="http://www.w3.org/2000/svg" xmlns:xlink="http://www.w3.org/1999/xlink" x="0px" y="0px"
	 width="31.257px" height="86.184px" viewBox="0 0 31.257 86.184" style="enable-background:new 0 0 31.257 86.184;"
	 xml:space="preserve">
<g>
	<path style="fill-rule:evenodd;clip-rule:evenodd;" d="M15.689,72.426c-0.146-0.521-0.29-1.042-0.435-1.563
		c-0.063-0.47-0.061-0.94-0.005-1.411c0.36-1.889,0.202-3.795,0.172-5.7c-0.017-1.525-0.047-3.048-0.021-4.572
		c0.021-1.052,0.149-2.089,0.388-3.11c1.2-6.563,0.186-13.21,0.741-19.787c-0.176-0.418-0.422-0.798-0.736-1.134
		c-1.5-1.925-3.632-0.35-5.366-0.971c-2.37-2.185-1.184-3.4,1.236-3.938c2.716-0.604,5.521-0.171,8.272-0.343
		c1.317,0.034,2.292-0.987,3.539-1.182c0.52,0.006,0.988,0.164,1.408,0.471c1.021,2.251-0.032,3.329-2.152,3.8l-0.107,0.312
		c-1.544,1.55-1.603,3.486-1.592,5.52c0.049,9.094,0.019,18.189,0.022,27.281c-0.218,1.392-0.548,2.769-0.676,4.175
		c-1.123,3.932-0.212,7.996-0.755,11.967c-0.051,0.532-0.128,1.061-0.228,1.586c-0.707,1.594-1.54,2.26-2.719,0.369
		c-0.117-0.197-0.186-0.408-0.206-0.637c-0.688-1.551-0.093-3.279-0.666-4.846C15.516,76.622,16.794,74.503,15.689,72.426z"/>
	<path style="fill-rule:evenodd;clip-rule:evenodd;" d="M13.484,1.115c2.284-0.807,2.938-0.375,4.698,3.11
		c1.828,1.834,0.442,4.115,0.853,6.148c-0.063,0.552-0.173,1.092-0.33,1.625c-0.507,4.486,0.35,9.02-0.493,13.497
		c-1.657,2.115-3.381,2.138-5.168,0.166c-1.058-3.365,0.052-6.888-0.731-10.278c-0.155-0.557-0.223-1.125-0.207-1.702
		C12.236,9.457,10.703,5.049,13.484,1.115z"/>
	<path style="fill-rule:evenodd;clip-rule:evenodd;" d="M13.201,25.299c1.483,1.305,3.017,1.231,4.584,0.162
		c0.975-4.723-0.442-9.576,0.777-14.286l-0.025,0.026c0.264-0.372,0.537-0.379,0.819-0.021c1.051,4.58-0.837,9.411,1.188,13.907
		c0.354,0.27,0.542,0.627,0.571,1.07c-0.12,1.532,0.837,2.813,1.004,4.278c-3.11,1.663-6.438,0.244-9.646,0.668
		c-2.032,0.269-3.872,0.371-2.045,3.075c-1.56-0.068-1.932,2.278-3.687,1.81c-0.627-0.845-0.688-1.906-1.101-2.829
		c-0.473-1.402-1.988-1.118-2.906-1.792c1.011-2.28,2.703-3.896,4.9-5.02c1.593,1.471,2.062-0.282,2.889-1.007
		c1.957-3.512,0.528-7.396,1.212-11.048c0.313-0.475,0.556-0.441,0.727,0.102c-0.037,0.196-0.001,0.378,0.107,0.546
		C13.704,18.337,12.625,21.868,13.201,25.299z"/>
	<path style="fill-rule:evenodd;clip-rule:evenodd;" d="M20.168,67.144c0.146-9.699,0.393-19.398,0.358-29.096
		c-0.007-2.104-0.294-3.897,2.097-4.75c-1.616,5.803-0.585,11.726-0.77,17.592c-0.171,5.421-0.127,10.851-0.178,16.275
		C21.167,67.597,20.665,67.589,20.168,67.144z"/>
	<path style="fill-rule:evenodd;clip-rule:evenodd;" d="M20.168,67.144c0.502,0.007,1.004,0.014,1.507,0.021
		c-0.761,6.091,1.479,12.529-2.113,18.294c-0.58-0.173-0.541-0.779-0.818-1.165c0.008-0.359,0.016-0.72,0.023-1.08
		c0.866-4.3-0.15-8.686,0.583-12.992C19.761,69.231,19.08,67.952,20.168,67.144z"/>
	<path style="fill-rule:evenodd;clip-rule:evenodd;" d="M16.592,59.657c-0.042,1.469-0.083,2.939-0.125,4.408
		c-1.016,1.943,0.17,4.172-0.79,6.123c-0.095,0.256-0.235,0.483-0.423,0.678c-0.996-0.132-1.354-0.896-1.679-1.691
		c-1.043-1.087-0.956-2.461-0.976-3.809c-0.006-1.08-0.006-2.16,0-3.241c0.122-1.587-0.321-3.388,1.619-4.288
		C15.582,57.698,16.174,58.564,16.592,59.657z"/>
	<path style="fill-rule:evenodd;clip-rule:evenodd;" d="M16.592,59.657c-0.718-0.551-1.436-1.104-2.153-1.655
		c-0.6-0.769-0.672-1.632-0.466-2.546c0.791-1.648,1.01-3.23,0.742-5.176c-0.552-3.996-1.302-8.139,0.778-12.019
		c0.1-1.038,0.199-2.076,0.299-3.113c0.001,0,0.427,0.032,0.427,0.032c1.658,7.042,0.731,14.147,0.515,21.235
		C16.687,57.495,16.639,58.577,16.592,59.657z"/>
	<path style="fill-rule:evenodd;clip-rule:evenodd;" d="M11.641,38.229c0.648,0,1.297,0,1.945,0
		c2.816,2.565,1.013,5.838,1.345,8.786c-0.977,1.214-2.067,2.02-3.662,1.029c-1.417-2.408,0.475-5.077-0.588-7.517
		C10.697,39.634,10.902,38.819,11.641,38.229z"/>
	<path style="fill-rule:evenodd;clip-rule:evenodd;" d="M22.731,32.985c0.975-1.052,2.362-1.906,1.783-3.707
		c2.944-0.347,3.359,2.937,5.457,3.805c0.793,1.438,0.516,2.727-1.057,3.135c-1.107,0.288-2.696,0.707-3.341-0.978
		C25.053,33.881,24.258,33.009,22.731,32.985z"/>
	<path style="fill-rule:evenodd;clip-rule:evenodd;" d="M14.555,47.211c-0.158-3.013,0.694-6.133-0.969-8.982
		c0.636,0.011,1.271,0.021,1.907,0.033c-0.154,6.082,1.047,12.234-0.94,18.22c-0.503,0.111-0.938-0.006-1.292-0.389
		c-0.312-0.732-0.263-1.406,0.326-1.992c0.363-0.996,1.552-2.005-0.046-2.971C12.389,49.438,13.596,48.356,14.555,47.211z"/>
	<path style="fill-rule:evenodd;clip-rule:evenodd;" d="M12.462,14.395l-0.355-0.108c0,0-0.372,0.001-0.371,0.004
		c-0.029-4.471-2.843-9.314,1.748-13.175C11.718,5.432,12.783,9.966,12.462,14.395z"/>
	<path style="fill-rule:evenodd;clip-rule:evenodd;" d="M6.547,32.825c0.765,1.013,0.445,2.091,0.192,3.165
		c-1.396,0.056-2.794,0.112-4.19,0.168c-1.068-1.34-0.808-2.672,0.024-4C2.6,31.959,2.693,31.8,2.853,31.679
		C4.192,31.714,5.603,31.517,6.547,32.825z"/>
	<path style="fill-rule:evenodd;clip-rule:evenodd;" d="M11.58,40.217c0.041,2.66,0.082,5.319,0.123,7.979
		c0.501,0.684,0.493,1.344-0.089,1.98c-3.868-2.68-0.282-6.869-2.021-9.979C10.261,39.622,10.923,39.624,11.58,40.217z"/>
	<path style="fill-rule:evenodd;clip-rule:evenodd;" d="M29.971,33.084c-2.407-0.424-3.55-2.663-5.457-3.805
		c-0.2-0.248-0.457-0.347-0.771-0.297c-0.135-0.161-0.269-0.322-0.403-0.483c0.173-0.119,0.346-0.238,0.519-0.357
		C27.741,27.508,28.515,30.718,29.971,33.084z"/>
	<path style="fill-rule:evenodd;clip-rule:evenodd;" d="M13.682,56.081c0.311,0.088,0.602,0.221,0.871,0.398
		c-0.037,0.51-0.074,1.018-0.112,1.524c-0.992,1.22-0.732,2.712-0.896,4.112c-1.142,0.764-1.399-0.428-1.984-0.897
		c0.017-1.235,0.033-2.472,0.05-3.707C12.051,56.675,12.359,55.642,13.682,56.081z"/>
	<path style="fill-rule:evenodd;clip-rule:evenodd;" d="M10.524,25.341c0.173,1.609,0.423,3.551-1.74,3.691
		c-1.515,0.098-1.062-1.631-1.148-2.684C8.598,26.013,9.561,25.677,10.524,25.341z"/>
	<path style="fill-rule:evenodd;clip-rule:evenodd;" d="M13.554,65.163c0.007,1.338,0.014,2.674,0.021,4.012
		c-3.329-0.634-1.548-3.24-1.937-5.01C12.708,63.671,13.005,64.657,13.554,65.163z"/>
	<path style="fill-rule:evenodd;clip-rule:evenodd;" d="M16.477,78.3c-0.002,1.752-0.004,3.504-0.006,5.257
		c-1.287-2.332-2.055-4.739-1.043-7.396C16.333,76.601,15.895,77.7,16.477,78.3z"/>
	<path style="fill-rule:evenodd;clip-rule:evenodd;" d="M11.614,50.177c0.029-0.66,0.058-1.32,0.087-1.98
		c0.953-0.328,1.904-0.656,2.855-0.985c-0.338,1.308-0.676,2.614-1.015,3.921C12.899,50.813,12.256,50.494,11.614,50.177z"/>
	<path style="fill-rule:evenodd;clip-rule:evenodd;" d="M19.356,11.18l-0.409,0.028l-0.41-0.006c-0.42-2.31,0.642-4.695-0.352-6.977
		C21.489,6.051,19.214,8.82,19.356,11.18z"/>
	<path style="fill-rule:evenodd;clip-rule:evenodd;" d="M2.574,32.158c-0.008,1.333-0.016,2.667-0.024,4
		C-0.259,35.103-0.255,34.536,2.574,32.158z"/>
	<path style="fill-rule:evenodd;clip-rule:evenodd;" d="M6.547,32.825c-1.232-0.381-2.465-0.763-3.696-1.145
		c0.002-0.001-0.117-0.311-0.116-0.312C4.298,31.087,6.429,29.324,6.547,32.825z"/>
	<path style="fill-rule:evenodd;clip-rule:evenodd;" d="M11.58,40.217c-0.662-0.007-1.324-0.013-1.986-0.02
		c0.284-1.07-0.878-3.645,2.047-1.968C11.621,38.892,11.6,39.555,11.58,40.217z"/>
	<path style="fill-rule:evenodd;clip-rule:evenodd;" d="M16.477,78.3c-0.35-0.715-0.699-1.428-1.049-2.141
		c0.087-1.244,0.173-2.489,0.261-3.734C17.397,74.189,16.592,76.29,16.477,78.3z"/>
	<path style="fill-rule:evenodd;clip-rule:evenodd;" d="M13.554,65.163c-0.639-0.333-1.277-0.666-1.915-0.998
		c-0.026-0.982-0.053-1.965-0.079-2.946c0.662,0.3,1.323,0.599,1.985,0.897C13.548,63.132,13.551,64.147,13.554,65.163z"/>
	<path style="fill-rule:evenodd;clip-rule:evenodd;" d="M13.682,56.081c-0.69,0.476-1.382,0.95-2.072,1.428
		c-0.108-1.578-0.16-3.127,1.978-3.406C13.619,54.761,13.651,55.422,13.682,56.081z"/>
	<path style="fill-rule:evenodd;clip-rule:evenodd;" d="M20.143,25.971c0.127-0.298,0.261-0.592,0.401-0.884
		c2.219-0.189,2.625,1.587,3.314,3.056c0,0-0.339,0.028-0.339,0.028l-0.325-0.101C21.513,28.336,20.748,27.271,20.143,25.971z"/>
	<path style="fill-rule:evenodd;clip-rule:evenodd;" d="M16.734,56.415c-0.171-7.078-0.342-14.156-0.514-21.234
		c0.401,0.075,1.159,0.164,1.156,0.223C17.093,42.405,18.673,49.468,16.734,56.415z"/>
	<path style="fill-rule:evenodd;clip-rule:evenodd;" d="M19.35,70.222c-0.476,4.32,1.388,8.745-0.583,12.994
		C18.873,78.88,17.683,74.487,19.35,70.222z"/>
	<path style="fill-rule:evenodd;clip-rule:evenodd;" d="M20.143,25.971c1.491,0.012,1.92,1.568,3.053,2.1
		c0.183,0.305,0.366,0.608,0.549,0.913c-0.545,0.489-1.088,0.979-1.628,1.46C22.104,28.663,18.174,28.623,20.143,25.971z"/>
	<path style="fill-rule:evenodd;clip-rule:evenodd;" d="M15.677,70.188c-0.239-2.106-0.18-4.174,0.79-6.123
		C16.524,66.147,17.307,68.323,15.677,70.188z"/>
	<path style="fill-rule:evenodd;clip-rule:evenodd;" d="M18.562,11.175c-0.158,4.768,1.191,9.616-0.777,14.285
		C17.921,20.692,16.449,15.836,18.562,11.175z"/>
	<path style="fill-rule:evenodd;clip-rule:evenodd;" d="M13.201,25.299c-1.655-3.364,0.033-6.932-0.63-10.357
		C14.756,18.273,13.469,21.817,13.201,25.299z"/>
</g>
</svg>
